<svg xmlns="http://www.w3.org/2000/svg" viewBox="0 0 500 500"><g id="freepik--background-complete--inject-44"><path d="M92.59,378.22l-13.12.28-6.66.11c-2.23.05-4.47,0-6.7.06h-.44v-.45L65.61,367v-.5h.5l13.24.07c4.42,0,8.83.11,13.24.16h.28V367c0,1.9-.09,3.79-.13,5.66Zm0,0-.14-5.65c0-1.86-.11-3.7-.13-5.54l.27.28c-4.41.05-8.82.16-13.24.16l-13.24.06.5-.5,0,11.19-.45-.44c2.18,0,4.36,0,6.55.05l6.58.12Z" style="fill:#ebebeb"></path><path d="M77.82,392.33l-13.12.28-6.66.11c-2.23,0-4.47,0-6.7.06H50.9v-.45l-.06-11.19v-.5h.5l13.24.07c4.41,0,8.83.11,13.24.16h.28v.27c0,1.9-.08,3.79-.13,5.66Zm0,0-.14-5.65c-.05-1.86-.11-3.7-.13-5.54l.27.28c-4.41.05-8.83.16-13.24.16l-13.24.06.5-.5-.05,11.19-.45-.44c2.18,0,4.36,0,6.55.05l6.58.11Z" style="fill:#ebebeb"></path><path d="M302.3,202.49l-13.12.28-6.66.11c-2.23.05-4.47,0-6.7.06h-.44v-.45l-.06-11.19v-.5h.5l13.24.07c4.42,0,8.83.11,13.24.16h.28v.27c0,1.9-.09,3.79-.14,5.66Zm0,0-.14-5.65c0-1.86-.11-3.71-.13-5.54l.27.28c-4.41,0-8.82.15-13.24.16l-13.24.06.5-.5-.05,11.19-.45-.44c2.18,0,4.36,0,6.55,0l6.58.11Z" style="fill:#ebebeb"></path><path d="M287.53,216.6l-13.12.28-6.66.11c-2.23,0-4.47,0-6.7.06h-.44v-.45l-.05-11.19v-.5h.5l13.24.07c4.41,0,8.83.11,13.24.16h.28v.27c0,1.9-.08,3.79-.13,5.66Zm0,0-.14-5.65c-.05-1.86-.11-3.71-.13-5.54l.27.28c-4.41.05-8.83.15-13.24.16l-13.24.06.5-.5-.05,11.19-.45-.44c2.18,0,4.36,0,6.55.05l6.58.11Z" style="fill:#ebebeb"></path><path d="M272.82,202.49l-13.13.28-6.66.11c-2.22.05-4.46,0-6.69.06h-.45v-.45l0-11.19v-.5h.51l13.24.07c4.41,0,8.82.11,13.24.16h.27v.27c0,1.9-.09,3.79-.13,5.66Zm0,0-.14-5.65c-.05-1.86-.12-3.71-.14-5.54l.28.28c-4.42,0-8.83.15-13.24.16l-13.24.06.5-.5-.06,11.19-.44-.44c2.18,0,4.35,0,6.54,0l6.58.11Z" style="fill:#ebebeb"></path><path d="M448.66,392.33l-13.13.28-6.66.11c-2.22,0-4.46,0-6.69.06h-.45v-.45l-.05-11.19v-.5h.5l13.24.07c4.41,0,8.83.11,13.24.16h.27v.27c0,1.9-.08,3.79-.13,5.66Zm0,0-.14-5.65c0-1.86-.12-3.7-.13-5.54l.27.28c-4.41.05-8.83.16-13.24.16l-13.24.06.5-.5-.06,11.19-.44-.44c2.18,0,4.36,0,6.54.05l6.58.11Z" style="fill:#ebebeb"></path><path d="M433.89,67.49l-13.13.27-6.66.12c-2.22,0-4.46,0-6.69.05H407v-.45l0-11.19v-.51h.51l13.24.06c4.41,0,8.82.11,13.24.16h.27v.27c0,1.9-.09,3.78-.13,5.65Zm0,0-.14-5.66c-.05-1.86-.12-3.7-.14-5.53l.28.27c-4.42,0-8.83.16-13.24.16l-13.24.07.5-.5-.06,11.19-.44-.45c2.18,0,4.35,0,6.54.06l6.58.11Z" style="fill:#ebebeb"></path><path d="M448.66,81.6l-13.13.27-6.66.12c-2.22,0-4.46,0-6.69.05h-.45V81.6l-.05-11.19V69.9h.5l13.24.06c4.41,0,8.83.11,13.24.16h.27v.27c0,1.89-.08,3.78-.13,5.65Zm0,0-.14-5.66c0-1.86-.12-3.7-.13-5.53l.27.27c-4.41,0-8.83.16-13.24.16l-13.24.07.5-.5-.06,11.19-.44-.45c2.18,0,4.36,0,6.54.06l6.58.11Z" style="fill:#ebebeb"></path><path d="M92.59,67.49l-13.12.27-6.66.12c-2.23,0-4.47,0-6.7.05h-.44v-.45L65.61,56.3v-.51h.5l13.24.06c4.42,0,8.83.11,13.24.16h.28v.27c0,1.9-.09,3.78-.13,5.65Zm0,0-.14-5.66c0-1.86-.11-3.7-.13-5.53l.27.27c-4.41,0-8.82.16-13.24.16l-13.24.07.5-.5,0,11.19L66.11,67c2.18,0,4.36,0,6.55.06l6.58.11Z" style="fill:#ebebeb"></path><rect x="49.11" y="71.52" width="56.46" height="68.49" style="fill:#ebebeb"></rect><rect x="55.56" y="77.77" width="43.56" height="55.99" style="fill:#fff"></rect><rect x="55.56" y="77.77" width="1.7" height="55.99" style="fill:#dbdbdb"></rect><rect x="105.57" y="71.52" width="1.7" height="68.49" style="fill:#dbdbdb"></rect><rect x="70.16" y="85.49" width="10.27" height="30.6" style="fill:#dbdbdb"></rect><path d="M93.56,121.82H65.18v-16H93.56Zm-27.38-1H92.56v-14H66.18Z" style="fill:#ebebeb"></path><rect x="101.09" y="156.63" width="56.46" height="68.49" style="fill:#ebebeb"></rect><rect x="107.54" y="162.88" width="43.56" height="55.99" style="fill:#fff"></rect><rect x="107.54" y="162.88" width="1.7" height="55.99" style="fill:#dbdbdb"></rect><rect x="157.55" y="156.63" width="1.7" height="68.49" style="fill:#dbdbdb"></rect><rect x="125.1" y="177.35" width="8.8" height="22.25" style="fill:#ebebeb"></rect><path d="M143.66,206.71H119V190.37h24.63Zm-23.63-1h22.63V191.37H120Z" style="fill:#dbdbdb"></path><rect x="313.21" y="54.96" width="133.02" height="203.96" style="fill:#dbdbdb"></rect><rect x="320.46" y="63.13" width="56.17" height="90.72" style="fill:#fff"></rect><rect x="382.8" y="63.13" width="56.17" height="90.72" style="fill:#fff"></rect><rect x="320.46" y="160.03" width="56.17" height="90.72" style="fill:#fff"></rect><rect x="382.8" y="160.03" width="56.17" height="90.72" style="fill:#fff"></rect><rect x="313.21" y="54.96" width="31.51" height="250.61" style="fill:#ebebeb"></rect><polygon points="338.74 67.76 338.98 96.85 339.07 125.94 339.24 184.12 339.07 242.3 338.98 252.95 338.74 282.04 338.49 252.95 338.41 242.3 338.24 184.12 338.41 125.94 338.5 96.85 338.74 67.76" style="fill:#fff"></polygon><polygon points="324.27 74.5 324.51 100.48 324.65 126.45 324.77 178.4 324.66 230.35 324.52 256.33 324.27 263.86 324.03 256.33 323.89 230.35 323.77 178.4 323.89 126.45 324.03 100.48 324.27 74.5" style="fill:#fff"></polygon><polygon points="331.5 80.63 331.75 111.05 331.84 141.47 332 202.3 331.84 244.69 331.75 275.1 331.5 305.52 331.26 275.1 331.17 244.69 331.01 202.3 331.17 141.47 331.26 111.05 331.5 80.63" style="fill:#fff"></polygon><polygon points="318.89 69.29 319.13 101.12 319.22 132.96 319.39 196.62 319.22 260.29 319.14 273.68 318.89 305.52 318.65 273.68 318.56 260.29 318.39 196.62 318.56 132.96 318.65 101.12 318.89 69.29" style="fill:#fff"></polygon><rect x="414.72" y="54.96" width="31.51" height="250.61" transform="translate(860.94 360.54) rotate(180)" style="fill:#ebebeb"></rect><polygon points="420.69 67.76 420.93 96.85 421.02 125.94 421.19 184.12 421.02 242.3 420.94 252.95 420.69 282.04 420.45 252.95 420.36 242.3 420.19 184.12 420.36 125.94 420.45 96.85 420.69 67.76" style="fill:#fff"></polygon><polygon points="435.16 74.5 435.4 100.48 435.54 126.45 435.66 178.4 435.54 230.35 435.4 256.33 435.16 263.86 434.91 256.33 434.77 230.35 434.66 178.4 434.77 126.45 434.92 100.48 435.16 74.5" style="fill:#fff"></polygon><polygon points="427.92 80.63 428.17 111.05 428.26 141.47 428.42 202.3 428.26 244.69 428.17 275.1 427.92 305.52 427.68 275.1 427.59 244.69 427.43 202.3 427.59 141.47 427.68 111.05 427.92 80.63" style="fill:#fff"></polygon><polygon points="440.54 69.29 440.78 101.12 440.87 132.96 441.04 196.62 440.87 260.29 440.78 273.68 440.54 305.52 440.29 273.68 440.2 260.29 440.04 196.62 440.21 132.96 440.3 101.12 440.54 69.29" style="fill:#fff"></polygon></g><g id="freepik--Floor--inject-44"><polygon points="41.49 453.83 93.62 453.59 145.75 453.5 250 453.33 354.25 453.5 406.38 453.59 458.51 453.83 406.38 454.08 354.25 454.16 250 454.33 145.75 454.16 93.62 454.07 41.49 453.83" style="fill:#263238"></polygon></g><g id="freepik--Table--inject-44"><rect x="292.39" y="286.22" width="166.12" height="8.92" style="fill:#455a64"></rect><rect x="305.42" y="295.14" width="140.06" height="17.18" style="fill:#455a64"></rect><polygon points="445.48 298.54 305.42 300.2 305.42 295.14 445.48 295.14 445.48 298.54" style="fill:#263238"></polygon><path d="M427.39,309.22H323.51v-11H427.39Zm-102.88-1H426.39v-9H324.51Z" style="fill:#37474f"></path><rect x="361.79" y="302.29" width="27.33" height="2.88" style="fill:#37474f"></rect><polygon points="304.45 453.87 300.47 453.87 312.04 312.32 322.18 312.32 304.45 453.87" style="fill:#455a64"></polygon><polygon points="322.18 312.32 320.99 321.8 311.27 321.8 312.04 312.32 322.18 312.32" style="fill:#263238"></polygon><polygon points="446.45 453.87 450.43 453.87 438.86 312.32 428.72 312.32 446.45 453.87" style="fill:#455a64"></polygon><polygon points="428.72 312.32 429.91 321.8 439.63 321.8 438.86 312.32 428.72 312.32" style="fill:#263238"></polygon></g><g id="freepik--Plant--inject-44"><path d="M400,390.29s-17.31-3.93-26.8-12.67-14.79-24.41-14.79-24.41a149.34,149.34,0,0,1,19.41,5.1,32.8,32.8,0,0,1,5.88,8.31,39.66,39.66,0,0,0,0-5.94,26.43,26.43,0,0,1,6.17,3.74C397.81,371.31,400,390.29,400,390.29Z" style="fill:#FFC727"></path><path d="M369.25,360.82c-2.36-1.63-4.77-3.2-7.11-4.85a.13.13,0,0,1,.14-.23c4.46,2.66,8.86,5.51,13.11,8.49,1.49,1,2.94,2.12,4.38,3.23l-.3-.52c-.52-.86-1.07-1.72-1.61-2.57a37.41,37.41,0,0,0-3.68-4.91c-.05,0,0-.13.09-.08,1.34,1.56,2.69,3.1,3.92,4.74.59.79,1.13,1.6,1.65,2.43.27.43.53.87.77,1.31.09.15.18.29.26.45,2.24,1.75,4.42,3.59,6.5,5.53q1.94,1.79,3.72,3.71c-.67-2.09-1.25-4.21-2-6.28,0-.07.09-.1.12,0,.75,2.17,1.57,4.34,2.16,6.57,1.32,1.43,2.59,2.91,3.79,4.46a2.86,2.86,0,0,0-.07-.28c-.19-.82-.4-1.63-.61-2.44-.43-1.57-.89-3.13-1.41-4.66a26.89,26.89,0,0,0-4.66-8.78c0-.06,0-.14.09-.09a33.79,33.79,0,0,1,6.63,13.85c.19.74.36,1.48.53,2.22.09.39.19.79.26,1.2.52.7,1,1.42,1.53,2.15a74.77,74.77,0,0,1,7.32,14.37,163.31,163.31,0,0,1,5.55,17.29.09.09,0,0,1-.18,0c-3.38-10.13-6.84-20.41-12.64-29.46a65.44,65.44,0,0,0-4-5.54,32.67,32.67,0,0,1-8.42-1.67,37.79,37.79,0,0,1-8.44-4.08,50.48,50.48,0,0,1-4.32-3.27.06.06,0,1,1,.07-.09,34.55,34.55,0,0,0,7.94,4.81,43.94,43.94,0,0,0,8.73,2.93c1.28.27,2.58.48,3.87.66a72,72,0,0,0-5.1-5.66c-.59-.58-1.19-1.14-1.79-1.71a41.35,41.35,0,0,0-6.4-3.66c-2.84-1.37-5.63-2.83-8.44-4.25-1.58-.81-3.16-1.63-4.75-2.41a.06.06,0,1,1,.06-.1c2.84,1.37,5.73,2.65,8.61,4,2.7,1.24,5.43,2.48,8,3.94l.32.19c-2.34-2-4.77-4-7.25-5.86C373.94,364.16,371.61,362.46,369.25,360.82Z" style="fill:#263238"></path><path d="M370.23,369.75c1.41.62,2.84,1.16,4.24,1.82s2.79,1.45,4.15,2.26c.06,0,0,.12-.06.09-1.38-.66-2.77-1.28-4.14-2s-2.79-1.46-4.22-2.09C370.13,369.83,370.16,369.72,370.23,369.75Z" style="fill:#263238"></path><path d="M456.28,303a24.79,24.79,0,0,0-5.18,14.38c-.05,1.56.19,3.72.37,6.26a41.06,41.06,0,0,0-11.3,9.66,20.5,20.5,0,0,1,11.42-2.73,34,34,0,0,1-.66,5.17,19.41,19.41,0,0,0-7.35,1.45,16.54,16.54,0,0,1,6.63,1.32c-3.09,9.82-12.26,19.91-37.6,24.19a53.2,53.2,0,0,1,4.49-35.65C424.69,312.15,456.28,303,456.28,303Z" style="fill:#FFC727"></path><path d="M403.84,404.74c.44-4.19,1-8.37,1.65-12.54a249.49,249.49,0,0,1,5.1-24.8,102,102,0,0,1,3.66-11.3,17.24,17.24,0,0,1-.09-2c0-.81,0-1.62,0-2.43,0-1.62.09-3.24.23-4.86a58.8,58.8,0,0,1,1.55-9.5c.47-1.8,1-3.58,1.54-5.37,0-.07.13,0,.11,0a69.38,69.38,0,0,0-1.87,9.48,86.57,86.57,0,0,0-.85,9.51c0,.87-.05,1.74-.05,2.61,0,.37,0,.74,0,1.12a78.93,78.93,0,0,1,4.27-8.84,106.13,106.13,0,0,1,8.67-13,5.72,5.72,0,0,1,.2-1.42c.12-.56.25-1.13.37-1.69q.39-1.74.87-3.45c.63-2.3,1.46-4.52,2.18-6.78a.06.06,0,1,1,.11,0c-.67,2.24-1.11,4.57-1.63,6.85l-.75,3.39-.36,1.7a.59.59,0,0,0,0,.13c1-1.29,2.06-2.57,3.13-3.82,4.84-5.68,10.14-10.91,15.48-16.1.66-.64,1.33-1.27,2-1.89.05-.06.13,0,.08.08-5.1,5.32-10.13,10.71-14.88,16.34-1.13,1.34-2.25,2.7-3.34,4.07l1.73-1.15c1.47-1,3-1.9,4.5-2.76s3.09-1.7,4.67-2.49,3.36-1.46,4.93-2.37c.06,0,.12.08.05.1a39.28,39.28,0,0,0-4.62,2.56c-1.54.92-3.08,1.84-4.6,2.8s-3,1.88-4.46,2.84c-1.23.8-2.45,1.67-3.72,2.41a121.74,121.74,0,0,0-8.12,11.81,86.37,86.37,0,0,0-4.19,8l.9-.39,2.32-1c1.49-.67,3-1.31,4.49-2,2.84-1.24,5.72-2.37,8.51-3.73a39.55,39.55,0,0,0,4.55-2.52c.06-.05.12.06,0,.1-5.19,3.58-11,6.1-16.76,8.65l-2.5,1.1c-.68.3-1.37.64-2.07.91a89,89,0,0,0-4.29,11.74,240.9,240.9,0,0,0-5.51,24.5c-1.45,8.28-2.43,16.61-3.19,25-.1,1-.19,2.09-.31,3.13a.33.33,0,0,1-.66,0C403,413.22,403.4,409,403.84,404.74Z" style="fill:#263238"></path><path d="M419.26,334.78c.46-2.57,1.15-5.09,1.84-7.61a.06.06,0,0,1,.11,0c-.64,2.48-1.1,5-1.56,7.51s-.89,5.14-1.25,7.71c0,.05-.08.05-.07,0A65.56,65.56,0,0,1,419.26,334.78Z" style="fill:#263238"></path><path d="M430.17,341.77a45.18,45.18,0,0,1,5.51-3.1c.93-.48,1.86-.93,2.8-1.38s2-.86,2.92-1.34c.07,0,.12.07.06.1-.93.47-1.81,1-2.72,1.52s-1.87,1-2.81,1.54a62.22,62.22,0,0,1-5.62,2.91A.14.14,0,0,1,430.17,341.77Z" style="fill:#263238"></path><path d="M399.72,360.3s-16-3.83-23.38-14.58c-7-10.26-9.3-27.76-9.48-29.3.29,1.41,3.6,16.7,14.51,23.83C389.72,345.71,397.79,350.19,399.72,360.3Z" style="fill:#263238;opacity:0.1"></path><path d="M384.93,332.61a20.55,20.55,0,0,1,5.91,9.73,0,0,0,1,1,0,0,24,24,0,0,0-5.94-9.66C384.8,332.65,384.88,332.56,384.93,332.61Z" style="fill:#263238"></path><path d="M399.72,360.3s-16-3.83-23.38-14.58c-7-10.26-9.3-27.76-9.48-29.3a.87.87,0,0,1,0-.11s7.68,10.93,15.75,13.71S402,342.44,399.72,360.3Z" style="fill:#FFC727"></path><path d="M369.68,322.34a66.48,66.48,0,0,0,5,8.47,34.15,34.15,0,0,0,6.59,6.78c2.17,1.73,4.47,3.29,6.68,5a.56.56,0,0,0-.05-.08c-.42-.62-.86-1.21-1.31-1.79-.92-1.18-1.92-2.28-2.93-3.38-2-2.16-4-4.28-5.81-6.61a24.62,24.62,0,0,1-2.57-4.14c0-.07.08-.11.11,0,2.6,5.41,7.79,8.88,11.49,13.45a23,23,0,0,1,1.49,2,8.08,8.08,0,0,1,.92,1.63,33.94,33.94,0,0,1,5.46,5.52,21.71,21.71,0,0,0-.64-3.11,15.74,15.74,0,0,0-1.7-4.06c0-.06.06-.13.1-.06a19.17,19.17,0,0,1,1.87,4,14.15,14.15,0,0,1,.58,3.46h0a29.66,29.66,0,0,1,2.16,3.37c-.06-.35-.13-.69-.19-1-.32-1.6-.67-3.19-1.09-4.76a28.46,28.46,0,0,0-3.85-9c0-.06.05-.13.1-.07a34.55,34.55,0,0,1,4.27,8.84c.51,1.57.92,3.17,1.27,4.78.18.79.34,1.58.49,2.37.08.41.17.83.23,1.25A57.73,57.73,0,0,1,402,366a161.36,161.36,0,0,1,3.42,20.26,168.1,168.1,0,0,1,1.1,21.51c0,.9-.07,1.8-.12,2.7,0,.23-.36.27-.37,0-.16-3.55-.25-7.11-.46-10.66s-.52-7.1-.9-10.65a188.76,188.76,0,0,0-3.34-20.71c-1.3-5.86-3-11.75-6.18-16.88a32.05,32.05,0,0,0-5.78-6.88c-2.25-2-4.7-3.78-7.07-5.65a38.73,38.73,0,0,1-6.49-6.24,51.12,51.12,0,0,1-5.1-8.26c-.37-.73-.76-1.45-1.14-2.18C369.55,322.34,369.65,322.27,369.68,322.34Z" style="fill:#263238"></path><path d="M372.45,324.69a53.48,53.48,0,0,0,3.57,6.24,0,0,0,0,1-.07.05,43.15,43.15,0,0,1-3.61-6.25C372.31,324.66,372.42,324.62,372.45,324.69Z" style="fill:#263238"></path><path d="M458.51,353.21s.25,22.77-13.36,29.34-20.91,1.1-30.16,3.3a0,0,0,0,0,0,0c.36-.54,7-10,17.47-12.65C443.27,370.5,455.24,362.7,458.51,353.21Z" style="fill:#FFC727"></path><path d="M458.51,353.21s.25,22.77-13.36,29.34-20.91,1.1-30.16,3.3a0,0,0,0,0,0,0,51.42,51.42,0,0,1,15.48-4.57C439.07,380.24,455.46,374.65,458.51,353.21Z" style="opacity:0.1"></path><path d="M414.09,386.26a22.61,22.61,0,0,1,5.42-3.67c.29-.14.59-.25.89-.38a5.59,5.59,0,0,1,.45-.52c.41-.43.84-.84,1.28-1.22a20.51,20.51,0,0,1,2.74-2c2.26-1.32,4.73-2.25,7-3.48.06,0,.12.07,0,.1-1.14.59-2.24,1.25-3.35,1.89s-2.18,1.23-3.23,1.91a24,24,0,0,0-2.7,2c-.24.21-.47.44-.7.67a36.81,36.81,0,0,1,4.61-1.22c2.49-.51,5-.86,7.49-1.39a34.51,34.51,0,0,0,3.62-1c1.13-.91,2.25-1.81,3.32-2.8a26.57,26.57,0,0,0,3.52-3.9c0-.06.15,0,.1.06a41.25,41.25,0,0,1-5.58,6.16q.88-.33,1.74-.72a28.07,28.07,0,0,0,11.6-9.65c.05-.06.15,0,.1.06a31.72,31.72,0,0,1-9.38,9,28.25,28.25,0,0,1-5.93,2.81,56.36,56.36,0,0,1-7.37,1.74,52.12,52.12,0,0,0-7.21,1.71,21.65,21.65,0,0,0-6.05,3.19,28.16,28.16,0,0,0-8.16,10.11,50.63,50.63,0,0,0-4.49,16.65c0,.24-.41.24-.39,0C404.16,402.86,406.71,392.9,414.09,386.26Z" style="fill:#263238"></path><path d="M429.89,378.83a8,8,0,0,1,2.8-2.54,10.29,10.29,0,0,0,3.33-2.75c0-.06.14,0,.1.06a11.18,11.18,0,0,1-2.94,2.63,10.27,10.27,0,0,0-3.2,2.65A.05.05,0,1,1,429.89,378.83Z" style="fill:#263238"></path><polygon points="422.67 403.06 422.05 415.58 420.15 453.83 391.59 453.83 389.69 415.58 389.07 403.06 422.67 403.06" style="fill:#37474f"></polygon><polygon points="422.67 403.06 422.05 415.58 389.69 415.58 389.07 403.06 422.67 403.06" style="fill:#263238"></polygon><rect x="387.07" y="397.83" width="37.6" height="11.94" style="fill:#37474f"></rect></g><g id="freepik--Device--inject-44"><rect x="362.65" y="225.71" width="25.61" height="60.51" style="fill:#FFC727"></rect><g style="opacity:0.2"><path d="M364.22,255.27a.66.66,0,1,1-.65-.65A.65.65,0,0,1,364.22,255.27Z"></path><path d="M366.6,255.27a.66.66,0,0,1-.66.66.66.66,0,1,1,.66-.66Z"></path><path d="M369,255.27a.66.66,0,1,1-.66-.65A.66.66,0,0,1,369,255.27Z"></path><path d="M371.35,255.27a.66.66,0,1,1-.65-.65A.65.65,0,0,1,371.35,255.27Z"></path><path d="M373.73,255.27a.66.66,0,0,1-.66.66.66.66,0,1,1,.66-.66Z"></path><path d="M376.11,255.27a.66.66,0,1,1-.66-.65A.66.66,0,0,1,376.11,255.27Z"></path><path d="M378.48,255.27a.66.66,0,1,1-.65-.65A.65.65,0,0,1,378.48,255.27Z"></path><path d="M380.86,255.27a.66.66,0,1,1-.66-.65A.65.65,0,0,1,380.86,255.27Z"></path><path d="M383.24,255.27a.66.66,0,1,1-.66-.65A.66.66,0,0,1,383.24,255.27Z"></path><path d="M385.61,255.27a.66.66,0,1,1-.65-.65A.65.65,0,0,1,385.61,255.27Z"></path><path d="M388,255.27a.66.66,0,1,1-.66-.65A.65.65,0,0,1,388,255.27Z"></path><path d="M364.22,257.32a.66.66,0,1,1-.65-.65A.65.65,0,0,1,364.22,257.32Z"></path><path d="M366.6,257.32a.66.66,0,0,1-.66.66.66.66,0,1,1,.66-.66Z"></path><path d="M369,257.32a.66.66,0,1,1-.66-.65A.66.66,0,0,1,369,257.32Z"></path><path d="M371.35,257.32a.66.66,0,1,1-.65-.65A.65.65,0,0,1,371.35,257.32Z"></path><path d="M373.73,257.32a.66.66,0,0,1-.66.66.66.66,0,1,1,.66-.66Z"></path><path d="M376.11,257.32a.66.66,0,1,1-.66-.65A.66.66,0,0,1,376.11,257.32Z"></path><path d="M378.48,257.32a.66.66,0,1,1-.65-.65A.65.65,0,0,1,378.48,257.32Z"></path><path d="M380.86,257.32a.66.66,0,1,1-.66-.65A.65.65,0,0,1,380.86,257.32Z"></path><path d="M383.24,257.32a.66.66,0,1,1-.66-.65A.66.66,0,0,1,383.24,257.32Z"></path><path d="M385.61,257.32a.66.66,0,1,1-.65-.65A.65.65,0,0,1,385.61,257.32Z"></path><path d="M388,257.32a.66.66,0,1,1-.66-.65A.65.65,0,0,1,388,257.32Z"></path><path d="M364.22,259.38a.66.66,0,1,1-.65-.66A.65.65,0,0,1,364.22,259.38Z"></path><circle cx="365.94" cy="259.38" r="0.66"></circle><path d="M369,259.38a.66.66,0,1,1-.66-.66A.66.66,0,0,1,369,259.38Z"></path><circle cx="370.7" cy="259.38" r="0.66"></circle><path d="M373.73,259.38a.66.66,0,0,1-.66.65.66.66,0,0,1,0-1.31A.66.66,0,0,1,373.73,259.38Z"></path><circle cx="375.45" cy="259.38" r="0.66"></circle><path d="M378.48,259.38a.66.66,0,1,1-.65-.66A.65.65,0,0,1,378.48,259.38Z"></path><circle cx="380.2" cy="259.38" r="0.66"></circle><path d="M383.24,259.38a.66.66,0,1,1-.66-.66A.66.66,0,0,1,383.24,259.38Z"></path><path d="M385.61,259.38a.66.66,0,1,1-.65-.66A.65.65,0,0,1,385.61,259.38Z"></path><path d="M388,259.38a.66.66,0,1,1-.66-.66A.65.65,0,0,1,388,259.38Z"></path><path d="M364.22,261.43a.66.66,0,1,1-.65-.66A.65.65,0,0,1,364.22,261.43Z"></path><path d="M366.6,261.43a.66.66,0,0,1-.66.65.66.66,0,0,1,0-1.31A.66.66,0,0,1,366.6,261.43Z"></path><path d="M369,261.43a.66.66,0,1,1-.66-.66A.66.66,0,0,1,369,261.43Z"></path><path d="M371.35,261.43a.66.66,0,1,1-.65-.66A.65.65,0,0,1,371.35,261.43Z"></path><path d="M373.73,261.43a.66.66,0,0,1-.66.65.66.66,0,0,1,0-1.31A.66.66,0,0,1,373.73,261.43Z"></path><path d="M376.11,261.43a.66.66,0,1,1-.66-.66A.66.66,0,0,1,376.11,261.43Z"></path><path d="M378.48,261.43a.66.66,0,1,1-.65-.66A.65.65,0,0,1,378.48,261.43Z"></path><path d="M380.86,261.43a.66.66,0,1,1-.66-.66A.65.65,0,0,1,380.86,261.43Z"></path><path d="M383.24,261.43a.66.66,0,1,1-.66-.66A.66.66,0,0,1,383.24,261.43Z"></path><path d="M385.61,261.43a.66.66,0,1,1-.65-.66A.65.65,0,0,1,385.61,261.43Z"></path><path d="M388,261.43a.66.66,0,1,1-.66-.66A.65.65,0,0,1,388,261.43Z"></path><path d="M364.22,263.48a.66.66,0,1,1-.65-.66A.65.65,0,0,1,364.22,263.48Z"></path><path d="M366.6,263.48a.66.66,0,0,1-.66.65.66.66,0,0,1,0-1.31A.66.66,0,0,1,366.6,263.48Z"></path><path d="M369,263.48a.66.66,0,1,1-.66-.66A.66.66,0,0,1,369,263.48Z"></path><path d="M371.35,263.48a.66.66,0,1,1-.65-.66A.65.65,0,0,1,371.35,263.48Z"></path><path d="M373.73,263.48a.66.66,0,0,1-.66.65.66.66,0,0,1,0-1.31A.66.66,0,0,1,373.73,263.48Z"></path><path d="M376.11,263.48a.66.66,0,1,1-.66-.66A.66.66,0,0,1,376.11,263.48Z"></path><path d="M378.48,263.48a.66.66,0,1,1-.65-.66A.65.65,0,0,1,378.48,263.48Z"></path><path d="M380.86,263.48a.66.66,0,1,1-.66-.66A.65.65,0,0,1,380.86,263.48Z"></path><path d="M383.24,263.48a.66.66,0,1,1-.66-.66A.66.66,0,0,1,383.24,263.48Z"></path><path d="M385.61,263.48a.66.66,0,1,1-.65-.66A.65.65,0,0,1,385.61,263.48Z"></path><path d="M388,263.48a.66.66,0,1,1-.66-.66A.65.65,0,0,1,388,263.48Z"></path><path d="M364.22,265.53a.66.66,0,0,1-1.31,0,.66.66,0,1,1,1.31,0Z"></path><circle cx="365.94" cy="265.53" r="0.66"></circle><path d="M369,265.53a.66.66,0,0,1-1.32,0,.66.66,0,1,1,1.32,0Z"></path><circle cx="370.7" cy="265.53" r="0.66"></circle><path d="M373.73,265.53a.66.66,0,0,1-.66.65.65.65,0,0,1-.65-.65.66.66,0,0,1,.65-.66A.67.67,0,0,1,373.73,265.53Z"></path><circle cx="375.45" cy="265.53" r="0.66"></circle><path d="M378.48,265.53a.66.66,0,0,1-1.31,0,.66.66,0,1,1,1.31,0Z"></path><circle cx="380.2" cy="265.53" r="0.66"></circle><path d="M383.24,265.53a.66.66,0,0,1-1.32,0,.66.66,0,1,1,1.32,0Z"></path><path d="M385.61,265.53a.66.66,0,0,1-1.31,0,.66.66,0,1,1,1.31,0Z"></path><path d="M388,265.53a.66.66,0,1,1-.66-.66A.66.66,0,0,1,388,265.53Z"></path><path d="M364.22,267.58a.66.66,0,0,1-1.31,0,.66.66,0,1,1,1.31,0Z"></path><path d="M366.6,267.58a.66.66,0,0,1-.66.65.65.65,0,0,1-.65-.65.66.66,0,0,1,.65-.66A.67.67,0,0,1,366.6,267.58Z"></path><path d="M369,267.58a.66.66,0,0,1-1.32,0,.66.66,0,1,1,1.32,0Z"></path><path d="M371.35,267.58a.66.66,0,0,1-1.31,0,.66.66,0,1,1,1.31,0Z"></path><path d="M373.73,267.58a.66.66,0,0,1-.66.65.65.65,0,0,1-.65-.65.66.66,0,0,1,.65-.66A.67.67,0,0,1,373.73,267.58Z"></path><path d="M376.11,267.58a.66.66,0,0,1-1.32,0,.66.66,0,1,1,1.32,0Z"></path><path d="M378.48,267.58a.66.66,0,0,1-1.31,0,.66.66,0,1,1,1.31,0Z"></path><path d="M380.86,267.58a.66.66,0,1,1-.66-.66A.66.66,0,0,1,380.86,267.58Z"></path><path d="M383.24,267.58a.66.66,0,0,1-1.32,0,.66.66,0,1,1,1.32,0Z"></path><path d="M385.61,267.58a.66.66,0,0,1-1.31,0,.66.66,0,1,1,1.31,0Z"></path><path d="M388,267.58a.66.66,0,1,1-.66-.66A.66.66,0,0,1,388,267.58Z"></path><path d="M364.22,269.63a.66.66,0,1,1-.65-.66A.66.66,0,0,1,364.22,269.63Z"></path><path d="M366.6,269.63a.67.67,0,0,1-.66.66.66.66,0,0,1,0-1.32A.67.67,0,0,1,366.6,269.63Z"></path><path d="M369,269.63a.66.66,0,1,1-.66-.66A.67.67,0,0,1,369,269.63Z"></path><path d="M371.35,269.63a.66.66,0,1,1-.65-.66A.66.66,0,0,1,371.35,269.63Z"></path><path d="M373.73,269.63a.67.67,0,0,1-.66.66.66.66,0,0,1,0-1.32A.67.67,0,0,1,373.73,269.63Z"></path><path d="M376.11,269.63a.66.66,0,1,1-.66-.66A.67.67,0,0,1,376.11,269.63Z"></path><path d="M378.48,269.63a.66.66,0,1,1-.65-.66A.66.66,0,0,1,378.48,269.63Z"></path><path d="M380.86,269.63a.66.66,0,1,1-.66-.66A.66.66,0,0,1,380.86,269.63Z"></path><path d="M383.24,269.63a.66.66,0,1,1-.66-.66A.67.67,0,0,1,383.24,269.63Z"></path><path d="M385.61,269.63A.66.66,0,1,1,385,269,.66.66,0,0,1,385.61,269.63Z"></path><path d="M388,269.63a.66.66,0,1,1-.66-.66A.66.66,0,0,1,388,269.63Z"></path><path d="M364.22,271.68a.66.66,0,1,1-.65-.66A.66.66,0,0,1,364.22,271.68Z"></path><circle cx="365.94" cy="271.68" r="0.66"></circle><path d="M369,271.68a.66.66,0,1,1-.66-.66A.67.67,0,0,1,369,271.68Z"></path><circle cx="370.7" cy="271.68" r="0.66"></circle><path d="M373.73,271.68a.67.67,0,0,1-.66.66.66.66,0,0,1,0-1.32A.67.67,0,0,1,373.73,271.68Z"></path><circle cx="375.45" cy="271.68" r="0.66"></circle><path d="M378.48,271.68a.66.66,0,1,1-.65-.66A.66.66,0,0,1,378.48,271.68Z"></path><circle cx="380.2" cy="271.68" r="0.66"></circle><path d="M383.24,271.68a.66.66,0,1,1-.66-.66A.67.67,0,0,1,383.24,271.68Z"></path><path d="M385.61,271.68A.66.66,0,1,1,385,271,.66.66,0,0,1,385.61,271.68Z"></path><path d="M388,271.68a.66.66,0,1,1-.66-.66A.66.66,0,0,1,388,271.68Z"></path><path d="M364.22,273.73a.66.66,0,1,1-.65-.66A.66.66,0,0,1,364.22,273.73Z"></path><circle cx="365.94" cy="273.73" r="0.66"></circle><path d="M369,273.73a.66.66,0,1,1-.66-.66A.67.67,0,0,1,369,273.73Z"></path><circle cx="370.7" cy="273.73" r="0.66"></circle><path d="M373.73,273.73a.67.67,0,0,1-.66.66.66.66,0,0,1,0-1.32A.67.67,0,0,1,373.73,273.73Z"></path><circle cx="375.45" cy="273.73" r="0.66"></circle><path d="M378.48,273.73a.66.66,0,1,1-.65-.66A.66.66,0,0,1,378.48,273.73Z"></path><circle cx="380.2" cy="273.73" r="0.66"></circle><path d="M383.24,273.73a.66.66,0,1,1-.66-.66A.67.67,0,0,1,383.24,273.73Z"></path><path d="M385.61,273.73a.66.66,0,1,1-.65-.66A.66.66,0,0,1,385.61,273.73Z"></path><path d="M388,273.73a.66.66,0,1,1-.66-.66A.66.66,0,0,1,388,273.73Z"></path></g><path d="M375.45,248.84a5.79,5.79,0,1,1,5.78-5.78A5.79,5.79,0,0,1,375.45,248.84Zm0-10.82a5,5,0,1,0,5,5A5,5,0,0,0,375.45,238Z" style="opacity:0.1"></path><rect x="362.65" y="229.16" width="25.61" height="1.55" style="opacity:0.1"></rect><rect x="362.65" y="281.22" width="25.61" height="1.55" style="opacity:0.1"></rect></g><g id="freepik--Interface--inject-44"><path d="M433.93,91.33v1.82c-20.5,0-46.19.29-51.57,1.43-35.81,7.63-35.19,24-48,24-9.87,0-28.94-24.56-46-24.56s-21.74,8.49-33.38,8.49-14.59-8.49-41.26-8.49S180.05,110,164.57,110s-31.6-16.8-50.43-16.8H66.07V91.33h48.07c18.83,0,35-16.79,50.43-16.79s22.53,15.9,49.21,15.9S243.37,82,255,82s16.36,8.49,33.38,8.49,36.1-24.55,46-24.55c12.78,0,12.16,16.39,48,24C387.74,91.05,413.43,91.33,433.93,91.33Z" style="fill:#FFC727;opacity:0.4"></path><path d="M433.93,91.34v1.81c-26.67,0-33,29.76-55.13,29.76-15.95,0-32.13-25-52.76-25-19.68,0-20.91,10.84-33,10.84-12.44,0-19-15.43-38-15.43-22.57,0-28.09,34.91-47.59,34.91S179.36,95.7,161,95.7,141.38,101,125.64,101s-30-7.81-46.13-7.81H66.07V91.34H79.51c16.14,0,30.42-7.8,46.13-7.8S142.71,88.8,161,88.8,188,56.3,207.45,56.3s25,34.91,47.59,34.91c19,0,25.56-15.43,38-15.43,12.09,0,13.32,10.84,33,10.84,20.63,0,36.81-25,52.76-25C401,61.6,407.26,91.34,433.93,91.34Z" style="fill:#FFC727;opacity:0.6000000000000001"></path><path d="M66.07,92.74v-1h0l3-.14,1.52-.07c.51,0,1-.13,1.51-.19l3-.41,3-.67a52.07,52.07,0,0,0,11.3-4.38c3.59-1.89,7-4.07,10.53-6.09a51.59,51.59,0,0,1,11.08-5c1-.24,2-.57,3-.74l3-.49c1-.1,2-.12,3-.19a19.43,19.43,0,0,1,3,0,41.84,41.84,0,0,1,11.8,2.92c7.59,2.92,14.74,6.82,22.41,9.42a50,50,0,0,0,23.82,2.7,38.59,38.59,0,0,0,11.57-3.28c1.84-.83,3.65-1.76,5.55-2.52a21.82,21.82,0,0,1,5.94-1.52,24.57,24.57,0,0,1,12.05,1.72c3.81,1.49,7.37,3.45,11.11,5A44.33,44.33,0,0,0,239,91c1,.09,2,.23,3,.28l3,.1a39.82,39.82,0,0,0,6-.55,34.48,34.48,0,0,0,11.27-4.06,109.8,109.8,0,0,0,10-6.79,46.43,46.43,0,0,1,10.61-6.06c1-.31,2-.63,2.94-.92l3-.58c1-.1,2.05-.14,3.07-.21a9.89,9.89,0,0,1,1.54,0l1.54.09a28.91,28.91,0,0,1,11.71,3.48,92.16,92.16,0,0,1,10.12,6.8,36.52,36.52,0,0,0,10.58,5.61,31.27,31.27,0,0,0,11.89.92,48.38,48.38,0,0,0,11.76-2.51c3.81-1.3,7.51-3,11.43-4.19a39.09,39.09,0,0,1,12.11-1.83,47.11,47.11,0,0,1,12.1,1.87c7.87,2.16,15.3,5.53,23.13,7.42,1,.24,2,.48,3,.64a30,30,0,0,0,3,.45,25.11,25.11,0,0,0,3,.25c1,0,2,.09,3,.07h12.66v2H421.77c-1,0-2,0-3,.07a27.37,27.37,0,0,0-3,.25c-1,.09-2,.28-3,.46s-2,.4-3,.63c-7.83,1.89-15.26,5.26-23.13,7.42a46.68,46.68,0,0,1-12.11,1.86,38.78,38.78,0,0,1-12.1-1.83c-3.92-1.19-7.62-2.88-11.43-4.18A49,49,0,0,0,339.3,95.4a31.43,31.43,0,0,0-11.88.92,36.63,36.63,0,0,0-10.58,5.61,92.24,92.24,0,0,1-10.12,6.81A29.22,29.22,0,0,1,295,112.22l-1.54.08a8.79,8.79,0,0,1-1.54,0c-1-.07-2.05-.11-3.07-.21l-3-.57c-1-.29-2-.62-2.94-.93a46.06,46.06,0,0,1-10.61-6.06,107.7,107.7,0,0,0-10-6.78A34.5,34.5,0,0,0,251,93.69a41.17,41.17,0,0,0-6-.55l-3,.1c-1,.05-2,.19-3,.28a44.33,44.33,0,0,0-11.63,3.14c-3.74,1.52-7.3,3.48-11.11,5a24.53,24.53,0,0,1-12,1.72,21.44,21.44,0,0,1-6-1.52c-1.9-.76-3.71-1.69-5.55-2.51A37.94,37.94,0,0,0,181.11,96a49.8,49.8,0,0,0-23.82,2.69c-7.66,2.6-14.82,6.49-22.41,9.41a41.17,41.17,0,0,1-11.8,2.92,19.43,19.43,0,0,1-3,0c-1-.06-2-.08-3-.18l-3-.49c-1-.17-2-.5-3-.74a51.59,51.59,0,0,1-11.08-5c-3.52-2-6.94-4.2-10.53-6.09a52.07,52.07,0,0,0-11.3-4.38l-3-.67-3-.41c-.5-.06-1-.16-1.51-.19l-1.52-.07Zm0,0,3,.13,1.51.06c.51,0,1,.12,1.51.18l3,.39,3,.66a52.63,52.63,0,0,1,11.34,4.33c3.6,1.87,7,4.05,10.56,6a51.32,51.32,0,0,0,11.06,4.91c1,.24,2,.56,2.94.73l3,.46c1,.1,2,.11,3,.17a19,19,0,0,0,3,0,41.35,41.35,0,0,0,11.69-3c7.54-2.94,14.68-6.88,22.38-9.53A52.39,52.39,0,0,1,169,95.41a53.52,53.52,0,0,1,12.2.08,39,39,0,0,1,11.73,3.31c1.86.83,3.67,1.75,5.53,2.49a20.89,20.89,0,0,0,5.8,1.48A24.1,24.1,0,0,0,216,101.06c3.75-1.47,7.31-3.43,11.09-5a44.52,44.52,0,0,1,11.78-3.2c1-.1,2-.25,3-.3l3.06-.1a41.67,41.67,0,0,1,6.11.55,35,35,0,0,1,11.49,4.12A108.94,108.94,0,0,1,272.69,104a45.61,45.61,0,0,0,10.46,6c1,.3,1.9.62,2.86.9l2.95.55c1,.1,2,.13,3,.2a9.39,9.39,0,0,0,1.5,0l1.5-.09a28.39,28.39,0,0,0,11.41-3.41,91.71,91.71,0,0,0,10-6.77,37.38,37.38,0,0,1,10.8-5.74,32.2,32.2,0,0,1,12.19-1,49.39,49.39,0,0,1,12,2.53c3.86,1.31,7.57,3,11.41,4.16A38.13,38.13,0,0,0,374.6,103a46,46,0,0,0,11.86-1.85c7.78-2.15,15.21-5.53,23.16-7.47,1-.24,2-.49,3-.65s2-.38,3-.47a26,26,0,0,1,3.06-.26c1,0,2.05-.09,3.06-.08h12.16l-.5.5v-1l.49.5H421.77c-1,0-2,0-3.06-.08a26,26,0,0,1-3.06-.26c-1-.09-2-.28-3-.47s-2-.41-3-.65c-7.95-1.94-15.38-5.32-23.16-7.47a46,46,0,0,0-11.86-1.85,38.13,38.13,0,0,0-11.85,1.77c-3.84,1.16-7.54,2.85-11.41,4.16a49.41,49.41,0,0,1-12,2.53,32.24,32.24,0,0,1-12.2-1,37.12,37.12,0,0,1-10.79-5.75,92.8,92.8,0,0,0-10-6.77A28.55,28.55,0,0,0,295,73l-1.5-.08a9.39,9.39,0,0,0-1.5,0c-1,.07-2,.11-3,.2l-2.95.56c-1,.28-1.91.59-2.86.89a45.28,45.28,0,0,0-10.46,6,110.86,110.86,0,0,1-10.11,6.8,35.26,35.26,0,0,1-11.49,4.13A40.33,40.33,0,0,1,245,92l-3.06-.1c-1-.05-2-.2-3-.29a44.8,44.8,0,0,1-11.78-3.2c-3.78-1.54-7.34-3.51-11.09-5a23.87,23.87,0,0,0-11.77-1.71,21.13,21.13,0,0,0-5.8,1.47c-1.87.75-3.67,1.67-5.53,2.5A38.92,38.92,0,0,1,181.17,89a54,54,0,0,1-12.19.09,53.48,53.48,0,0,1-11.85-2.85c-7.7-2.66-14.84-6.6-22.38-9.54a41,41,0,0,0-11.69-3,20.33,20.33,0,0,0-3-.06c-1,.06-2,.08-3,.18l-3,.46c-1,.17-2,.49-2.94.73A51.1,51.1,0,0,0,100,80c-3.53,2-7,4.17-10.56,6a52.44,52.44,0,0,1-11.34,4.33l-3,.66-3,.4c-.5.06-1,.15-1.51.18l-1.52.06-3,.12h0Z" style="fill:#FFC727"></path><circle cx="250" cy="90.98" r="23.84" transform="translate(17.55 220.38) rotate(-49.1)" style="fill:#455a64"></circle><path d="M250,117.1A26.12,26.12,0,1,1,276.12,91,26.15,26.15,0,0,1,250,117.1Zm0-51.74A25.62,25.62,0,1,0,275.62,91,25.65,25.65,0,0,0,250,65.36Z" style="fill:#455a64"></path><path d="M249.35,77.23h1.31a4,4,0,0,1,4,4V96a0,0,0,0,1,0,0h-9.23a0,0,0,0,1,0,0V81.19A4,4,0,0,1,249.35,77.23Z" style="fill:#fff"></path><path d="M250,104.74a.57.57,0,0,1-.56-.56V97.62a.56.56,0,0,1,.56-.56.57.57,0,0,1,.56.56v6.56A.57.57,0,0,1,250,104.74Z" style="fill:#fff"></path><path d="M257,97.62a.56.56,0,0,1-.56.56H243.54a.56.56,0,1,1,0-1.12h12.91A.56.56,0,0,1,257,97.62Z" style="fill:#fff"></path><path d="M243.54,89.51a.56.56,0,0,1,.56.56v7.55a.56.56,0,0,1-1.12,0V90.07A.56.56,0,0,1,243.54,89.51Z" style="fill:#fff"></path><path d="M256.45,89.51a.56.56,0,0,1,.56.56v7.55a.56.56,0,0,1-1.12,0V90.07A.56.56,0,0,1,256.45,89.51Z" style="fill:#fff"></path><path d="M253.59,104.74h-7.18a.57.57,0,0,1-.56-.56.56.56,0,0,1,.56-.56h7.18a.56.56,0,0,1,.56.56A.57.57,0,0,1,253.59,104.74Z" style="fill:#fff"></path></g><g id="freepik--Lines--inject-44"><path d="M391,235.08a8.65,8.65,0,0,1,2.83,3.47,10.26,10.26,0,0,1-.05,9,10.45,10.45,0,0,1-1.19,1.92A13.27,13.27,0,0,1,391,251c.2-.74.51-1.38.73-2.06s.46-1.32.59-2a15.76,15.76,0,0,0,.52-4,15.32,15.32,0,0,0-.47-4A26,26,0,0,0,391,235.08Z" style="fill:#263238"></path><path d="M395.32,232.92a11.81,11.81,0,0,1,3.4,4.49,13.08,13.08,0,0,1,1.21,5.63,13.21,13.21,0,0,1-1.28,5.62,14.35,14.35,0,0,1-1.43,2.46,17.8,17.8,0,0,1-1.9,2.07c.31-.9.73-1.7,1-2.55l.44-1.26a8,8,0,0,0,.39-1.26,18.47,18.47,0,0,0,.74-5.08,18.1,18.1,0,0,0-.67-5.1A26.76,26.76,0,0,0,395.32,232.92Z" style="fill:#263238"></path><path d="M400.93,230.34A15.66,15.66,0,0,1,405,236c.21.55.45,1.1.63,1.67l.46,1.74c.1.59.18,1.19.26,1.79s.06,1.2.09,1.8a17.19,17.19,0,0,1-1.53,7,19.08,19.08,0,0,1-1.73,3.09,26.22,26.22,0,0,1-2.26,2.66c.43-1.1,1-2.09,1.41-3.14l.59-1.57c.09-.27.22-.52.3-.78l.22-.8.45-1.59.29-1.62a10.88,10.88,0,0,0,.19-1.61,11.12,11.12,0,0,0,.07-1.63,21.29,21.29,0,0,0-.91-6.46A30,30,0,0,0,400.93,230.34Z" style="fill:#263238"></path><path d="M359.92,251a8.79,8.79,0,0,1-2.84-3.48,10.28,10.28,0,0,1,.06-9,10.53,10.53,0,0,1,1.19-1.93,11.87,11.87,0,0,1,1.59-1.58c-.21.73-.51,1.38-.73,2s-.46,1.32-.59,2a15.74,15.74,0,0,0-.52,3.94,15.32,15.32,0,0,0,.47,4A24.71,24.71,0,0,0,359.92,251Z" style="fill:#263238"></path><path d="M355.57,253.19a11.84,11.84,0,0,1-3.4-4.49,13.22,13.22,0,0,1-1.2-5.63,13.07,13.07,0,0,1,1.28-5.62,13.89,13.89,0,0,1,1.43-2.45,18.75,18.75,0,0,1,1.89-2.08c-.3.9-.72,1.71-1,2.55l-.44,1.26a8.32,8.32,0,0,0-.39,1.26,18.49,18.49,0,0,0-.74,5.09,18.08,18.08,0,0,0,.67,5.09A27.41,27.41,0,0,0,355.57,253.19Z" style="fill:#263238"></path><path d="M350,255.77a15.66,15.66,0,0,1-4.08-5.7c-.22-.55-.45-1.1-.63-1.67l-.47-1.74c-.1-.59-.17-1.19-.25-1.78s-.06-1.21-.09-1.81a17,17,0,0,1,1.53-7A18.53,18.53,0,0,1,347.7,233a26.63,26.63,0,0,1,2.27-2.67c-.43,1.1-1,2.09-1.41,3.14l-.6,1.58c-.09.26-.21.51-.29.77l-.23.81-.44,1.58-.29,1.62a11,11,0,0,0-.19,1.62,9.76,9.76,0,0,0-.07,1.62,21.59,21.59,0,0,0,.9,6.46A30.56,30.56,0,0,0,350,255.77Z" style="fill:#263238"></path></g><g id="freepik--Character--inject-44"><path d="M117.44,379.68c0-39.79,25.94-72.16,57.82-72.16s57.82,32.37,57.82,72.16-25.94,72.17-57.82,72.17S117.44,419.48,117.44,379.68Zm5.78,0c0,36.61,23.35,66.38,52,66.38s52-29.77,52-66.38-23.34-66.38-52-66.38S123.22,343.08,123.22,379.68Z" style="fill:#263238"></path><path d="M119.54,379.68c0-35.27,23-64,51.16-64s51.15,28.7,51.15,64-22.95,64-51.15,64S119.54,415,119.54,379.68Zm4.14,0c0,33,21.09,59.84,47,59.84s47-26.84,47-59.84-21.09-59.84-47-59.84S123.68,346.69,123.68,379.68Z" style="fill:#c7c7c7"></path><path d="M164.37,379.68c0,5.78,3.72,10.46,8.29,10.46s8.3-4.68,8.3-10.46-3.71-10.46-8.3-10.46S164.37,373.91,164.37,379.68Z" style="fill:#c7c7c7"></path><ellipse cx="170.01" cy="379.68" rx="8.29" ry="10.46" style="fill:#dbdbdb"></ellipse><rect x="94.91" y="377.62" width="75.1" height="4.13" style="fill:#c7c7c7"></rect><ellipse cx="256.99" cy="440.23" rx="10.79" ry="13.61" style="fill:#c7c7c7"></ellipse><path d="M242.74,440.23c0,7.51,4.83,13.6,10.79,13.6s10.79-6.09,10.79-13.6-4.83-13.61-10.79-13.61S242.74,432.71,242.74,440.23Z" style="fill:#dbdbdb"></path><rect x="169.72" y="283.84" width="85.44" height="32.99" transform="translate(424.89 600.66) rotate(180)" style="fill:#a6a6a6"></rect><path d="M183.57,396.17h71.59V392H183.57a11.76,11.76,0,0,1-11.74-11.74V201.06A15.89,15.89,0,0,0,156,185.19h-9.64v4.13H156a11.76,11.76,0,0,1,11.75,11.74V380.3A15.89,15.89,0,0,0,183.57,396.17Z" style="fill:#c7c7c7"></path><path d="M253.1,426.62h4.13V282.14a14.32,14.32,0,0,0-14.3-14.3H169.76V272h73.17a10.17,10.17,0,0,1,10.17,10.16Z" style="fill:#c7c7c7"></path><rect x="133.5" y="183" width="25.61" height="8.22" transform="translate(292.61 374.21) rotate(180)" style="fill:#263238"></rect><rect x="94.91" y="210.42" width="73" height="100" transform="translate(262.82 520.83) rotate(180)" style="fill:#263238"></rect><path d="M295.34,434.79c-2.37.79-71.83.34-74.4-1.31-.3-.18-.39-6.46-.38-15.06v-.17c0-5.45-1.55-52-1.55-52l43.47-.24,2.58,45.85s9.38,3.94,17.54,7.85c0,0,0,0,0,0,5,2.4,9.4,4.59,10.4,5.39C295.63,427.21,297.7,434,295.34,434.79Z" style="fill:#d3766a"></path><path d="M295.34,434.79c-2.36.78-71.83.34-74.4-1.32-.31-.17-.4-6.46-.38-15.05v-.17c0-.38,0-.77,0-1.15s0-.56,0-.84l0-1.24c-.08-3.62-.25-9.5-.45-15.94l44.29-.16.73,12.93s9.37,3.94,17.53,7.85c0,0,0,0,0,0,5,2.4,9.4,4.59,10.4,5.39C295.63,427.21,297.71,434,295.34,434.79Z" style="fill:#ebebeb"></path><path d="M295.63,435.05c-2.44.79-72,.18-74.63-1.52-1-.64-1.95-11.38-.89-23.23l44.84.46s25.66,12.14,28.35,14.32S298.06,434.26,295.63,435.05Z" style="fill:#FFC727"></path><path d="M294.65,432.26c-11.65-.39-58.7-.86-70.25-.36-.1,0-.1.07,0,.07,11.54.64,58.59.73,70.25.48C294.9,432.45,294.9,432.27,294.65,432.26Z" style="fill:#263238"></path><path d="M268.59,412c-4.66-.11-10.09,1.49-13,5.28-.11.15.1.31.24.24a64.63,64.63,0,0,1,12.86-5A.29.29,0,0,0,268.59,412Z" style="fill:#263238"></path><path d="M272.18,413.39c-4.66-.1-10.09,1.5-13,5.29-.11.14.1.3.24.23A64.59,64.59,0,0,1,272.26,414,.3.3,0,0,0,272.18,413.39Z" style="fill:#263238"></path><path d="M275.77,414.83c-4.66-.11-10.09,1.49-13,5.28-.11.15.1.31.24.24a64,64,0,0,1,12.86-4.94A.3.3,0,0,0,275.77,414.83Z" style="fill:#263238"></path><path d="M279.36,416.27c-4.66-.11-10.09,1.49-13,5.28-.11.15.1.31.24.24a64,64,0,0,1,12.86-5A.29.29,0,0,0,279.36,416.27Z" style="fill:#263238"></path><path d="M221,433.52c1.43.93,22.56,1.52,42,1.75l-21-24.75-21.92-.21C219.05,422.16,220,432.88,221,433.52Z" style="opacity:0.1"></path><path d="M125.15,233.81l34.62.66,6.89,17.21s65.23,8.73,80.75,29.56c17.82,23.92,22.41,128.34,22.41,128.34l-51.35-1s-6.35-92.41-11.57-99.52S128.46,295,114.34,284s-3.43-50.48-3.43-50.48Z" style="fill:#37474f"></path><path d="M219.1,399.19c1.54-.19,3.1-.19,4.66-.23s3.07,0,4.61-.08c3.15-.05,6.31,0,9.46,0,6.3,0,12.61.08,18.91.23,1.77,0,3.54.06,5.31.13s3.55.1,5.3.34c.07,0,.1.13,0,.14a83.93,83.93,0,0,1-9.25.32q-4.73.06-9.46.06-9.45,0-18.91-.14c-1.77,0-3.54-.1-5.3-.15a49.45,49.45,0,0,1-5.31-.31C219,399.48,218.91,399.22,219.1,399.19Z" style="fill:#263238"></path><path d="M117.31,277.27c10.78,4.67,22.27,7.51,33.79,9.67s23.29,3.66,34.94,5.42c5.85.89,11.81,1.66,17.48,3.41a19.62,19.62,0,0,1,7,3.34c2,1.74,2.92,4.23,3.44,6.78,1.23,6.06,2.1,12.22,3,18.33s1.8,12.46,2.61,18.7c1.63,12.56,3,25.16,4.37,37.75.16,1.52.31,3,.46,4.56,0,.16-.23.22-.25.06-1.61-12.4-3-24.82-4.66-37.21s-3.4-24.79-5.48-37.12c-.46-2.74-.72-5.7-1.83-8.27s-3.31-4.07-5.82-5.11c-5.47-2.26-11.45-3.12-17.26-4-11.48-1.83-23-3.28-34.47-5.39A184.06,184.06,0,0,1,121.2,279c-1.32-.51-2.63-1-3.93-1.61C117.18,277.38,117.23,277.24,117.31,277.27Z" style="fill:#263238"></path><path d="M258,435.41c-2.37.79-71.83.34-74.4-1.31-.3-.18-.4-6.46-.38-15.06v-.17c0-5.45-1.56-52-1.56-52l43.48-.24,2.58,45.84s9.38,3.94,17.53,7.85l0,0c5,2.4,9.41,4.59,10.41,5.39C258.24,427.84,260.31,434.64,258,435.41Z" style="fill:#d3766a"></path><path d="M258,435.41c-2.37.79-71.83.35-74.4-1.31-.31-.18-.4-6.46-.39-15.06v-.17c0-.37,0-.76,0-1.15a7.85,7.85,0,0,0,0-.84c0-.4,0-.82,0-1.24-.09-3.62-.25-9.49-.45-15.94l44.29-.16.73,12.93s9.36,3.95,17.53,7.85l0,0c5,2.4,9.4,4.59,10.4,5.39C258.24,427.84,260.32,434.64,258,435.41Z" style="fill:#ebebeb"></path><path d="M258.24,435.67c-2.44.8-72,.18-74.63-1.52-1-.64-2-11.37-.89-23.22l44.84.45s25.65,12.15,28.35,14.32S260.67,434.88,258.24,435.67Z" style="fill:#FFC727"></path><path d="M257.26,432.88c-11.65-.39-58.7-.86-70.25-.36-.1,0-.1.07,0,.08,11.54.63,58.59.73,70.25.47C257.51,433.07,257.51,432.89,257.26,432.88Z" style="fill:#263238"></path><path d="M231.2,412.58c-4.66-.11-10.09,1.49-13,5.28-.11.15.1.31.24.24a64,64,0,0,1,12.86-4.94A.3.3,0,0,0,231.2,412.58Z" style="fill:#263238"></path><path d="M234.79,414c-4.66-.11-10.09,1.49-13,5.28-.11.15.1.31.24.24a64,64,0,0,1,12.86-5A.29.29,0,0,0,234.79,414Z" style="fill:#263238"></path><path d="M238.38,415.45c-4.66-.1-10.09,1.5-13,5.29-.11.14.1.3.24.23A64.59,64.59,0,0,1,238.46,416,.3.3,0,0,0,238.38,415.45Z" style="fill:#263238"></path><path d="M242,416.89c-4.66-.11-10.09,1.49-13,5.28-.11.15.1.31.24.24a64.63,64.63,0,0,1,12.86-5A.29.29,0,0,0,242,416.89Z" style="fill:#263238"></path><path d="M230.66,410.16,180.51,410s5.75-98.43-3.63-105.29c-8.15-6-49.67-7.43-70.28-22.33-16.75-12.1-1.93-50.37-1.93-50.37l45,.86s6.07,14.06,7.09,18.32c0,0,48.87,13.35,62.47,30.59C234.51,301.11,230.66,410.16,230.66,410.16Z" style="fill:#37474f"></path><path d="M181.69,401.43a43.58,43.58,0,0,1,4.57-.24c1.52,0,3-.05,4.54-.08,3.1-.06,6.2,0,9.3,0,6.19,0,12.39.07,18.59.21,1.73,0,3.47.06,5.21.13s3.49.1,5.21.33c.07,0,.11.13,0,.14a83.61,83.61,0,0,1-9.09.34c-3.1,0-6.2.06-9.3.06q-9.3,0-18.59-.12c-1.74,0-3.48-.09-5.22-.14a45.38,45.38,0,0,1-5.21-.31C181.57,401.71,181.5,401.45,181.69,401.43Z" style="fill:#263238"></path><path d="M156.87,250.38A354.14,354.14,0,0,1,194.32,265c5.5,2.47,11.12,4.91,16.15,8.27a33.79,33.79,0,0,1,11.2,12.11,52.41,52.41,0,0,1,5.05,15.88c1.05,6,1.58,12.14,2.15,18.22,1.28,13.7,2.16,27.43,2.47,41.18s.1,27.58-.56,41.37c-.09,1.73-.21,3.47-.3,5.2a.1.1,0,0,1-.19,0c.51-13.57.42-27.21.07-40.79s-1-27.18-2.18-40.72c-.54-6.49-1.12-13-2-19.45a68.2,68.2,0,0,0-3.78-16.19,32.15,32.15,0,0,0-9.58-13.39c-4.51-3.65-9.77-6.21-15-8.61-12-5.5-24.28-10.42-36.73-14.83l-4.63-1.64A.65.65,0,0,1,156.87,250.38Z" style="fill:#263238"></path><path d="M107.24,240.12c.45-1.76,1-3.5,1.54-5.22a.15.15,0,0,1,.28.09,97.68,97.68,0,0,0-3.79,21.65,44.13,44.13,0,0,0,.39,10.59,18.86,18.86,0,0,0,4.46,9c4.44,4.64,10.63,7.65,16.63,9.54,6.84,2.17,13.91,3.51,20.89,5.14,7.26,1.68,30.34,7.73,31.88,8.39a5.34,5.34,0,0,1,2.86,2.59,23.33,23.33,0,0,1,1.36,4.57c3.42,14,3.74,27.37,3.8,41.74.07,15.19-.19,30.36-.87,45.53-.09,1.84-.17,3.67-.23,5.51,0,.12-.19.11-.19,0,.23-7.62.22-15.25.24-22.86s.07-15.24.07-22.86c0-14.57.05-28.12-2.74-42.47-.35-1.82-1.86-8.75-3-9.91S156.35,294,149,292.27c-7-1.62-14-2.95-20.9-4.95-6-1.76-12.61-4.7-17.46-8.82a19.38,19.38,0,0,1-4.86-7.34,24.43,24.43,0,0,1-1.42-9.78A94.11,94.11,0,0,1,107.24,240.12Z" style="fill:#263238"></path><path d="M110.34,249.91c3.36-1.11,7.4-1.57,10.11-4.07a9.2,9.2,0,0,0,2.46-4.34,19.25,19.25,0,0,0,.55-2.9,27.54,27.54,0,0,0,.37-3.13c0-.12.19-.11.19,0,0,1.15.23,2.28.22,3.44a14.73,14.73,0,0,1-.34,3,9.68,9.68,0,0,1-2.45,4.81,10,10,0,0,1-4.87,2.43,33.61,33.61,0,0,1-6.21,1.06C110.16,250.26,110.17,250,110.34,249.91Z" style="fill:#263238"></path><path d="M157.28,186.14c10.9,19.46,34,44.09,42.79,43.57,4.19-.24,11.72.22,16.86-5,11.21-11.33,17.88-28,22-36.14,1.87-3.7-21.07-19.12-23.76-15.58-6.3,8.27-13.19,24.11-14.41,24.11-4.52,0-22.93-13.71-36.16-22.83C149.79,164.07,152.94,178.39,157.28,186.14Z" style="fill:#f7a9a0"></path><path d="M237.32,190.33c2.37-2.3,12.32-13.79,14.37-17.61s7.16-15.23,4.39-17.1-4.52,1.36-4.52,1.36,1.39-5.16-1.56-6.79-5.53,3.47-5.53,3.47,1-5.4-2-6.81-4.8,4.15-4.8,4.15,1.19-4.9-1.82-5c-3.63-.12-4.79,9.15-7.37,13.2-.59.92-13.21,17.77-13.21,17.77Z" style="fill:#f7a9a0"></path><path d="M237.81,150.53c-.87,6.81-2.43,9.65-6.74,14.86-.09.11.05.25.14.16,4.69-4.73,7.16-8,6.94-15C238.13,150.21,237.85,150.2,237.81,150.53Z" style="fill:#263238"></path><path d="M244.53,153.12c-1.53,7-3.2,10.09-7.31,15.89-.06.08.08.19.14.11,4.51-5.35,6.9-8.67,7.51-15.87C244.9,152.93,244.6,152.8,244.53,153.12Z" style="fill:#263238"></path><path d="M251.34,157.26c-2,6.68-3.65,10.14-8.36,15.26a.12.12,0,1,0,.17.18c5.32-4.75,7.45-9,8.38-15.35C251.6,156.92,251.46,156.85,251.34,157.26Z" style="fill:#263238"></path><path d="M212.38,180s.33-8.61,1.31-12.36,9.78-16.37,12.61-14.63c3.66,2.26,0,10.55-2.29,14.37,0,0,8.47,5.21,7.14,11.72S212.38,180,212.38,180Z" style="fill:#f7a9a0"></path><path d="M227.11,154c1.85,4.47-1.51,9.29-3.48,13.17a.4.4,0,0,0,.29.59c3.4,2.42,7.5,6.82,7.46,11.23a.1.1,0,0,0,.2,0c.69-4.72-3-9.38-6.89-11.79,2.08-3.94,5.24-8.93,2.46-13.24C227.13,153.94,227.1,154,227.11,154Z" style="fill:#263238"></path><path d="M210,179.59,236,199.48s-13.68,25.17-23.82,28.84-13.33,2.59-16.17,2S171.85,212.94,157.6,187c-13.46-24.54,2.22-17.17,13.87-8.65,6.64,4.86,27.85,17.48,28.67,17.21S210,179.59,210,179.59Z" style="fill:#FFC727"></path><path d="M176.41,181.65a12.73,12.73,0,0,0-3,1.62,13.33,13.33,0,0,0,3.73-.85l.26-.1ZM215.21,194a13.53,13.53,0,0,0-3.38,1.78,14.86,14.86,0,0,0,7.11-2.64A13.26,13.26,0,0,0,215.21,194Zm-20.08,34.48c-.51.2-1,.41-1.51.64.34.23.64.42.92.59l.93-.31a13.7,13.7,0,0,0,3.38-1.78A12.78,12.78,0,0,0,195.13,228.44Zm17.16-14.33a13.64,13.64,0,0,0-1.78-3.37,14.5,14.5,0,0,0,2.64,7.1A13.78,13.78,0,0,0,212.29,214.11ZM160.84,171.8l-1.1-.48a11.84,11.84,0,0,0,1.42,2.48A11,11,0,0,0,160.84,171.8Zm32.62,32.94a13.5,13.5,0,0,0-3.65-1.14,13.06,13.06,0,0,0,3.24,2,13.23,13.23,0,0,0,3.65,1.12A13.59,13.59,0,0,0,193.46,204.74Zm35.6,1.82a13.64,13.64,0,0,0-1.13,3.64,13,13,0,0,0,2-3.22,13.49,13.49,0,0,0,1.13-3.67A14,14,0,0,0,229.06,206.56Z" style="fill:#fff"></path><path d="M208.06,185.48c4.05,3,8,6.11,11.94,9.25,1.94,1.54,9.36,8,11.5,9.76.09.07-.11.31-.2.24-2.1-1.53-9.94-7.79-11.85-9.36-3.87-3.21-7.73-6.43-11.48-9.78C207.9,185.53,208,185.43,208.06,185.48Z" style="fill:#263238"></path><path d="M191.3,227.39c-7.72-6-22.78-20.53-33.71-40.43-7.16-13.06-6.06-17.08-1.71-16.71C159.66,176.22,180.17,209.36,191.3,227.39Z" style="opacity:0.1"></path><path d="M166.66,251.68s-66.8-2.74-67.07-3.2c-.72-1.25,17.5-59.88,45.19-77.81,4.88-3.17,12.22-.85,15.39,1.7,1.58,1.27,6.11,10.86,6.65,18.66S166.66,251.68,166.66,251.68Z" style="fill:#FFC727"></path><path d="M157.81,195.19a12.82,12.82,0,0,0-1.13,3.65,15,15,0,0,0,3.16-6.89A13.32,13.32,0,0,0,157.81,195.19ZM120.12,215a13.57,13.57,0,0,0-1.14,3.66,13.3,13.3,0,0,0,2-3.25,13.49,13.49,0,0,0,1.13-3.65A13.32,13.32,0,0,0,120.12,215Zm26.76,30.68a13.25,13.25,0,0,0-1.13,3.65,13,13,0,0,0,2-3.24,13.6,13.6,0,0,0,1.13-3.65A13.13,13.13,0,0,0,146.88,245.71Zm-10.22-68.43h0a9.82,9.82,0,0,0-.34,1.56,12.8,12.8,0,0,0,2-3.09C137.73,176.24,137.19,176.75,136.66,177.28ZM118.8,248a13.62,13.62,0,0,0-3.65-1.14,13.17,13.17,0,0,0,3.24,2,17.51,17.51,0,0,0,1.91.73h0l1.33.07A14.31,14.31,0,0,0,118.8,248ZM147.34,215a13.49,13.49,0,0,0-3.65-1.13,14.75,14.75,0,0,0,6.9,3.16A14.23,14.23,0,0,0,147.34,215Zm13.8-41.35h0a7,7,0,0,0-.81-1.08,9.08,9.08,0,0,0,.83,1.29A1.36,1.36,0,0,0,161.14,173.6ZM131.67,231a13.59,13.59,0,0,0-1.78-3.39,13.33,13.33,0,0,0,.85,3.73,13.7,13.7,0,0,0,1.78,3.38A13.18,13.18,0,0,0,131.67,231Zm2.66-34.86a13.64,13.64,0,0,0-3.37,1.78,14.16,14.16,0,0,0,3.73-.85,13.68,13.68,0,0,0,3.37-1.79A13.78,13.78,0,0,0,134.33,196.11ZM161,229.76a13.07,13.07,0,0,0-3.39,1.77,14.71,14.71,0,0,0,7.11-2.63A12.78,12.78,0,0,0,161,229.76ZM105.88,232c-.46.18-.91.37-1.35.58-.13.32-.25.63-.36,1a16.06,16.06,0,0,0,2-.6,13.14,13.14,0,0,0,3.39-1.79A13.61,13.61,0,0,0,105.88,232Z" style="fill:#fff"></path><path d="M136.63,178.46c-10.53,11.9-35.7,56.64-27.13,64.45s54.68-4.24,67.55-10.79c3.82-2-11.55-25.73-16.12-26.17-3.81-.37-23,9-23.55,7.92-.67-1.25,2.16-10.64,6.38-27.61C148.62,166.69,141.28,173.2,136.63,178.46Z" style="fill:#f7a9a0"></path><path d="M180,197.64c9.39-1.57,12-.53,19.26-6,4.74-3.63,9.09-2.16,6.48,3.47-4.27,9.21-16,13.77-20.46,14.19Z" style="fill:#f7a9a0"></path><path d="M155.2,207.37s10.43-6.16,20.26-8.81c6.81-1.84,22-4.18,37.09,10.52,3.57,3.49,6.18,11-1.71,7.41-5.61-2.55-8.4-5.85-11.93-6.74,0,0,2.18,9.94-1.45,13.37a91.13,91.13,0,0,1-10.13,8.31,19.2,19.2,0,0,1-1.73-1.76s-3.7,2.89-10.81,2.4Z" style="fill:#f7a9a0"></path><path d="M182.24,197.84c3.32,1.62,10.29,5.17,15,10.06C202.45,213.33,211,225.2,207,229c-3,2.8-6.65-1.45-6.65-1.45s2.51,5.66-.72,7.6c-3,1.76-5.59-1.69-5.59-1.69s.93,3.69-2.23,4.84c-3.81,1.39-5.15-6.58-10.22-8.5C180.44,229.37,182.24,197.84,182.24,197.84Z" style="fill:#f7a9a0"></path><path d="M190.57,212.46a30,30,0,0,1,9.82,14.95c0,.15-.06.26-.12.13a73.83,73.83,0,0,0-9.75-15S190.54,212.44,190.57,212.46Z" style="fill:#263238"></path><path d="M185.24,217.88c2.3,2,7.51,8.75,8.91,15.52,0,.15-.07.25-.13.12a79.79,79.79,0,0,0-8.83-15.59S185.21,217.86,185.24,217.88Z" style="fill:#263238"></path><path d="M198.91,209.69c3.09.82,5.13,2.27,7.77,4a39.85,39.85,0,0,0,4,2.4c1.27.65,3.14,1.62,4.45.53a2.54,2.54,0,0,0,.49-2.53,12.3,12.3,0,0,0-1.78-3.45s0-.09.07,0a17.49,17.49,0,0,1,1.93,3.06,4.12,4.12,0,0,1,.34,2.39c-.4,1.71-2.39,2-3.82,1.55a13.12,13.12,0,0,1-2.45-1.1c-.75-.41-1.49-.85-2.21-1.31-1.49-1-2.92-2-4.39-3a40.31,40.31,0,0,0-4.47-2.44C198.81,209.76,198.85,209.67,198.91,209.69Z" style="fill:#263238"></path><path d="M205.63,220.32a97.34,97.34,0,0,0-6.78-10.56,0,0,0,0,1,.06-.06c2.45,2.21,6.46,8.13,7.41,10a17,17,0,0,1,2.08,6.42c.08,3.21-2,3.87-2.81,4.05a4.18,4.18,0,0,1-2.74-.37,8.46,8.46,0,0,1-2.54-2.26c0-.05,0-.11.06-.07,1.15,1.24,3,2.44,4.76,2.16a2.92,2.92,0,0,0,2-1.12,3.78,3.78,0,0,0,.44-2.6A17.68,17.68,0,0,0,205.63,220.32Z" style="fill:#263238"></path><path d="M155.2,207.37l15.68,30.85s-57.74,14.59-63,4.61,16.22-50.15,26.08-61.94c11.42-13.67,13.05-9.17,10.77,2.74-2.39,12.46-7.16,30.53-7.16,30.53Z" style="fill:#FFC727"></path><path d="M108.14,231.34h0c-.07.28-.14.56-.2.84a11.45,11.45,0,0,0,1.68-1.05A9,9,0,0,0,108.14,231.34ZM161,229.76a13.07,13.07,0,0,0-3.39,1.77,14.71,14.71,0,0,0,7.11-2.63A12.78,12.78,0,0,0,161,229.76Zm-26.66-33.65a13.64,13.64,0,0,0-3.37,1.78,14.16,14.16,0,0,0,3.73-.85,13.68,13.68,0,0,0,3.37-1.79A13.78,13.78,0,0,0,134.33,196.11ZM131.67,231a13.59,13.59,0,0,0-1.78-3.39,13.33,13.33,0,0,0,.85,3.73,13.7,13.7,0,0,0,1.78,3.38A13.18,13.18,0,0,0,131.67,231Zm15.67-16a13.49,13.49,0,0,0-3.65-1.13,14.75,14.75,0,0,0,6.9,3.16A14.23,14.23,0,0,0,147.34,215Zm-10.86-37h0c-.06.29-.12.57-.16.87a11.68,11.68,0,0,0,1.63-2.42C137.48,176.89,137,177.41,136.48,178Zm12,65.08.4-.07c0-.17.06-.34.08-.51C148.74,242.66,148.58,242.85,148.43,243.05Zm-28.31-28a13.57,13.57,0,0,0-1.14,3.66,13.3,13.3,0,0,0,2-3.25,13.49,13.49,0,0,0,1.13-3.65A13.32,13.32,0,0,0,120.12,215Z" style="fill:#fff"></path><path d="M120.12,222.94a67.59,67.59,0,0,1,8.34-5.2,66.33,66.33,0,0,1,8.91-3.85c1.74-.63,3.51-1.17,5.27-1.73.05,0,.08.07,0,.09a83.64,83.64,0,0,0-9,3.78c-2.92,1.4-5.81,2.84-8.68,4.35-1.62.85-3.2,1.77-4.79,2.68A.07.07,0,0,1,120.12,222.94Z" style="fill:#263238"></path><path d="M155,207.29c-.29.08-16,5.75-16.55,6,.06-.24,2.68-8.76,3.08-10,0-.12.07-.25.11-.37.27-.56.55-1.12.8-1.69.33-.73.64-1.46,1-2.2,0,0,0,0,0,0-.35.71-.71,1.43-1,2.15-.16.33-.31.67-.46,1,.25-.88.5-1.76.74-2.65.39-1.41.74-2.83,1.08-4.26a0,0,0,0,0-.07,0c-.78,2.49-1.64,5-2.42,7.43s-3.81,11.64-3.79,11.63,17.33-6.64,17.67-6.79C155.24,207.44,155.18,207.24,155,207.29Z" style="fill:#263238"></path><path d="M156.65,227.64c-1.73-3.45-3.43-6.91-5.28-10.29-1.06-1.92-2.1-3.84-3.17-5.75,0-.07-.17,0-.14.06,1.6,3.53,3.21,7.06,5,10.51s3.47,6.88,5.26,10.29c1,1.94,2.1,3.84,3.23,5.72,0,0,.09,0,.07,0C160.11,234.56,158.39,231.1,156.65,227.64Z" style="fill:#263238"></path><path d="M169.61,235.45c-.17-.24-.36-.18-.22.07.47.86.86,1.84,1.32,2.72l-2.43.54-2.81.67q-2.76.65-5.52,1.23-5.59,1.2-11.25,2.14a220.76,220.76,0,0,1-22.79,2.76c-2.13.13-4.27.23-6.41.25s-7-.35-8.47-1a6,6,0,0,1-3.58-3.93,11.24,11.24,0,0,1,.2-5.84c.51-2,1.15-4,1.78-6a168,168,0,0,1,9.13-22.65q3-6.19,6.41-12.18c0-.08-.08-.15-.14-.07q-2.43,3.76-4.58,7.68c.27-.87.56-1.74.9-2.59,0-.06-.07-.11-.09-.05a33,33,0,0,0-1.13,3.21A149.63,149.63,0,0,0,113,217.07c-1.63,3.93-3.1,7.93-4.42,12-.67,2.07-1.35,4.17-1.85,6.29a11.59,11.59,0,0,0-.09,5.76,6.41,6.41,0,0,0,3.88,4.32c2.49,1,9.41,1.14,14,.92,3.86-.19,7.71-.5,11.55-1q11.4-1.35,22.68-3.67c2.1-.42,4.19-.88,6.29-1.36,1.05-.24,2.11-.48,3.16-.74s3.57-.75,3.47-.91C171,237.74,170.26,236.37,169.61,235.45Z" style="fill:#263238"></path><path d="M158.31,182.67c-3.76.37-9.27-6-11.14-10.9-.13-.33,2.82-12.55,3.15-15,.07-.51,15.06,5.87,15.06,5.87a40.33,40.33,0,0,0-2.78,9.33C162.56,172.3,162,182.3,158.31,182.67Z" style="fill:#f7a9a0"></path><path d="M162.56,172.44q0,.3-.06.69A8.38,8.38,0,0,1,161,173c-8.44-1.33-9.9-12.11-10.15-16.22h0l.29.09.63.21.35.12.47.18.25.09c.17.06.35.12.53.2l1.79.7.17.06c.16.07.31.12.47.2,1.26.49,2.61,1,3.89,1.58l.4.16,1.92.8.47.19.27.12.27.11.69.3.37.15.26.11.25.11.8.33a39.59,39.59,0,0,0-2.79,9.33l0,.34v.16Z" style="fill:#263238"></path><path d="M149.28,140.55c-1.88,5.51.53,21.68,4.38,25.4,5.56,5.38,14.94,6.19,19.59-.57,4.5-6.54,1-27.57-3.33-31C163.56,129.4,152.06,132.41,149.28,140.55Z" style="fill:#f7a9a0"></path><path d="M164.93,150.81s-.08.06-.07.1c.19,1.09.23,2.36-.7,2.87,0,0,0,.07,0,.06C165.35,153.5,165.29,151.8,164.93,150.81Z" style="fill:#263238"></path><path d="M163.79,149.81c-1.77.12-1.4,3.65.24,3.54S165.28,149.71,163.79,149.81Z" style="fill:#263238"></path><path d="M171,150.34s.09,0,.1.09c.08,1.1.35,2.34,1.38,2.6,0,0,0,.06,0,.06C171.25,153.05,170.9,151.39,171,150.34Z" style="fill:#263238"></path><path d="M171.86,149.09c1.75-.32,2.25,3.2.64,3.5S170.39,149.36,171.86,149.09Z" style="fill:#263238"></path><path d="M162.23,148.34c.47-.18.87-.41,1.32-.63a2.39,2.39,0,0,0,1.22-.89.75.75,0,0,0-.21-.9,1.88,1.88,0,0,0-1.89,0,2.75,2.75,0,0,0-1.45,1.34A.81.81,0,0,0,162.23,148.34Z" style="fill:#263238"></path><path d="M173,147.17a13.9,13.9,0,0,1-1.44-.22,2.32,2.32,0,0,1-1.43-.5.75.75,0,0,1,0-.92,1.87,1.87,0,0,1,1.81-.54,2.75,2.75,0,0,1,1.77.87A.8.8,0,0,1,173,147.17Z" style="fill:#263238"></path><path d="M164.69,161.1c.29.23.59.55,1,.54a2.73,2.73,0,0,0,1.15-.4,0,0,0,0,1,0,.06,1.49,1.49,0,0,1-1.33.74,1.19,1.19,0,0,1-1-.88A.06.06,0,0,1,164.69,161.1Z" style="fill:#263238"></path><path d="M165.5,157.7a3.78,3.78,0,0,0,2.66,1.4,5.09,5.09,0,0,0,1.35-.08.92.92,0,0,0,.25-.06l.24-.06a.27.27,0,0,0,.19-.27h0a.43.43,0,0,0,0-.11h0v-.09c-.07-.85-.28-2.12-.28-2.12.32.12,2,.66,1.9.22a56.9,56.9,0,0,0-2.63-11.14.1.1,0,0,0-.2,0c.44,3.51,1.49,6.92,2,10.43a7.1,7.1,0,0,0-1.82-.35c-.12.05.46,2.46.46,2.84v0a5.24,5.24,0,0,1-4-.79C165.5,157.53,165.42,157.62,165.5,157.7Z" style="fill:#263238"></path><path d="M169,158.64a4.51,4.51,0,0,1-1.63,1.56,2,2,0,0,1-1.2.2c-.9-.14-1-.94-.92-1.64a4.72,4.72,0,0,1,.28-1.09A5.79,5.79,0,0,0,169,158.64Z" style="fill:#263238"></path><path d="M167.34,160.2a2,2,0,0,1-1.2.2c-.9-.14-1-.94-.92-1.64A2.08,2.08,0,0,1,167.34,160.2Z" style="fill:#ff99ba"></path><path d="M149.71,153.85c3.06-.36,2.33-7.84,2.33-7.84s4.63-1.11,6.54-7.66c0,0,6.24,3.43,11.23,2.22,7.83-1.9,7-12.16,3.94-14.08-4.37-2.73-11.59,2-11.59,2s-11.5-2.5-14.42,5.35a5.82,5.82,0,0,0-5.06,6.11C142.66,145.57,147.43,154.12,149.71,153.85Z" style="fill:#263238"></path><path d="M151,147a10.43,10.43,0,0,0,5.72-3.57,7.8,7.8,0,0,0,1.4-7c0-.13.17-.19.2-.06a8.94,8.94,0,0,1-.82,7.58,7.27,7.27,0,0,1-6.47,3.3C150.9,147.17,150.86,147,151,147Z" style="fill:#263238"></path><path d="M142.09,136.73c1.44-2.06,3.8-2.51,6.16-2.56.13,0,.13.21,0,.21a6.54,6.54,0,0,0-5.66,3.51c-1.08,1.92-.68,4.25-.08,6.27a16.54,16.54,0,0,0,7.13,9.41c.06,0,0,.12,0,.09a16.51,16.51,0,0,1-8-10.29C141.08,141.24,140.76,138.64,142.09,136.73Z" style="fill:#263238"></path><path d="M161.87,128.91a7.67,7.67,0,0,1,4.15-3.58,9.27,9.27,0,0,1,6.6.28,5.23,5.23,0,0,1,3,4.29,9.3,9.3,0,0,1-1.73,6,0,0,0,0,1-.08-.05,9.32,9.32,0,0,0,1.31-5.4,4.82,4.82,0,0,0-3.08-4.08c-3.33-1.26-8.06-.74-10,2.68C162,129.13,161.8,129,161.87,128.91Z" style="fill:#263238"></path><path d="M162.92,156.13a4.71,4.71,0,1,1,4.69-5.78h0a4.71,4.71,0,0,1-3.53,5.66A4.62,4.62,0,0,1,162.92,156.13Zm.19-8.8a4.34,4.34,0,0,0-1,.11,4.06,4.06,0,1,0,1-.11Z" style="fill:#455a64"></path><path d="M173.68,155c-1.8,0-3.4-1.92-3.63-4.37a5.57,5.57,0,0,1,.68-3.37,2.93,2.93,0,0,1,5-.48A5.6,5.6,0,0,1,177,150c.24,2.59-1.12,4.85-3,5A1.58,1.58,0,0,1,173.68,155Zm-.29-8.77a1.92,1.92,0,0,0-.24,0,2.54,2.54,0,0,0-1.88,1.35,4.94,4.94,0,0,0-.59,3c.21,2.25,1.67,3.95,3.25,3.8s2.69-2.1,2.48-4.34a5,5,0,0,0-1.15-2.83A2.58,2.58,0,0,0,173.39,146.27Z" style="fill:#455a64"></path><path d="M167.51,150.91l-.45-.44c.65-.67,2.22-1.63,3.48-.51l-.41.47C169,149.43,167.57,150.85,167.51,150.91Z" style="fill:#455a64"></path><path d="M146.71,154.12l-.59-.23c.11-.28,1.11-2.68,2.49-3s9.78-.35,10.14-.35v.63c-2.43,0-9,.07-10,.33S147,153.46,146.71,154.12Z" style="fill:#455a64"></path><path d="M152.29,153.76s-3.57-5.24-5.95-4,.26,8.85,3,9.91a2.82,2.82,0,0,0,3.8-1.46Z" style="fill:#f7a9a0"></path><path d="M147.15,151.94s-.05.05,0,.07c1.93.81,2.93,2.63,3.62,4.5a1.55,1.55,0,0,0-2.32-.45c-.05,0,0,.11.05.1a1.74,1.74,0,0,1,1.9.63,8.32,8.32,0,0,1,.9,1.56c.08.17.4.08.34-.12l0,0C151.69,155.71,149.81,152.22,147.15,151.94Z" style="fill:#263238"></path><path d="M163.09,176.61s-.06,0-.06,0c0,2.75-.22,9.12-5.17,8.46a11.08,11.08,0,0,1-5.2-2.59,25.32,25.32,0,0,1-3.95-3.93,35.55,35.55,0,0,1-3.59-5c0-.07-.17,0-.13.07a59,59,0,0,0,3.17,5.19,22.47,22.47,0,0,0,4.26,4.35,11.24,11.24,0,0,0,5.54,2.55,4.07,4.07,0,0,0,4.28-2.39A13.41,13.41,0,0,0,163.09,176.61Z" style="fill:#263238"></path><rect x="186.13" y="435.39" width="91.37" height="9.67" style="fill:#263238"></rect><rect x="92.68" y="283.89" width="85.56" height="32.99" transform="translate(270.92 600.76) rotate(180)" style="fill:#a6a6a6"></rect><path d="M106.65,396.23h71.59v-4.14H106.65a11.76,11.76,0,0,1-11.74-11.74V201.11A15.89,15.89,0,0,0,79,185.24H69.39v4.13H79a11.76,11.76,0,0,1,11.75,11.74V380.35A15.9,15.9,0,0,0,106.65,396.23Z" style="fill:#c7c7c7"></path><path d="M176.18,439h4.13V282.19A14.31,14.31,0,0,0,166,267.89H92.84V272H166a10.17,10.17,0,0,1,10.16,10.16Z" style="fill:#c7c7c7"></path><rect x="56.58" y="183.05" width="25.61" height="8.22" transform="translate(138.77 374.31) rotate(180)" style="fill:#263238"></rect><path d="M41.49,379.68c0-39.79,25.94-72.16,57.82-72.16s57.82,32.37,57.82,72.16-25.94,72.17-57.82,72.17S41.49,419.48,41.49,379.68Zm5.79,0c0,36.61,23.34,66.38,52,66.38s52-29.77,52-66.38S128,313.3,99.31,313.3,47.28,343.08,47.28,379.68Z" style="fill:#263238"></path><path d="M43.59,379.68c0-35.27,23-64,51.16-64s51.15,28.7,51.15,64-23,64-51.15,64S43.59,415,43.59,379.68Zm4.14,0c0,33,21.09,59.84,47,59.84s47-26.84,47-59.84-21.1-59.84-47-59.84S47.73,346.69,47.73,379.68Z" style="fill:#c7c7c7"></path><path d="M88.41,379.68c0,5.78,3.71,10.46,8.29,10.46s8.3-4.68,8.3-10.46-3.72-10.46-8.3-10.46S88.41,373.91,88.41,379.68Z" style="fill:#c7c7c7"></path><ellipse cx="94.05" cy="379.68" rx="8.29" ry="10.46" style="fill:#dbdbdb"></ellipse><ellipse cx="179.14" cy="440.23" rx="10.79" ry="13.61" style="fill:#c7c7c7"></ellipse><ellipse cx="175.69" cy="440.23" rx="10.79" ry="13.61" style="fill:#dbdbdb"></ellipse></g><g id="freepik--speech-bubble--inject-44"><path d="M223.62,132.05a20.23,20.23,0,0,1-33.8,12.79l-10.12,1.49,5.07-8.75a20.23,20.23,0,0,1,20.83-27.76A20.25,20.25,0,0,1,223.62,132.05Z" style="fill:#fff"></path><path d="M223.62,132.05a20.44,20.44,0,0,1-4.09,10.25,21.62,21.62,0,0,1-1.83,2.11,22.88,22.88,0,0,1-2.13,1.81,20.12,20.12,0,0,1-13.14,4.07,17.61,17.61,0,0,1-2.8-.29,20.49,20.49,0,0,1-10-4.94l.24.07-10.1,1.55-.74.11.37-.64,5-8.77,0,.35a20.45,20.45,0,0,1,1.25-18A20.85,20.85,0,0,1,192,113a20.65,20.65,0,0,1,17.78-2.39,20.74,20.74,0,0,1,7.8,4.78A20.38,20.38,0,0,1,223.62,132.05Zm0,0a20,20,0,0,0-22.94-21.89,19.93,19.93,0,0,0-8.36,3.3,21,21,0,0,0-6,6.6,20,20,0,0,0-2.56,8.56,20.26,20.26,0,0,0,1.42,8.81l.07.18-.09.17-5.1,8.73-.36-.54,10.13-1.42.14,0,.1.1a19.93,19.93,0,0,0,9.68,5,18.27,18.27,0,0,0,2.75.33,19.7,19.7,0,0,0,2.77,0,20.09,20.09,0,0,0,5.4-1.19,19,19,0,0,0,4.88-2.63,22.67,22.67,0,0,0,2.13-1.79,21.49,21.49,0,0,0,1.84-2.09A20.33,20.33,0,0,0,223.62,132.05Z" style="fill:#263238"></path><path d="M214.77,130.56a2.45,2.45,0,1,1-2.44-2.45A2.45,2.45,0,0,1,214.77,130.56Z" style="fill:#263238"></path><path d="M206,130.56a2.45,2.45,0,1,1-2.45-2.45A2.45,2.45,0,0,1,206,130.56Z" style="fill:#263238"></path><path d="M197.22,130.56a2.45,2.45,0,1,1-2.44-2.45A2.45,2.45,0,0,1,197.22,130.56Z" style="fill:#263238"></path></g></svg>