<svg width="330" height="414" viewBox="0 0 330 414" fill="none" xmlns="http://www.w3.org/2000/svg">
<g clip-path="url(#clip0_9_250)">
<g opacity="0.28">
<path opacity="0.28" d="M151.022 366.606C141.391 366.645 131.76 366.945 122.144 368.346C118.518 368.877 114.969 370.04 111.335 370.509C104.075 371.449 96.9539 373.196 89.6708 373.997C83.8044 374.644 77.9148 375.028 72.0714 375.852C66.5899 376.622 60.5232 376.445 55.0802 375.167C51.0537 374.22 47.0042 373.689 43.047 372.172C38.6202 370.478 33.8084 369.262 29.1892 369.308C22.6067 369.37 16.2013 369.378 9.90371 372.372C7.69415 373.427 4.98418 375.152 3.30585 377.361C-0.535847 382.412 -1.05936 395.03 2.78233 400.265C9.24931 409.088 23.0378 412.552 32.0993 412.714C42.0307 412.891 51.6696 411.929 61.6165 411.359C70.855 410.828 80.0704 410.081 89.3244 410.104C108.225 410.158 127.125 410.104 145.995 408.449C163.718 406.894 181.487 407.425 199.255 407.425C217.471 407.425 235.563 407.61 253.647 410.789C261.531 412.175 269.553 412.66 277.475 413.623C284.566 414.492 291.387 413.607 298.446 412.806C304.375 412.137 310.272 410.135 315.661 406.755C319.926 404.084 327.533 395.777 328.841 389.394C332.506 371.502 277.159 371.934 268.66 371.972C259.152 372.018 249.567 372.426 240.067 371.949C236.071 371.749 232.137 370.725 228.234 369.601C224.346 368.485 220.435 368.769 216.493 368.3C200.064 366.344 183.604 366.629 167.121 366.629C161.755 366.652 156.388 366.591 151.022 366.606Z" fill="#F1F2F2"/>
</g>
<path d="M157.043 200.689L148.266 197.248L146.665 198.965V201.813H142.2L142.6 206.949L146.665 208.504L155.234 207.341L157.043 200.689Z" fill="#E1CFB5"/>
<path d="M230.505 380.387C231.382 379.425 232.399 378.901 233.553 379.078C234.662 379.255 235.655 380.002 236.109 381.003C236.417 381.688 236.487 382.45 236.548 383.197C236.864 387.062 236.841 396.231 231.69 397.555C229.527 398.109 227.741 396.57 227.163 394.63C226.293 391.704 227.587 383.605 230.505 380.387Z" fill="#3B455A"/>
<path d="M228.672 322.107L228.942 345.673C228.626 356.136 230.266 366.66 229.95 377.13C229.881 379.54 229.25 382.073 229.858 384.459C230.451 386.792 232.345 387.208 234.293 386.022C236.902 384.436 236.479 380.741 236.918 378.046C238.111 370.632 239.512 363.257 240.759 355.858C241.368 352.232 240.113 347.143 240.382 343.471L244.185 323.724L228.672 322.107Z" fill="#C67A6D"/>
<path d="M255.595 284.037L245.34 329.59L243.161 372.611L226.902 372.249L222.483 251.91L254.001 252.487L255.595 284.037Z" fill="#8EC3CB"/>
<path d="M207.247 379.532C208.155 378.624 209.194 378.154 210.342 378.408C211.435 378.647 212.397 379.455 212.813 380.487C213.09 381.188 213.129 381.958 213.159 382.712C213.313 386.6 212.89 395.777 207.709 396.793C205.53 397.224 203.813 395.577 203.32 393.598C202.566 390.611 204.198 382.581 207.247 379.532Z" fill="#3B455A"/>
<path d="M215.815 325.417L214.437 348.945C214.322 355.481 213.452 361.971 212.774 368.461C212.143 374.489 213.121 380.772 209.972 386.261C208.987 387.978 206.985 389.125 205.591 387.038C204.514 385.429 205.153 382.743 204.945 380.91C204.106 373.45 203.051 366.021 202.158 358.568C201.719 354.912 203.213 349.892 203.112 346.212L200.241 326.311L215.815 325.417Z" fill="#C67A6D"/>
<path d="M195.237 281.25L193.92 325.471L200.857 370.186L217.401 370.686L216.67 322.292L225.423 282.15L228.357 255.882L202.112 252.787L195.237 281.25Z" fill="#8EC3CB"/>
<path d="M216 162.288L244.278 161.61L260.676 192.105L254.848 220.66L253.809 254.835L213.475 255.389L200.202 253.234L203.728 216.718L201.704 167.939L216 162.288Z" fill="#CCD2D9"/>
<path d="M214.984 180.765L200.256 210.205L184.374 213.362L152.578 208.504L156.481 198.557H185.636L202.096 167.939L214.984 180.765Z" fill="#CCD2D9"/>
<path d="M217.771 138.599C222.036 126.204 238.396 130.854 241.768 141.886C243.97 149.085 238.411 158.423 230.951 160.494C230.92 160.779 230.897 161.041 230.89 161.264C230.882 162.419 230.743 163.558 230.574 164.713C230.512 165.144 223.984 163.89 223.252 163.743C222.998 163.689 222.714 163.62 222.575 163.412C222.313 163.004 222.737 161.795 222.791 161.341C222.844 160.802 222.906 160.263 222.96 159.732C219.28 157.938 216.963 154.112 216.308 150.216C215.661 146.298 216.493 142.318 217.771 138.599Z" fill="#C67A6D"/>
<path d="M228.449 127.397C229.327 128.29 229.673 129.53 229.927 130.723C230.081 131.439 230.212 132.17 230.058 132.879C229.45 135.689 226.663 135.543 224.5 136.451C221.836 137.567 219.542 139.631 218.056 142.002C215.723 145.713 216.77 150.494 217.717 154.589C218.048 156.029 218.718 158.177 217.602 159.463C216.462 160.771 213.837 160.571 212.474 159.894C211.227 159.278 210.211 158.139 208.84 157.915C207.393 157.677 205.437 158.308 204.768 156.984C204.583 156.614 204.56 156.16 204.329 155.821C203.528 154.682 201.542 156.014 200.418 155.213C199.725 154.72 199.733 153.658 199.964 152.826C200.195 151.987 200.595 151.14 200.426 150.293C200.287 149.562 199.756 148.985 199.432 148.323C198.786 147.006 199.009 145.297 199.971 144.188C201.75 142.125 205.199 142.518 207.108 140.578C208.101 139.569 208.486 138.114 208.856 136.728C209.225 135.35 209.672 133.895 210.734 132.963C212.051 131.809 213.945 132.009 215.238 130.638C216 129.838 216.508 128.791 217.363 128.09C218.487 127.166 220.689 126.458 222.09 125.988C224.299 125.234 226.786 125.711 228.449 127.397Z" fill="#3B455A"/>
<path d="M238.796 147.175C238.873 151.256 236.849 155.667 238.727 159.255C240.621 162.881 245.348 163.535 249.382 163.72C250.044 163.751 258.551 164.482 258.582 164.32C259.221 161.48 259.876 158.585 261.361 156.09C262.847 153.596 265.326 151.525 268.175 151.348C267.351 151.209 266.943 150.201 267.035 149.354C267.128 148.507 267.567 147.745 267.821 146.929C268.444 144.927 267.836 142.594 266.327 141.193C263.317 138.391 257.866 139.553 255.287 136.335C253.686 134.341 253.878 131.447 253.039 129.006C251.422 124.294 246.256 123.309 242.399 121.176C238.327 118.928 234.493 117.697 229.796 118.482C223.968 119.452 219.642 125.38 221.89 130.962C224.769 138.121 236.294 137.506 238.45 144.773C238.681 145.559 238.781 146.359 238.796 147.175Z" fill="#3B455A"/>
<path d="M235.917 162.126L227.14 174.521L223.021 174.182L216.146 161.61L235.917 162.126Z" fill="#8EC3CB"/>
<path d="M39.2823 143.888L33.8238 133.918L39.1899 123.632L44.7869 126.596L44.1094 135.05L47.0657 137.921L45.9186 145.174L39.2823 143.888Z" fill="#EFBFA5"/>
<path d="M123.145 238.129L123.884 302.29L117.048 384.891H107.748L96.6228 308.688L83.9044 232.354L123.145 238.129Z" fill="#3B455A"/>
<path d="M107.801 388.809L117.856 393.836L122.883 388.809L117.856 383.782H107.801V388.809Z" fill="#3B455A"/>
<path d="M59.3992 238.129L59.2221 275.252L65.4889 384.891H74.7891L90.3406 312.129L98.6399 232.354L59.3992 238.129Z" fill="#3B455A"/>
<path d="M74.7352 388.809L64.6806 393.836L59.6533 388.809L64.6806 383.782H74.7352V388.809Z" fill="#3B455A"/>
<path d="M49.7372 260.478C49.5371 266.368 49.6679 274.244 52.1469 274.536C52.6089 274.59 53.0554 274.382 53.4711 274.19C57.7825 272.096 60.8543 269.132 65.104 267.107C69.5616 264.99 74.6197 263.873 79.57 263.111C86.9532 261.933 94.4518 261.225 101.881 261.156C108.263 261.102 114.9 264.012 120.936 265.613C123.261 266.229 125.147 267.923 127.079 269.247C129.928 271.21 131.183 271.988 130.79 267.977C130.159 261.441 129.497 254.904 128.696 248.384C127.095 235.38 124.908 222.408 121.213 209.82C119.804 205.009 118.172 200.266 116.547 195.531C114.569 189.757 112.582 183.983 110.604 178.217C108.14 171.042 103.983 165.991 96.6998 163.481C90.4099 161.31 82.5956 160.717 76.4751 163.758C69.6694 167.131 66.4359 178.633 63.1331 184.776C60.2384 190.158 56.5891 204.847 55.5036 210.652C54.2025 217.635 52.9938 224.594 52.0469 231.523C50.9921 239.207 50.2531 246.859 50.0375 254.473C49.999 255.312 49.8296 257.668 49.7372 260.478Z" fill="#EBB044"/>
<path d="M83.3347 164.774L95.8991 164.898C95.8991 164.898 109.38 212.014 109.872 220.129C110.357 228.097 113.768 260.424 113.768 260.424C113.768 260.424 99.8563 260.755 83.8197 262.703C68.145 266.06 66.8285 264.073 66.8285 264.073C66.8285 264.073 75.2895 230.099 75.5667 220.344C75.8515 210.359 77.1295 177.385 77.1295 177.385L83.3347 164.774Z" fill="white"/>
<path d="M86.4989 164.652C86.6452 164.782 86.8146 164.882 87.0147 164.944C87.4074 165.075 87.8308 165.029 88.2389 164.975C89.9018 164.775 91.5647 164.582 93.2277 164.382C92.6811 159.293 95.6528 158.138 98.5552 154.866C101.496 151.548 100.588 147.075 100.426 143.01C100.38 141.879 100.326 140.716 99.8486 139.684C99.0095 137.883 97.054 136.89 95.1601 136.297C90.3175 134.796 84.7821 135.165 80.5247 137.906C79.3929 138.637 78.3305 139.553 77.7146 140.755C76.7677 142.61 77.0063 144.819 77.2758 146.883C77.6838 150.055 78.6231 153.165 80.4169 155.844C82.0875 158.331 85.2748 159.524 85.6367 162.519C85.7137 163.304 85.9446 164.167 86.4989 164.652Z" fill="#EFBFA5"/>
<path d="M77.399 143.21C77.6838 144.488 78.2766 145.782 77.9687 147.052C75.9362 146.359 74.612 144.288 73.8883 142.171C73.565 141.217 73.3263 140.2 73.411 139.184C73.4957 138.168 73.9345 137.152 74.7352 136.582C75.8515 135.781 77.8532 136.097 78.1688 137.544C78.4845 139.015 76.9755 141.286 77.399 143.21Z" fill="#3B455A"/>
<path d="M66.613 131.978C66.6592 130.446 67.2443 129.075 68.6147 128.152C69.7926 127.351 71.1553 126.696 71.8712 125.426C72.4256 124.441 72.5102 123.224 73.0646 122.239C74.0654 120.453 76.2287 119.929 78.115 119.321C82.8343 117.804 85.3749 116.057 90.3714 117.997C93.9206 119.375 98.5167 119.56 101.812 121.569C103.19 122.408 104.36 123.756 105.322 125.264C108.656 130.469 109.457 137.798 107.286 143.226C106.801 144.442 106.185 145.558 105.523 146.629C104.206 148.769 102.79 151.402 100.457 152.449C100.311 151.44 99.5561 150.886 99.3251 149.893C99.1557 149.177 99.2096 148.43 99.2481 147.699C99.3944 144.842 100.264 140.323 97.4158 138.907C93.8128 137.113 87.0455 138.73 83.5657 140.246C80.4939 141.586 75.3049 143.334 72.0252 141.894C68.9842 140.57 66.5129 135.25 66.613 131.978Z" fill="#3B455A"/>
<path d="M76.4597 163.758L54.2872 182.389L49.1136 144.311L37.3576 142.032L35.302 193.783L47.8741 205.593L70.7549 194.299L76.4597 163.758Z" fill="#EBB044"/>
<path d="M166.251 335.688C210.071 335.688 245.594 300.164 245.594 256.344C245.594 212.524 210.071 177 166.251 177C122.43 177 86.907 212.524 86.907 256.344C86.907 300.164 122.43 335.688 166.251 335.688Z" fill="#FEB449"/>
<path d="M184.874 203.415C182.495 201.313 179.208 200.266 175.012 200.266C171.54 200.266 168.383 200.997 165.558 202.46C162.725 203.923 160.507 205.863 158.914 208.281C157.312 210.706 156.512 213.377 156.512 216.295C156.512 219.582 157.697 222.277 160.076 224.379C162.447 226.48 165.781 227.527 170.077 227.527C173.549 227.527 176.675 226.819 179.462 225.403C182.249 223.986 184.443 222.046 186.037 219.575C187.638 217.111 188.439 214.455 188.439 211.63C188.439 208.257 187.253 205.517 184.874 203.415Z" fill="white"/>
<path d="M182.903 297.54C182.903 297.54 170.269 302.575 171.417 296.085L180.07 247.059C181.148 240.947 176.452 235.35 170.246 235.35H156.512H155.141H146.188L145.464 238.406C145.464 238.406 154.518 238.891 153.132 246.713C149.991 264.513 144.263 296.986 144.255 297.017C143.485 301.374 145.04 305.901 148.32 308.873C153.224 313.323 159.953 313.03 165.889 311.136C167.867 310.505 185.12 302.783 185.097 302.722L182.903 297.54Z" fill="white"/>
<path opacity="0.1" d="M212.082 191.598C221.258 204.547 226.678 220.353 226.678 237.429C226.678 281.25 191.156 316.772 147.335 316.772C130.259 316.772 114.453 311.36 101.504 302.175C115.877 322.446 139.513 335.688 166.251 335.688C210.072 335.688 245.594 300.166 245.594 256.344C245.594 229.607 232.352 205.971 212.082 191.598Z" fill="#272525"/>
<path opacity="0.2" d="M184.027 188.587C184.381 188.587 184.743 188.587 185.097 188.595C178.215 186.108 170.785 184.753 163.04 184.753C141.206 184.753 121.89 195.532 110.15 212.046C109.734 212.176 109.426 212.585 109.426 213.07V213.085C102.366 223.44 98.2396 235.943 98.2396 249.416C98.2396 249.716 98.2473 250.016 98.2473 250.316C110.18 214.448 144.078 188.587 184.027 188.587Z" fill="white"/>
<path d="M94.498 156.861C99.6331 156.861 103.798 152.696 103.798 147.561H105.646C105.646 153.72 100.657 158.708 94.498 158.708V156.861Z" fill="#BABCBE"/>
<path d="M89.7401 156.114H92.9582C93.9898 156.114 94.8213 156.945 94.8213 157.977C94.8213 159.009 93.9898 159.84 92.9582 159.84H89.7401C88.7085 159.84 87.877 159.009 87.877 157.977C87.877 156.945 88.7085 156.114 89.7401 156.114Z" fill="#686E72"/>
<path d="M103.69 140.724V133.071C103.69 124.803 96.9847 118.105 88.7239 118.105C80.4631 118.105 73.7574 124.81 73.7574 133.071V140.724H70.47V133.017C70.47 122.932 78.6462 114.756 88.7316 114.756C98.817 114.756 106.993 122.932 106.993 133.017V140.724H103.69Z" fill="#BABCBE"/>
<path d="M66.0894 139.377C65.5274 140.231 65.5274 140.809 65.5274 141.532V142.933C65.5274 142.933 65.5274 144.327 65.5274 144.335C65.5274 145.058 65.5274 145.636 66.0894 146.49L67.0133 147.568V142.933V138.299L66.0894 139.377Z" fill="#BABCBE"/>
<path d="M71.1014 149.793C68.8456 149.793 67.0133 147.961 67.0133 145.705V140.139C67.0133 137.883 68.8456 136.051 71.1014 136.051C73.3571 136.051 75.1894 137.883 75.1894 140.139V145.705C75.1894 147.961 73.3571 149.793 71.1014 149.793Z" fill="#686E72"/>
<path d="M111.612 139.377C112.174 140.231 112.174 140.809 112.174 141.532V142.933C112.174 142.933 112.174 144.327 112.174 144.335C112.174 145.058 112.174 145.636 111.612 146.49L110.689 147.568V142.933V138.299L111.612 139.377Z" fill="#BABCBE"/>
<path d="M106.6 149.793C108.856 149.793 110.689 147.961 110.689 145.705V140.139C110.689 137.883 108.856 136.051 106.6 136.051C104.345 136.051 102.512 137.883 102.512 140.139V145.705C102.512 147.961 104.345 149.793 106.6 149.793Z" fill="#686E72"/>
<path d="M233.73 160.287C238.619 160.287 242.576 156.33 242.576 151.441H244.332C244.332 157.3 239.582 162.042 233.73 162.042V160.287Z" fill="#BABCBE"/>
<path d="M229.204 159.578H232.26C233.238 159.578 234.031 160.371 234.031 161.349C234.031 162.327 233.238 163.12 232.26 163.12H229.204C228.226 163.12 227.433 162.327 227.433 161.349C227.433 160.371 228.226 159.578 229.204 159.578Z" fill="#686E72"/>
<path d="M242.469 144.943V137.668C242.469 129.807 236.094 123.433 228.234 123.433C220.373 123.433 213.998 129.807 213.998 137.668V144.943H210.873V137.614C210.873 128.029 218.649 120.253 228.234 120.253C237.819 120.253 245.594 128.029 245.594 137.614V144.943H242.469Z" fill="#BABCBE"/>
<path d="M206.715 143.657C206.177 144.466 206.177 145.02 206.177 145.705V147.037V148.369C206.177 149.054 206.177 149.608 206.715 150.417L207.593 151.448V147.037V142.633L206.715 143.657Z" fill="#BABCBE"/>
<path d="M211.481 153.566C209.333 153.566 207.593 151.826 207.593 149.678V144.389C207.593 142.241 209.333 140.501 211.481 140.501C213.629 140.501 215.369 142.241 215.369 144.389V149.678C215.369 151.826 213.629 153.566 211.481 153.566Z" fill="#686E72"/>
<path d="M249.998 143.657C250.537 144.466 250.537 145.02 250.537 145.705V147.037V148.369C250.537 149.054 250.537 149.608 249.998 150.417L249.12 151.448V147.037V142.633L249.998 143.657Z" fill="#BABCBE"/>
<path d="M245.24 153.566C247.388 153.566 249.128 151.826 249.128 149.678V144.389C249.128 142.241 247.388 140.501 245.24 140.501C243.092 140.501 241.352 142.241 241.352 144.389V149.678C241.352 151.826 243.092 153.566 245.24 153.566Z" fill="#686E72"/>
<path d="M129.035 110.783L126.409 100.167L117.379 96.356L115.67 102.461L120.512 108.566L121.19 113.971L129.035 110.783Z" fill="#EFBFA5"/>
<path d="M98.6399 164.505L126.894 153.142L118.041 108.612L128.226 107.403L145.302 153.873L141.792 167.954L109.819 189.488L98.6399 164.505Z" fill="#EBB044"/>
<path opacity="0.37" d="M194.113 0.759875L40.9683 1.42197C33.0386 1.45277 26.5716 7.97364 26.6101 15.9034L26.9411 91.9135C26.9719 99.8432 33.4928 106.31 41.4225 106.272L147.527 105.817L172.741 139.846L177.144 105.694L194.559 105.617C202.489 105.587 208.956 99.0657 208.917 91.1359L208.586 15.1258C208.555 7.18836 202.042 0.72908 194.113 0.759875Z" fill="#616E7D"/>
<path d="M245.833 233.14L248.528 237.082L243.069 244.188L237.002 243.695L234.015 239.007L237.826 236.274L237.295 235.165L238.065 233.51L245.833 233.14Z" fill="#C67A6D"/>
<path d="M245.217 163.712L276.536 199.743L278.06 215.518L247.173 239.907L241.629 231.885L261.608 210.56L242.253 191.613L245.217 163.712Z" fill="#CCD2D9"/>
</g>
<defs>
<clipPath id="clip0_9_250">
<rect width="328.861" height="413.24" fill="white" transform="translate(0.149353 0.759766)"/>
</clipPath>
</defs>
</svg>
