<svg width="298" height="396" viewBox="0 0 298 396" fill="none" xmlns="http://www.w3.org/2000/svg">
<g filter="url(#filter0_d_9_147)">
<g clip-path="url(#clip0_9_147)">
<path d="M210.32 362.85V371.83C210.32 371.83 189.45 374.5 183.39 375.71C177.33 376.92 178.27 364.31 191.99 362.85H210.32Z" fill="black"/>
<path d="M242.23 224.42C242.23 224.42 255.79 248.41 244.9 273.19C234.69 296.42 220.85 361.26 222.82 362.97H195.16C197.59 363.07 192.86 316.42 179.39 285.81C166.87 257.36 167.38 235.22 171.26 224.3" fill="#53AFBE"/>
<path d="M187.03 108.56C187.03 108.56 146.63 111.59 129.16 103.34C111.69 95.0898 102.23 80.0498 102.23 80.0498L94.47 91.4498C94.47 91.4498 126.59 138.44 177.26 127.56" fill="#FEB449"/>
<path d="M186.3 109.77C186.3 109.77 175.38 128.45 171.26 143.74C167.14 159.03 178.78 159.03 178.3 168.98C177.82 178.93 180.24 205.38 171.26 224.3H242.11C242.11 224.3 223.43 181.59 239.68 146.17L265.4 158.06L237.74 177.23L242.84 189.12C242.84 189.12 292.34 161.46 293.07 156.12C293.8 150.78 242.11 111.47 242.11 111.47L229.98 94.48L186.3 109.77Z" fill="#FEB449"/>
<path d="M242.11 225.15H169.91L170.49 223.94C177.61 208.93 177.47 188.72 177.39 176.64C177.37 173.58 177.35 170.93 177.45 168.94C177.64 165.1 175.92 162.93 173.92 160.41C171.11 156.86 167.93 152.84 170.44 143.53C174.55 128.31 185.46 109.54 185.57 109.35L185.73 109.08L230.3 93.48L242.73 110.88C243.98 111.83 256.31 121.25 268.4 131.14C275.86 137.24 281.78 142.34 285.99 146.27C293.24 153.05 294.06 155.11 293.91 156.23C293.77 157.25 293.4 159.97 268.12 175.34C255.78 182.84 243.38 189.78 243.25 189.85L242.43 190.31L236.69 176.92L263.7 158.2L240.11 147.29C232.19 165.17 233.29 184.87 235.63 198.32C238.22 213.16 242.84 223.84 242.89 223.95L243.41 225.14H242.11V225.15ZM172.58 223.45H240.84C239.56 220.24 236.08 210.83 233.96 198.66C232.42 189.83 231.88 181.28 232.35 173.27C232.95 163.23 235.15 153.99 238.91 145.81L239.27 145.04L267.11 157.91L238.8 177.53L243.25 187.91C246.22 186.24 256.76 180.27 267.24 173.89C290.05 160.01 292.13 156.69 292.22 156C292.24 155.75 291.96 154.17 284.7 147.39C280.5 143.47 274.62 138.42 267.21 132.36C254.58 122.03 241.72 112.25 241.59 112.15L241.49 112.07L229.66 95.5L186.88 110.47C185.54 112.81 175.86 129.95 172.08 143.96C169.79 152.45 172.57 155.95 175.25 159.35C177.27 161.9 179.36 164.54 179.14 169.02C179.05 170.96 179.06 173.59 179.08 176.63C179.17 188.53 179.3 208.24 172.58 223.45Z" fill="#2F2F2F"/>
<path d="M147.72 130.88C147.72 130.88 147.72 -13.2498 210.81 1.79015L202.34 11.3102C202.34 11.3102 173.39 44.8702 169.78 62.5202C166.17 80.1702 185.58 109.28 185.58 109.28C185.58 109.28 174.41 115.59 147.72 130.88Z" fill="#2F2F2F"/>
<path d="M245.675 68.6151C249.894 40.4252 236.452 15.0496 215.652 11.937C194.853 8.82441 174.571 29.1536 170.353 57.3435C166.134 85.5333 179.576 110.909 200.376 114.022C221.175 117.134 241.457 96.805 245.675 68.6151Z" fill="#DD9F90"/>
<path d="M204.64 116.01C203.14 116.01 201.63 115.9 200.13 115.67C189.53 114.08 180.43 107.05 174.51 95.8696C168.67 84.8496 166.61 71.0796 168.7 57.0996C170.79 43.1196 176.79 30.5596 185.6 21.7296C194.54 12.7696 205.3 8.70962 215.89 10.2996C226.49 11.8896 235.59 18.9196 241.51 30.0996C247.35 41.1196 249.41 54.8896 247.32 68.8696C245.23 82.8496 239.23 95.4096 230.42 104.24C222.76 111.93 213.74 116.01 204.64 116.01ZM211.41 13.2896C203.19 13.2896 195 17.0296 187.96 24.0796C179.65 32.4096 173.98 44.3096 172 57.5896C170.01 70.8696 171.95 83.9096 177.46 94.3096C182.88 104.54 191.11 110.95 200.63 112.38C210.16 113.81 219.9 110.08 228.07 101.89C236.38 93.5596 242.05 81.6596 244.03 68.3796L245.68 68.6296L244.03 68.3796C246.02 55.0996 244.08 42.0596 238.57 31.6596C233.15 21.4296 224.92 15.0196 215.4 13.5896C214.08 13.3896 212.75 13.2896 211.41 13.2896Z" fill="#2F2F2F"/>
<path d="M219.8 60.826C220.616 55.3694 217.776 50.4217 213.455 49.7752C209.135 49.1286 204.97 53.028 204.154 58.4846C203.337 63.9413 206.178 68.8889 210.498 69.5354C214.819 70.182 218.983 66.2826 219.8 60.826Z" fill="white"/>
<path d="M211.43 69.8101C211.11 69.8101 210.79 69.7901 210.46 69.7401C206.03 69.0801 203.11 64.0101 203.94 58.4501C204.77 52.8901 209.05 48.9101 213.48 49.5701C217.91 50.2301 220.83 55.3001 220 60.8601C219.23 66.0101 215.5 69.8101 211.43 69.8101ZM212.51 49.9101C208.65 49.9101 205.09 53.5601 204.35 58.5101C203.55 63.8401 206.32 68.6901 210.52 69.3201C214.72 69.9501 218.78 66.1201 219.58 60.7901C220.38 55.4601 217.61 50.6101 213.41 49.9801C213.12 49.9401 212.81 49.9101 212.51 49.9101Z" fill="black"/>
<path d="M196.833 59.9193C197.067 54.573 193.826 50.0889 189.594 49.9038C185.362 49.7187 181.742 53.9026 181.508 59.2489C181.274 64.5952 184.515 69.0793 188.747 69.2644C192.979 69.4495 196.599 65.2655 196.833 59.9193Z" fill="white"/>
<path d="M189.02 69.3898C188.93 69.3898 188.84 69.3898 188.74 69.3798C186.65 69.2898 184.74 68.1798 183.35 66.2598C181.97 64.3498 181.27 61.8498 181.38 59.2398C181.49 56.6298 182.41 54.1998 183.95 52.4198C185.5 50.6298 187.51 49.6898 189.59 49.7798C193.88 49.9698 197.19 54.5198 196.95 59.9298C196.84 62.5398 195.92 64.9698 194.38 66.7498C192.91 68.4598 191.01 69.3898 189.02 69.3898ZM189.33 50.0098C187.42 50.0098 185.59 50.9098 184.15 52.5698C182.64 54.3198 181.75 56.6898 181.63 59.2498C181.52 61.8098 182.2 64.2498 183.55 66.1198C184.9 67.9798 186.74 69.0598 188.75 69.1398C190.76 69.2298 192.7 68.3198 194.2 66.5798C195.71 64.8298 196.6 62.4598 196.72 59.8998L196.84 59.9098L196.72 59.8998C196.95 54.6298 193.75 50.1898 189.59 50.0098C189.5 50.0098 189.42 50.0098 189.33 50.0098Z" fill="black"/>
<path d="M213.04 60.0696C212.89 60.0196 212.71 60.0096 212.55 60.0196C212.45 60.0296 212.34 60.0396 212.24 60.0296C212.3 60.0396 212.35 60.0396 212.41 60.0496C212.36 60.0396 212.32 60.0296 212.28 60.0196C212.33 60.0396 212.38 60.0596 212.43 60.0796C212.4 60.0696 212.36 60.0496 212.33 60.0296C212.37 60.0596 212.41 60.0996 212.46 60.1296C212.44 60.1196 212.43 60.0996 212.41 60.0796C212.44 60.1196 212.48 60.1596 212.51 60.2096C212.5 60.1896 212.49 60.1796 212.48 60.1496C212.5 60.1996 212.52 60.2496 212.54 60.2996C212.54 60.2896 212.53 60.2796 212.53 60.2596C212.54 60.3196 212.54 60.3696 212.55 60.4296C212.55 60.4096 212.55 60.3896 212.55 60.3696C212.54 60.4296 212.54 60.4796 212.53 60.5396C212.53 60.5196 212.54 60.4996 212.54 60.4796C212.52 60.5296 212.5 60.5796 212.48 60.6296C212.49 60.6096 212.5 60.5796 212.52 60.5596C212.49 60.5996 212.45 60.6396 212.42 60.6896C212.43 60.6796 212.45 60.6596 212.46 60.6496C212.42 60.6796 212.38 60.7196 212.33 60.7496C212.34 60.7396 212.35 60.7396 212.36 60.7296C212.31 60.7496 212.26 60.7696 212.21 60.7896C212.22 60.7896 212.23 60.7796 212.24 60.7796C212.18 60.7896 212.13 60.7896 212.07 60.7996C212.08 60.7996 212.09 60.7996 212.1 60.7996C212.04 60.7896 211.99 60.7896 211.93 60.7796C211.94 60.7796 211.95 60.7796 211.96 60.7896C211.91 60.7696 211.86 60.7496 211.81 60.7296C211.82 60.7296 211.82 60.7396 211.83 60.7396C211.73 60.5596 211.62 60.3796 211.52 60.1996C211.53 60.3296 211.52 60.4696 211.51 60.5996C211.52 60.5396 211.52 60.4896 211.53 60.4296C211.5 60.6196 211.46 60.7896 211.39 60.9696C211.41 60.9196 211.43 60.8696 211.45 60.8196C211.38 60.9896 211.28 61.1496 211.17 61.2996C211.2 61.2596 211.24 61.2196 211.27 61.1696C211.18 61.2796 211.08 61.3796 210.98 61.4696C211.34 61.6196 211.69 61.7596 212.05 61.9096C212.05 61.8796 212.05 61.8596 212.06 61.8296C212.05 61.8896 212.05 61.9396 212.04 61.9996C212.06 61.8896 212.09 61.7796 212.13 61.6796C212.11 61.7296 212.09 61.7796 212.07 61.8296C212.11 61.7296 212.16 61.6496 212.23 61.5596C212.2 61.5996 212.16 61.6396 212.13 61.6896C212.19 61.6096 212.27 61.5396 212.35 61.4696C212.31 61.4996 212.27 61.5396 212.22 61.5696C212.25 61.5396 212.29 61.5196 212.33 61.4996C212.05 61.4296 211.76 61.3496 211.48 61.2796C211.63 61.5696 211.9 61.8296 212.19 61.9796C212.34 62.0496 212.5 62.0896 212.67 62.0396C212.81 61.9996 212.97 61.8896 213.04 61.7496C213.19 61.4696 213.13 61.0496 212.82 60.8996C212.75 60.8596 212.68 60.8196 212.62 60.7696C212.66 60.7996 212.7 60.8396 212.75 60.8696C212.68 60.8096 212.62 60.7496 212.56 60.6796C212.59 60.7196 212.63 60.7596 212.66 60.8096C212.62 60.7596 212.59 60.7096 212.56 60.6496C212.41 60.3596 211.98 60.2496 211.71 60.4296C211.18 60.7596 210.87 61.3096 210.82 61.9296C210.81 62.0296 210.85 62.1596 210.91 62.2496C210.98 62.3696 211.08 62.4496 211.21 62.5096C211.45 62.6096 211.7 62.5496 211.89 62.3796C212.35 61.9896 212.68 61.3896 212.77 60.7996C212.8 60.6196 212.82 60.4396 212.81 60.2596C212.8 60.1396 212.79 60.0096 212.72 59.9096C212.65 59.7796 212.53 59.6996 212.4 59.6496C212.24 59.5796 212.07 59.5696 211.9 59.6196C211.63 59.6996 211.41 59.9296 211.34 60.1996C211.26 60.4896 211.34 60.7996 211.55 61.0096C211.74 61.2096 212.01 61.2896 212.28 61.3096C212.44 61.3196 212.61 61.2796 212.77 61.2996C212.71 61.2896 212.66 61.2896 212.6 61.2796C212.64 61.2896 212.68 61.2896 212.72 61.3096C213.03 61.4096 213.42 61.1896 213.49 60.8696C213.55 60.4896 213.37 60.1796 213.04 60.0696Z" fill="black"/>
<path d="M189.16 60.95C189.17 60.95 189.17 60.95 189.18 60.95C189.12 60.94 189.07 60.94 189.01 60.93C189.09 60.94 189.18 60.96 189.26 61C189.21 60.98 189.16 60.96 189.11 60.94C189.2 60.98 189.28 61.03 189.36 61.09C189.32 61.06 189.28 61.02 189.23 60.99C189.3 61.05 189.37 61.11 189.42 61.18C189.39 61.14 189.35 61.1 189.32 61.05C189.38 61.13 189.43 61.21 189.47 61.3C189.45 61.25 189.43 61.2 189.41 61.15C189.44 61.23 189.46 61.31 189.48 61.4C189.47 61.34 189.47 61.29 189.46 61.23C189.46 61.25 189.46 61.27 189.47 61.28C189.86 61.17 190.25 61.07 190.63 60.96C190.61 60.93 190.6 60.89 190.58 60.86C190.6 60.91 190.62 60.96 190.64 61.01C190.61 60.92 190.58 60.84 190.57 60.74C190.58 60.8 190.58 60.85 190.59 60.91C190.58 60.81 190.58 60.71 190.59 60.61C190.58 60.67 190.58 60.72 190.57 60.78C190.58 60.68 190.61 60.57 190.65 60.48C190.63 60.53 190.61 60.58 190.59 60.63C190.62 60.55 190.67 60.48 190.72 60.41C190.69 60.45 190.65 60.49 190.62 60.54C190.65 60.5 190.68 60.46 190.72 60.43C190.39 60.18 190.07 59.93 189.74 59.67C189.49 60.1 189.24 60.53 188.99 60.96C188.91 61.1 188.88 61.28 188.93 61.44C188.97 61.58 189.08 61.74 189.22 61.81C189.36 61.89 189.54 61.92 189.7 61.87C189.85 61.82 189.99 61.73 190.07 61.58C190.32 61.15 190.57 60.72 190.82 60.29C190.98 60.02 190.9 59.67 190.66 59.48C190.42 59.29 190.06 59.31 189.84 59.53C189.3 60.06 189.19 60.92 189.55 61.58C189.61 61.7 189.73 61.78 189.85 61.84C189.97 61.89 190.12 61.91 190.26 61.87C190.36 61.84 190.46 61.78 190.54 61.71C190.65 61.61 190.74 61.41 190.72 61.27C190.71 61.15 190.7 61.04 190.67 60.92C190.64 60.82 190.6 60.71 190.55 60.62C190.48 60.46 190.36 60.31 190.24 60.19C190.12 60.07 189.98 59.95 189.82 59.88C189.72 59.83 189.62 59.78 189.51 59.75C189.4 59.72 189.28 59.7 189.17 59.69C189.02 59.67 188.83 59.77 188.73 59.87C188.62 59.98 188.54 60.16 188.55 60.31C188.56 60.47 188.61 60.64 188.73 60.75C188.77 60.78 188.81 60.82 188.86 60.85C188.94 60.92 189.05 60.95 189.16 60.95Z" fill="black"/>
<path d="M190.64 87.4099C190.64 87.4099 203.82 91.8299 211.03 84.2399C218.24 76.6499 210.04 110.69 190.64 87.4099Z" fill="#D8705B"/>
<path d="M203.4 95.8899C200.08 95.8499 195.77 93.8599 190.52 87.5599L190.04 86.9799L190.68 87.1999C190.81 87.2399 203.86 91.5099 210.92 84.0699C212.47 82.4399 213.18 82.8499 213.46 83.2499C214.39 84.5499 213.27 88.9999 210.68 92.1699C209.42 93.7099 206.98 95.9299 203.4 95.8899ZM191.22 87.7999C201.64 99.9299 208.13 94.7099 210.45 91.8599C213.02 88.7199 213.96 84.5799 213.21 83.5399C212.87 83.0599 212.11 83.3699 211.14 84.3999C204.84 91.0299 193.93 88.5499 191.22 87.7999Z" fill="black"/>
<path d="M208.78 44.5998C208.78 44.5998 216.82 42.2598 221.14 46.1998C221.14 46.1998 218.26 38.5798 208.78 44.5998Z" fill="#2F2F2F"/>
<path d="M195.26 44.5998C195.26 44.5998 187.22 42.2598 182.9 46.1998C182.9 46.1998 185.78 38.5798 195.26 44.5998Z" fill="#2F2F2F"/>
<path d="M190.62 49.8499C190.62 49.8499 187.38 49.0299 186.31 47.8999C186.31 47.8999 187.54 49.5099 189.35 49.9599L190.62 49.8499Z" fill="#2F2F2F"/>
<path d="M188.18 50.12C188.18 50.12 184.84 50.12 183.52 49.29C183.52 49.29 185.11 50.55 186.97 50.54L188.18 50.12Z" fill="#2F2F2F"/>
<path d="M185.58 51.0502C185.58 51.0502 182.51 51.2702 181.2 50.4502C181.2 50.4502 182.79 51.7102 184.65 51.7002L185.58 51.0502Z" fill="#2F2F2F"/>
<path d="M184.36 52.2598C184.36 52.2598 181.26 53.0598 179.81 52.4998C179.81 52.4998 181.62 53.4298 183.44 53.0498L184.36 52.2598Z" fill="#2F2F2F"/>
<path d="M210.81 1.79023C210.81 1.79023 234.35 -4.99977 243.81 7.86023C253.27 20.7202 273.66 64.4002 262.01 128.94L225.49 129.06C225.49 129.06 251.01 18.0402 202.34 11.3102L210.81 1.79023Z" fill="#2F2F2F"/>
<path d="M210.81 49.7202C210.81 49.7202 213.96 48.6202 214.93 47.4102C214.93 47.4102 213.84 49.1202 212.08 49.7202H210.81Z" fill="#2F2F2F"/>
<path d="M213.26 49.7801C213.26 49.7801 216.59 49.4901 217.83 48.5601C217.83 48.5601 216.35 49.9501 214.5 50.1001L213.26 49.7801Z" fill="#2F2F2F"/>
<path d="M215.44 50.7498C215.44 50.7498 218.77 50.4598 220.01 49.5298C220.01 49.5298 218.53 50.9198 216.68 51.0698L215.44 50.7498Z" fill="#2F2F2F"/>
<path d="M217.14 51.9602C217.14 51.9602 220.47 51.6702 221.71 50.7402C221.71 50.7402 220.23 52.1302 218.38 52.2802L217.14 51.9602Z" fill="#2F2F2F"/>
<path d="M162.11 130.04C155.58 130.04 149.09 129.13 142.71 127.32C133.65 124.75 124.78 120.36 116.36 114.27C102.04 103.92 93.8401 92.05 93.7601 91.93L93.4301 91.45L102.25 78.5L102.94 79.6C103.03 79.75 112.49 94.54 129.52 102.58C146.59 110.64 186.69 107.87 187.09 107.84L187.21 109.53C185.55 109.65 146.27 112.36 128.79 104.11C113.99 97.12 104.76 85.16 102.22 81.56L95.4901 91.44C97.1501 93.72 104.9 103.91 117.39 112.93C130.35 122.29 151.22 132.28 177.06 126.73L177.42 128.39C172.31 129.49 167.19 130.04 162.11 130.04Z" fill="#2F2F2F"/>
<path d="M162.11 130.04C155.58 130.04 149.09 129.13 142.71 127.32C133.65 124.75 124.78 120.36 116.36 114.27C102.04 103.92 93.8401 92.05 93.7601 91.93L93.4301 91.45L102.25 78.5L102.94 79.6C103.03 79.75 112.49 94.54 129.52 102.58C146.58 110.64 183.91 107.59 184.29 107.55L184.43 109.24C182.88 109.37 146.27 112.36 128.79 104.11C113.99 97.12 104.76 85.16 102.22 81.56L95.4901 91.44C97.1501 93.72 104.9 103.91 117.39 112.93C130.35 122.29 151.22 132.28 177.06 126.73L177.42 128.39C172.31 129.49 167.19 130.04 162.11 130.04Z" fill="#2F2F2F"/>
<path d="M237.87 177.35C237.87 177.35 232.17 181.11 232.17 188.63C232.17 196.15 235.08 200.28 237.27 199.06C239.45 197.85 240.18 194.45 238.24 192.27C236.3 190.09 241.39 192.51 242.85 189.12L237.87 177.35Z" fill="#DD9F90"/>
<path d="M236.48 200.12C236.02 200.12 235.55 199.99 235.09 199.72C232.8 198.37 231.31 194.02 231.31 188.63C231.31 180.74 237.15 176.8 237.39 176.64L238.24 176.08L243.75 189.12L243.61 189.45C242.64 191.71 240.39 191.92 239.1 192.01C240 193.19 240.37 194.69 240.11 196.19C239.84 197.75 238.93 199.1 237.66 199.81C237.29 200.02 236.89 200.12 236.48 200.12ZM237.51 178.7C236.01 180.01 233.01 183.3 233.01 188.63C233.01 193.82 234.49 197.4 235.95 198.26C236.39 198.52 236.67 198.42 236.85 198.32C237.68 197.86 238.28 196.96 238.45 195.9C238.64 194.78 238.33 193.66 237.59 192.83C237.31 192.51 236.72 191.85 237.02 191.13C237.31 190.42 238.08 190.37 238.89 190.32C240.18 190.23 241.3 190.08 241.9 189.08L237.51 178.7Z" fill="#2F2F2F"/>
<path d="M195.17 363.82C195.16 363.82 195.14 363.82 195.13 363.82L195.17 362.12C194.9 362.12 194.72 362.29 194.67 362.37C195.29 361.22 194.96 350.83 192.09 334.22C190.24 323.51 186.04 303.03 178.61 286.16C166.28 258.13 166.31 235.68 170.46 224.02L172.06 224.59C168.02 235.94 168.03 257.9 180.17 285.47C187.72 302.62 191.96 323.39 193.82 334.25C195.03 341.31 195.93 348.23 196.36 353.73C196.74 358.61 196.65 360.95 196.47 362.12H221.8C221.76 360.68 222.05 357.72 223.17 351.34C224.39 344.42 226.27 335.4 228.47 325.96C233.87 302.73 239.72 282.88 244.13 272.85C249.66 260.28 248.65 247.91 246.84 239.75C244.87 230.87 241.53 224.9 241.5 224.84L242.98 224C243.12 224.25 246.46 230.21 248.49 239.33C250.37 247.75 251.41 260.52 245.69 273.54C239.52 287.57 232.94 314.35 230.4 325.21C225.72 345.19 223.1 360.41 223.52 362.45L225.1 363.83H195.2C195.18 363.82 195.17 363.82 195.17 363.82Z" fill="#2F2F2F"/>
<path d="M205.96 252.33H204.26V362.98H205.96V252.33Z" fill="#2F2F2F"/>
<path d="M196.98 139.37C195.55 139.73 192.33 150.82 193.95 156.23C193.95 156.24 190.43 144.23 196.98 139.37Z" fill="#E89221"/>
<path d="M223.76 362.96L224.27 371.92C224.27 371.92 203.59 375.78 197.6 377.34C191.61 378.9 191.84 366.25 205.45 364.01L223.76 362.96Z" fill="#2F2F2F"/>
<g opacity="0.33">
<path opacity="0.33" d="M213.49 46.1997L198.23 71.7097C198.23 71.7097 201.52 77.1697 203.8 78.1197L219.61 52.6997C219.62 52.7097 217.02 47.0597 213.49 46.1997Z" fill="#8B8B8B"/>
</g>
<g opacity="0.33">
<path opacity="0.33" d="M184.37 46.1997L169.11 71.7097C169.11 71.7097 172.4 77.1697 174.68 78.1197L190.49 52.6997C190.5 52.7097 187.9 47.0597 184.37 46.1997Z" fill="#8B8B8B"/>
</g>
<path d="M179.39 80.2899C171.9 80.2899 165.8 72.0699 165.8 61.9699C165.8 51.8699 171.9 43.6499 179.39 43.6499C186.88 43.6499 192.98 51.8699 192.98 61.9699C192.98 72.0699 186.88 80.2899 179.39 80.2899ZM179.39 45.3499C172.83 45.3499 167.5 52.8099 167.5 61.9699C167.5 71.1299 172.83 78.5899 179.39 78.5899C185.95 78.5899 191.28 71.1299 191.28 61.9699C191.28 52.8099 185.94 45.3499 179.39 45.3499Z" fill="#F42706"/>
<path d="M208.87 80.41C201.38 80.41 195.28 72.19 195.28 62.09C195.28 51.99 201.38 43.77 208.87 43.77C216.36 43.77 222.46 51.99 222.46 62.09C222.46 72.19 216.36 80.41 208.87 80.41ZM208.87 45.47C202.31 45.47 196.98 52.93 196.98 62.09C196.98 71.25 202.31 78.71 208.87 78.71C215.43 78.71 220.76 71.25 220.76 62.09C220.76 52.93 215.43 45.47 208.87 45.47Z" fill="#F42706"/>
<path d="M192.55 62.5001L191.46 61.1901C191.65 61.0301 193.35 59.6701 195.01 60.0501C195.59 60.1801 196.38 60.5801 196.91 61.7301L195.36 62.4301C195.07 61.8001 194.74 61.7201 194.63 61.7001C193.91 61.5501 192.86 62.2401 192.55 62.5001Z" fill="#F42706"/>
<path d="M129.8 242.18H14.78C8.83 242.18 4 237.36 4 231.4V89.0598C4 83.1098 8.83 78.2798 14.78 78.2798H129.8C135.75 78.2798 140.58 83.1098 140.58 89.0598V231.4C140.58 237.36 135.76 242.18 129.8 242.18Z" fill="#CCD2D9"/>
<path d="M74.85 116.68C88.73 116.46 101.06 123.51 108.21 134.3L110.19 133.11C102.63 121.64 89.55 114.14 74.82 114.37C51.91 114.74 33.58 133.67 33.94 156.58C34.31 179.49 53.24 197.82 76.15 197.46C99.06 197.09 117.4 178.16 117.03 155.25C116.92 148.39 115.13 141.94 112.09 136.28L110.11 137.47C112.95 142.79 114.62 148.84 114.72 155.28C115.07 176.92 97.74 194.8 76.11 195.14C54.48 195.49 36.59 178.17 36.25 156.53C35.9 134.91 53.22 117.03 74.85 116.68Z" fill="#616E7D"/>
<path d="M75.0301 128.12C84.7101 127.96 93.3101 132.79 98.4101 140.22L106.35 135.42C99.5901 125.27 87.9801 118.65 74.8801 118.86C54.4101 119.19 38.0801 136.05 38.4101 156.51C38.7401 176.98 55.6001 193.31 76.0601 192.98C96.5301 192.65 112.85 175.79 112.53 155.33C112.43 149.28 110.88 143.6 108.24 138.6L100.27 143.41C102.11 147.05 103.2 151.13 103.27 155.47C103.52 170.82 91.2701 183.47 75.9201 183.71C60.5701 183.96 47.9301 171.71 47.6801 156.36C47.4401 141.01 59.6801 128.37 75.0301 128.12Z" fill="#616E7D"/>
<path d="M75.33 146.66C78.18 146.61 80.74 147.86 82.47 149.85L90.45 145.03C87.02 140.32 81.44 137.29 75.17 137.39C64.94 137.55 56.77 145.98 56.94 156.22C57.1 166.45 65.54 174.62 75.77 174.45C86.01 174.29 94.17 165.86 94.01 155.62C93.97 152.97 93.36 150.47 92.33 148.21L84.3 153.06C84.58 153.91 84.73 154.82 84.75 155.77C84.83 160.89 80.75 165.1 75.63 165.18C70.52 165.26 66.3 161.18 66.22 156.06C66.13 150.95 70.21 146.74 75.33 146.66Z" fill="#616E7D"/>
<path d="M128.67 132.52C129.04 132.71 129.49 132.7 129.84 132.49L131.06 131.75C131.24 131.64 131.35 131.44 131.35 131.22C131.35 131 131.22 130.81 131.03 130.71L125.38 127.73L126.01 127.35C126.14 127.27 126.24 127.13 126.28 126.98C126.32 126.83 126.29 126.66 126.21 126.53L125.42 125.25C125.25 124.97 124.88 124.89 124.6 125.05L123.95 125.45L123.81 119.13C123.8 118.92 123.69 118.72 123.5 118.62C123.31 118.52 123.09 118.52 122.9 118.63L121.69 119.36C121.33 119.58 121.11 119.98 121.12 120.4L121.27 127.06L120.95 127.26L120.81 120.94C120.81 120.73 120.69 120.53 120.5 120.43C120.32 120.33 120.09 120.33 119.9 120.44L118.69 121.17C118.32 121.39 118.11 121.79 118.12 122.21L118.27 128.87L117.94 129.07L117.8 122.75C117.8 122.54 117.68 122.34 117.49 122.24C117.31 122.14 117.08 122.14 116.89 122.25L115.68 122.98C115.32 123.2 115.1 123.6 115.11 124.02L115.24 129.7C115.24 129.91 115.13 130.11 114.96 130.22L110.2 133.09L108.22 134.28L106.37 135.4L98.43 140.2L90.47 145L82.49 149.82L76.72 153.3C75.8 153.86 75.53 155.07 76.11 155.97L76.2 156.11C76.68 156.84 77.66 157.07 78.4 156.61L84.31 153.04L92.34 148.19L100.29 143.39L108.26 138.58L110.12 137.46L112.1 136.27L116.85 133.4C117.03 133.29 117.25 133.29 117.43 133.38L122.67 136.14C123.04 136.33 123.48 136.32 123.84 136.11L125.06 135.37C125.24 135.26 125.35 135.06 125.35 134.84C125.34 134.62 125.22 134.43 125.03 134.33L119.38 131.35L119.69 131.16L125.68 134.31C126.05 134.51 126.49 134.49 126.85 134.28L128.07 133.54C128.25 133.43 128.36 133.23 128.36 133.01C128.35 132.8 128.23 132.6 128.04 132.5L122.39 129.53L122.7 129.34L128.67 132.52Z" fill="#FEB449"/>
<path d="M104.78 82.9902L104.43 79.2602C104.43 79.2602 104.44 79.2702 104.42 79.2502C104.41 79.2402 104.4 79.2202 104.38 79.2002C104.4 79.2202 104.41 79.2402 104.42 79.2502C104.24 78.9902 99.75 72.4502 93.05 72.4502C86.22 72.4502 79.39 72.4502 72.56 79.2802C65.73 86.1102 79.39 79.2802 79.39 79.2802C79.39 79.2802 72.56 86.1102 86.22 79.2802C86.22 79.2802 86.22 85.7702 92.56 79.7602L104.78 82.9902ZM104.35 79.1602C104.34 79.1502 104.33 79.1302 104.32 79.1202C104.33 79.1302 104.34 79.1502 104.35 79.1602ZM103.97 78.7002C103.96 78.6902 103.95 78.6802 103.95 78.6702C103.96 78.6802 103.97 78.6902 103.97 78.7002ZM103.81 78.5202C103.8 78.5102 103.78 78.4902 103.77 78.4802C103.78 78.4902 103.8 78.5102 103.81 78.5202ZM103.63 78.3302C103.61 78.3102 103.6 78.3002 103.58 78.2802C103.59 78.3002 103.61 78.3102 103.63 78.3302ZM102.67 77.5002C102.64 77.4802 102.6 77.4502 102.57 77.4302C102.6 77.4602 102.63 77.4802 102.67 77.5002ZM103.42 78.1302C103.4 78.1102 103.38 78.0902 103.36 78.0702C103.38 78.0902 103.4 78.1102 103.42 78.1302ZM103.19 77.9202C103.17 77.9002 103.14 77.8802 103.11 77.8602C103.14 77.8802 103.17 77.9002 103.19 77.9202ZM102.94 77.7102C102.91 77.6902 102.88 77.6602 102.85 77.6402C102.88 77.6702 102.91 77.6902 102.94 77.7102ZM99.32 76.2602C99.25 76.2602 99.19 76.2502 99.12 76.2502C99.19 76.2502 99.25 76.2502 99.32 76.2602ZM102.37 77.3002C102.33 77.2802 102.29 77.2502 102.26 77.2302C102.3 77.2502 102.34 77.2802 102.37 77.3002ZM102.06 77.1002C102.02 77.0802 101.98 77.0502 101.94 77.0302C101.98 77.0602 102.02 77.0802 102.06 77.1002ZM101.73 76.9202C101.69 76.9002 101.64 76.8702 101.59 76.8502C101.64 76.8802 101.68 76.9002 101.73 76.9202ZM101.37 76.7502C101.32 76.7302 101.27 76.7102 101.22 76.6902C101.27 76.7102 101.32 76.7302 101.37 76.7502ZM101 76.6002C100.95 76.5802 100.9 76.5602 100.84 76.5502C100.89 76.5602 100.95 76.5802 101 76.6002ZM100.6 76.4702C100.55 76.4502 100.49 76.4402 100.43 76.4202C100.49 76.4402 100.55 76.4602 100.6 76.4702ZM100.19 76.3702C100.13 76.3602 100.07 76.3502 100.01 76.3402C100.08 76.3502 100.14 76.3602 100.19 76.3702ZM99.76 76.3002C99.7 76.2902 99.64 76.2802 99.57 76.2802C99.64 76.2802 99.7 76.2902 99.76 76.3002ZM98.85 76.2502C98.78 76.2502 98.71 76.2502 98.64 76.2602C98.72 76.2602 98.79 76.2602 98.85 76.2502ZM98.37 76.2902C98.3 76.3002 98.23 76.3102 98.16 76.3202C98.23 76.3102 98.3 76.3002 98.37 76.2902ZM97.87 76.3702C97.8 76.3902 97.72 76.4002 97.65 76.4202C97.73 76.4002 97.8 76.3902 97.87 76.3702ZM97.36 76.5002C97.28 76.5202 97.21 76.5402 97.13 76.5702C97.21 76.5402 97.28 76.5202 97.36 76.5002ZM96.83 76.6802C96.75 76.7102 96.67 76.7402 96.59 76.7702C96.67 76.7402 96.75 76.7102 96.83 76.6802ZM96.28 76.9102C96.2 76.9502 96.12 76.9802 96.04 77.0302C96.12 76.9902 96.2 76.9502 96.28 76.9102ZM95.71 77.2102C95.63 77.2602 95.55 77.3002 95.47 77.3502C95.55 77.3002 95.63 77.2502 95.71 77.2102ZM95.13 77.5702C95.05 77.6202 94.97 77.6702 94.89 77.7302C94.97 77.6702 95.05 77.6202 95.13 77.5702ZM94.52 78.0002C94.44 78.0602 94.36 78.1102 94.29 78.1802C94.37 78.1102 94.45 78.0602 94.52 78.0002ZM93.88 78.5202C93.81 78.5802 93.74 78.6302 93.67 78.7002C93.75 78.6302 93.82 78.5802 93.88 78.5202Z" fill="#DD9F90"/>
<path d="M95.88 80.4701L106.29 78.3101L113.12 89.4701L95.88 80.4701Z" fill="#CCD2D9"/>
<g opacity="0.28">
<path opacity="0.28" d="M189.04 359.77C183.37 359.79 177.69 359.97 172.03 360.8C169.89 361.11 167.8 361.8 165.66 362.07C161.39 362.62 157.19 363.65 152.9 364.13C149.45 364.51 145.98 364.74 142.53 365.22C139.3 365.67 135.73 365.57 132.52 364.82C130.15 364.26 127.76 363.95 125.43 363.06C122.82 362.06 119.99 361.35 117.27 361.37C113.39 361.41 109.62 361.41 105.91 363.18C104.61 363.8 103.01 364.82 102.02 366.12C99.7601 369.1 99.4501 376.52 101.71 379.61C105.52 384.81 113.64 386.85 118.98 386.94C124.83 387.05 130.51 386.48 136.36 386.14C141.8 385.83 147.23 385.39 152.68 385.4C163.81 385.43 174.95 385.4 186.06 384.42C196.5 383.5 206.97 383.82 217.43 383.82C228.16 383.82 238.82 383.93 249.47 385.8C254.11 386.61 258.84 386.9 263.5 387.47C267.68 387.98 271.69 387.46 275.85 386.99C279.34 386.59 282.81 385.42 285.99 383.43C288.5 381.86 292.98 376.96 293.75 373.2C295.91 362.66 263.31 362.92 258.3 362.94C252.7 362.97 247.06 363.21 241.46 362.93C239.11 362.81 236.79 362.21 234.49 361.55C232.2 360.89 229.9 361.06 227.58 360.78C217.9 359.63 208.21 359.79 198.5 359.79C195.36 359.79 192.2 359.75 189.04 359.77Z" fill="#F1F2F2"/>
</g>
<rect x="67.5354" y="241" width="4" height="135" transform="rotate(17.9189 67.5354 241)" fill="#C4C4C4"/>
<rect width="4" height="135" transform="matrix(0.951493 -0.30767 -0.30767 -0.951493 109.535 370.682)" fill="#C4C4C4"/>
</g>
</g>
<defs>
<filter id="filter0_d_9_147" x="0" y="0" width="297.92" height="395.68" filterUnits="userSpaceOnUse" color-interpolation-filters="sRGB">
<feFlood flood-opacity="0" result="BackgroundImageFix"/>
<feColorMatrix in="SourceAlpha" type="matrix" values="0 0 0 0 0 0 0 0 0 0 0 0 0 0 0 0 0 0 127 0" result="hardAlpha"/>
<feOffset dy="4"/>
<feGaussianBlur stdDeviation="2"/>
<feComposite in2="hardAlpha" operator="out"/>
<feColorMatrix type="matrix" values="0 0 0 0 0 0 0 0 0 0 0 0 0 0 0 0 0 0 0.25 0"/>
<feBlend mode="normal" in2="BackgroundImageFix" result="effect1_dropShadow_9_147"/>
<feBlend mode="normal" in="SourceGraphic" in2="effect1_dropShadow_9_147" result="shape"/>
</filter>
<clipPath id="clip0_9_147">
<rect width="289.92" height="387.68" fill="white" transform="translate(4)"/>
</clipPath>
</defs>
</svg>
