<svg width="31" height="28" viewBox="0 0 31 28" fill="none" xmlns="http://www.w3.org/2000/svg">
<path d="M21.4451 21.2132C19.8133 21.2132 18.4902 22.5358 18.4902 24.1676C18.4902 25.7999 19.8129 27.1227 21.4447 27.1227C23.077 27.1227 24.3996 25.7999 24.3996 24.168C24.3981 22.5366 23.0761 21.2148 21.4451 21.2132ZM21.4451 25.7997C20.5436 25.7997 19.8133 25.0691 19.8133 24.168C19.8133 23.2668 20.5436 22.5362 21.4447 22.5362C22.3462 22.5358 23.0765 23.2668 23.0765 24.1676C23.0755 25.0685 22.3458 25.7982 21.4451 25.7997Z" fill="white"/>
<path d="M29.345 4.85431H5.87107L5.4582 3.17467C5.10162 1.70944 3.78622 0.680465 2.27857 0.686673H0.66826C0.302987 0.686673 0.00683594 0.982824 0.00683594 1.3483C0.00683594 1.71358 0.302987 2.00973 0.66826 2.00973H2.27857C3.17571 2.00248 3.96027 2.61341 4.17343 3.4851L7.38535 16.602C7.7438 18.0644 9.06023 19.0888 10.5656 19.0772H24.3048C25.8313 19.0894 27.1598 18.0362 27.4963 16.5476L29.9901 5.64756C30.0352 5.45385 29.9882 5.25021 29.8626 5.09561C29.7361 4.94019 29.5455 4.8512 29.345 4.85431ZM26.2068 16.2568C26.0052 17.142 25.2128 17.7659 24.3048 17.7541H10.5656C9.66971 17.7639 8.88473 17.1556 8.67074 16.2856L6.19475 6.17736H28.5149L26.2068 16.2568Z" fill="white"/>
<path d="M12.4969 21.2132C10.865 21.2132 9.54199 22.5358 9.54199 24.1676C9.54199 25.7999 10.8648 27.1227 12.4967 27.1227C14.1287 27.1227 15.4516 25.7999 15.4516 24.168C15.4501 22.5366 14.1281 21.2148 12.4969 21.2132ZM12.4969 25.7997C11.5956 25.7997 10.865 25.0691 10.865 24.168C10.865 23.2668 11.5956 22.5362 12.4967 22.5362C13.398 22.5358 14.1285 23.2668 14.1285 24.1676C14.1275 25.0685 13.3975 25.7982 12.4969 25.7997Z" fill="white"/>
</svg>
