<svg width="1605" height="984" viewBox="0 0 1605 984" fill="none" xmlns="http://www.w3.org/2000/svg">
<g filter="url(#filter0_d_4_76)">
<path d="M562 875.81C562 875.81 715 866.81 724 614.81C733 362.81 1055 630.81 1111 326.81C1167 22.8101 1471 353.81 1606 56.8101V875.81H562Z" fill="#D4ECF0"/>
<g opacity="0.4">
<path opacity="0.4" d="M1498.28 358.09C1503.69 358.82 1508.86 360.29 1513.78 362.48C1518.7 364.67 1522.95 367.51 1526.52 370.98C1530.1 374.46 1532.8 378.51 1534.63 383.16C1536.46 387.81 1537 392.95 1536.23 398.6C1535.61 403.21 1534.34 407.11 1532.44 410.31C1530.54 413.51 1528.29 416.31 1525.67 418.72C1523.06 421.12 1520.28 423.26 1517.33 425.15C1514.37 427.04 1511.58 428.83 1508.95 430.52C1506.32 432.22 1503.96 434.04 1501.88 435.98C1499.8 437.93 1498.42 440.15 1497.72 442.63C1497.32 443.87 1496.65 444.89 1495.72 445.7C1494.78 446.51 1493.69 446.83 1492.42 446.66L1479.29 444.88C1478.02 444.71 1476.96 444.1 1476.11 443.04C1475.25 441.99 1474.97 440.84 1475.26 439.58C1476.1 435.12 1477.58 431.3 1479.71 428.13C1481.84 424.96 1484.27 422.18 1487 419.79C1489.73 417.4 1492.59 415.3 1495.59 413.48C1498.59 411.66 1501.38 409.9 1503.96 408.19C1506.53 406.49 1508.71 404.73 1510.48 402.92C1512.25 401.11 1513.3 398.99 1513.62 396.57C1514.21 392.2 1512.86 388.35 1509.56 385.03C1506.25 381.71 1501.55 379.63 1495.45 378.81C1485.66 377.48 1477.8 381.4 1471.87 390.57C1471.12 391.76 1470.39 392.63 1469.67 393.17C1468.95 393.72 1467.84 393.89 1466.35 393.69L1452.36 391.79C1451.32 391.65 1450.48 391.18 1449.82 390.39C1449.16 389.6 1448.91 388.63 1449.07 387.48C1449.73 383.46 1451.53 379.51 1454.46 375.63C1457.39 371.75 1461.07 368.38 1465.5 365.51C1469.94 362.65 1474.98 360.49 1480.63 359.03C1486.3 357.58 1492.18 357.26 1498.28 358.09ZM1491.89 457.14C1493.15 457.31 1494.19 457.92 1494.98 458.97C1495.78 460.02 1496.09 461.17 1495.92 462.44L1493.86 477.64C1493.69 478.91 1493.08 479.94 1492.03 480.74C1490.98 481.54 1489.83 481.85 1488.56 481.68L1473.7 479.67C1472.43 479.5 1471.4 478.89 1470.61 477.84C1469.81 476.79 1469.5 475.64 1469.67 474.37L1471.73 459.17C1471.9 457.9 1472.51 456.87 1473.56 456.08C1474.6 455.28 1475.76 454.97 1477.03 455.14L1491.89 457.14Z" stroke="#938FFD" stroke-miterlimit="10" stroke-linecap="round" stroke-linejoin="round"/>
</g>
<path d="M1558.56 661.09C1558.63 658.77 1557.04 656.71 1554.77 656.19L1530.9 650.72C1530.5 645.96 1529.71 641.27 1528.54 636.68L1549.27 623.69C1551.25 622.45 1552.07 619.99 1551.23 617.81C1545.92 603.88 1538.03 591.3 1527.8 580.45C1526.21 578.75 1523.64 578.42 1521.65 579.66L1500.93 592.66C1497.31 589.61 1493.42 586.85 1489.32 584.42L1494.79 560.55C1495.31 558.28 1494.15 555.95 1492.03 555.01C1478.43 548.92 1463.93 545.6 1449.04 545.16C1446.72 545.09 1444.66 546.68 1444.14 548.95L1438.67 572.82C1433.91 573.22 1429.21 574.01 1424.62 575.18L1411.62 554.45C1410.37 552.46 1407.92 551.65 1405.74 552.48C1391.8 557.8 1379.24 565.68 1368.38 575.91C1366.69 577.52 1366.36 580.08 1367.6 582.06L1380.6 602.79C1377.55 606.41 1374.79 610.29 1372.36 614.4L1348.49 608.93C1346.22 608.41 1343.89 609.57 1342.94 611.69C1339.89 618.49 1337.52 625.56 1335.89 632.7C1334.26 639.84 1333.31 647.24 1333.09 654.68C1333.02 657 1334.61 659.06 1336.88 659.58L1360.75 665.05C1361.15 669.81 1361.94 674.5 1363.11 679.09L1342.38 692.08C1340.4 693.32 1339.58 695.77 1340.41 697.96C1345.72 711.89 1353.6 724.46 1363.84 735.32C1365.44 737.04 1368.01 737.36 1369.99 736.11L1390.72 723.11C1394.34 726.16 1398.23 728.92 1402.34 731.35L1396.87 755.22C1396.35 757.49 1397.51 759.82 1399.63 760.76C1406.43 763.81 1413.5 766.18 1420.64 767.82C1427.78 769.46 1435.18 770.4 1442.63 770.62C1444.95 770.69 1447.01 769.1 1447.53 766.83L1453 742.96C1457.76 742.56 1462.45 741.77 1467.04 740.6L1480.03 761.33C1481.27 763.31 1483.72 764.14 1485.91 763.3C1499.84 757.99 1512.42 750.1 1523.27 739.87C1524.97 738.27 1525.3 735.7 1524.06 733.72L1511.06 713C1514.11 709.38 1516.87 705.5 1519.3 701.39L1543.17 706.86C1545.44 707.38 1547.77 706.22 1548.72 704.1C1551.77 697.3 1554.14 690.23 1555.78 683.09C1557.42 675.95 1558.34 668.53 1558.56 661.09ZM1477.94 670.89C1472.56 684.44 1458.11 693.51 1443.56 692.45C1443.55 692.45 1443.55 692.45 1443.55 692.45C1432.3 691.64 1422.41 685.73 1416.49 676.28C1410.56 666.83 1409.56 655.38 1413.72 644.87C1419.1 631.32 1433.55 622.25 1448.11 623.32C1449.97 623.45 1451.79 623.73 1453.57 624.14C1462.53 626.19 1470.23 631.61 1475.17 639.49C1481.09 648.93 1482.1 660.38 1477.94 670.89Z" fill="#C2C2FF"/>
<path d="M1369.49 483.448C1386.91 466.027 1386.91 437.781 1369.49 420.36C1352.07 402.939 1323.82 402.939 1306.4 420.36C1288.98 437.781 1288.98 466.027 1306.4 483.448C1323.82 500.869 1352.07 500.869 1369.49 483.448Z" fill="#2E317B"/>
<path d="M1019.1 853.09C1025.28 864.16 1036.97 871.02 1049.65 871.02H1483.83C1496.51 871.02 1508.19 864.16 1514.38 853.1C1520.56 842.03 1520.28 828.48 1513.63 817.69L1394.88 624.85C1385.9 610.26 1367.94 604.6 1352.51 610.57C1298.17 585.31 1235.32 585.31 1180.97 610.57C1165.54 604.61 1147.59 610.26 1138.6 624.85L1019.85 817.69C1013.21 828.48 1012.92 842.02 1019.1 853.09ZM1421.19 801.04H1377.64V730.32L1421.19 801.04ZM1112.29 801.04L1155.84 730.32V801.04H1112.29Z" fill="#FEB449"/>
<path d="M1247.01 645.8H1286.46C1292.74 645.8 1297.82 640.71 1297.82 634.44V509.8H1235.64V634.44C1235.65 640.72 1240.74 645.8 1247.01 645.8Z" fill="#E19B00"/>
<path d="M1247.01 632.69H1286.46C1292.74 632.69 1297.82 627.6 1297.82 621.33V496.68H1235.64V621.32C1235.65 627.6 1240.74 632.69 1247.01 632.69Z" fill="#FF9E9B"/>
<path opacity="0.5" d="M1297.83 572.83C1297.83 590 1283.91 603.92 1266.74 603.92C1249.57 603.92 1235.65 590 1235.65 572.83V504.7H1297.83V572.83Z" fill="#FF9E9B"/>
<path d="M1292.94 871.02H1403.63V870.46C1403.63 839.89 1378.85 815.11 1348.28 815.11C1317.71 815.11 1292.93 839.89 1292.93 870.46V871.02H1292.94Z" fill="#E19B00"/>
<path d="M1271.43 577.04C1307.79 574.1 1334.87 542.24 1331.93 505.88L1323.55 402.32L1191.89 412.97L1200.27 516.53C1203.21 552.9 1235.07 579.99 1271.43 577.04Z" fill="#FF9E9B"/>
<path d="M1275.08 489.88C1277.47 489.88 1279.4 487.691 1279.4 484.99C1279.4 482.289 1277.47 480.1 1275.08 480.1C1272.69 480.1 1270.76 482.289 1270.76 484.99C1270.76 487.691 1272.69 489.88 1275.08 489.88Z" fill="#2E317B"/>
<path d="M1222.05 489.88C1224.44 489.88 1226.37 487.691 1226.37 484.99C1226.37 482.289 1224.44 480.1 1222.05 480.1C1219.66 480.1 1217.73 482.289 1217.73 484.99C1217.73 487.691 1219.66 489.88 1222.05 489.88Z" fill="#2E317B"/>
<path d="M1285.99 522.06C1286.57 530.03 1282.93 537.63 1276.01 541.22C1269.09 544.81 1260.78 543.41 1254.6 538.35L1285.99 522.06Z" fill="white"/>
<path d="M1280.42 871.02H1381.47V870.51C1381.47 842.61 1358.85 819.99 1330.95 819.99C1303.05 819.99 1280.43 842.61 1280.43 870.51V871.02H1280.42Z" fill="#FF9E9B"/>
<path d="M1266.49 871.02H1333.66V849.37C1333.66 842.59 1328.16 837.09 1321.38 837.09H1278.76C1271.98 837.09 1266.48 842.59 1266.48 849.37V871.02H1266.49Z" fill="#5142B2"/>
<path d="M922.21 871.02H1229.27C1242.65 871.02 1253.5 860.17 1253.5 846.79H897.99C897.99 860.17 908.83 871.02 922.21 871.02Z" fill="#7C7EFD"/>
<path d="M890.97 846.79H1136.56C1143.5 846.79 1148.63 840.33 1147.05 833.57L1109.71 673.22C1108.57 668.34 1104.23 664.89 1099.22 664.89H853.63C846.69 664.89 841.56 671.35 843.14 678.11L880.48 838.46C881.61 843.34 885.96 846.79 890.97 846.79Z" fill="#5142B2"/>
<path d="M882.5 846.79H1128.09C1135.03 846.79 1140.16 840.33 1138.58 833.57L1101.24 673.22C1100.1 668.34 1095.76 664.89 1090.75 664.89H845.16C838.22 664.89 833.09 671.35 834.67 678.11L872 838.46C873.14 843.34 877.49 846.79 882.5 846.79Z" fill="#938FFD"/>
<path d="M983.96 784.34C999.7 784.34 1012.46 771.58 1012.46 755.84C1012.46 740.1 999.7 727.34 983.96 727.34C968.22 727.34 955.46 740.1 955.46 755.84C955.46 771.58 968.22 784.34 983.96 784.34Z" fill="#A6A5FB"/>
<path d="M1265.01 344.13C1221.7 338.29 1181.06 374.6 1174.22 425.24L1331.05 446.4C1337.89 395.75 1308.32 349.97 1265.01 344.13Z" fill="#2E317B"/>
<path d="M1199.91 458.93C1216.31 461.14 1231.39 449.64 1233.61 433.25L1174.23 425.24C1172.01 441.63 1183.51 456.71 1199.91 458.93Z" fill="#2E317B"/>
<path d="M1260.03 449.83C1289.1 462.36 1318.87 458.11 1326.53 440.34L1221.26 394.97C1213.61 412.74 1230.96 437.3 1260.03 449.83Z" fill="#2E317B"/>
<path d="M1356.36 486.76C1359.26 499.68 1351.15 512.5 1338.23 515.4C1325.31 518.3 1312.49 510.19 1309.59 497.27C1306.69 484.35 1314.8 471.53 1327.72 468.63C1340.63 465.73 1353.46 473.84 1356.36 486.76Z" fill="#FF9E9B"/>
<path opacity="0.5" d="M1254.51 481.6C1254.51 481.6 1250.42 507.88 1240.54 517C1250.02 521.28 1252.02 517 1252.02 517" stroke="#FF9E9B" stroke-width="0.9114" stroke-miterlimit="10"/>
<path d="M1222.98 467.98C1220.04 467.69 1217.08 468.09 1214.32 469.13C1212.77 469.71 1210.89 469.28 1210.01 467.86C1209.13 466.45 1210.04 464.32 1212.18 463.51C1215.81 462.13 1219.71 461.61 1223.57 461.99C1225.85 462.21 1227.28 464.04 1226.81 465.62C1226.33 467.22 1224.63 468.13 1222.98 467.98Z" fill="#2E317B"/>
<path d="M1276.63 467.98C1279.57 467.69 1282.53 468.09 1285.29 469.13C1286.84 469.71 1288.72 469.28 1289.6 467.86C1290.48 466.45 1289.57 464.32 1287.43 463.51C1283.8 462.13 1279.9 461.61 1276.04 461.99C1273.76 462.21 1272.33 464.04 1272.8 465.62C1273.28 467.22 1274.99 468.13 1276.63 467.98Z" fill="#2E317B"/>
<path d="M1338.6 416.712C1350.6 411.168 1355.83 396.949 1350.28 384.952C1344.74 372.956 1330.52 367.726 1318.52 373.27C1306.53 378.814 1301.3 393.033 1306.84 405.03C1312.39 417.026 1326.61 422.257 1338.6 416.712Z" fill="#2E317B"/>
<path d="M1238.6 398.48C1235.72 419.85 1216.05 434.84 1194.68 431.96C1173.31 429.08 1158.32 409.41 1161.2 388.04C1164.08 366.67 1183.75 351.68 1205.12 354.56C1226.49 357.45 1241.48 377.11 1238.6 398.48Z" fill="#2E317B"/>
<path d="M1344.2 489.49C1345.59 495.69 1341.7 501.84 1335.5 503.23C1329.3 504.62 1323.15 500.73 1321.76 494.53C1320.37 488.33 1324.26 482.18 1330.46 480.79C1336.65 479.4 1342.8 483.3 1344.2 489.49Z" fill="#2E317B"/>
<path d="M1304.94 538.77C1316.01 537.53 1325.85 530.39 1330.47 520.25C1334.61 511.16 1333.39 501.35 1332.7 491.72" stroke="white" stroke-width="1.7126" stroke-miterlimit="10" stroke-linecap="round" stroke-linejoin="round"/>
<path d="M1307.55 544.02L1289.86 545.4C1287.14 545.61 1284.75 543.58 1284.54 540.85C1284.33 538.12 1286.36 535.74 1289.09 535.53L1306.78 534.15L1307.55 544.02Z" fill="#2E317B"/>
<path d="M1339.76 490.56C1340.62 494.41 1338.21 498.23 1334.36 499.09C1330.51 499.95 1326.69 497.54 1325.83 493.69C1324.96 489.84 1327.38 486.02 1331.23 485.16C1335.07 484.29 1338.89 486.71 1339.76 490.56Z" stroke="white" stroke-width="0.2441" stroke-miterlimit="10" stroke-linecap="round" stroke-linejoin="round"/>
<g opacity="0.4">
<path opacity="0.4" d="M964.16 570.12L1066.02 523.95L1035.91 592.97L964.16 570.12Z" stroke="#938FFD" stroke-miterlimit="10" stroke-linecap="round" stroke-linejoin="round"/>
<path opacity="0.4" d="M1066.02 523.95L1094 585.69L992.14 631.86L964.16 570.12" stroke="#938FFD" stroke-miterlimit="10" stroke-linecap="round" stroke-linejoin="round"/>
<path opacity="0.4" d="M1041.95 579.12L1094 585.69L1066.02 523.95" stroke="#938FFD" stroke-miterlimit="10" stroke-linecap="round" stroke-linejoin="round"/>
<path opacity="0.4" d="M1021.51 588.38L992.14 631.86L964.16 570.12" stroke="#938FFD" stroke-miterlimit="10" stroke-linecap="round" stroke-linejoin="round"/>
</g>
<path d="M1606 870.45H482.88C478.65 870.45 475.22 873.88 475.22 878.11C475.22 882.34 478.65 885.77 482.88 885.77H1606V870.45Z" fill="#2E317B"/>
<path d="M805.05 770.88H804.82C804.82 777.31 799.61 782.53 793.17 782.53V782.76C799.6 782.76 804.82 787.97 804.82 794.41H805.05C805.05 787.98 810.26 782.76 816.7 782.76V782.53C810.26 782.53 805.05 777.31 805.05 770.88Z" fill="#938FFD"/>
<path d="M1409.73 327.39H1409.5C1409.5 333.82 1404.29 339.04 1397.85 339.04V339.27C1404.28 339.27 1409.5 344.48 1409.5 350.92H1409.73C1409.73 344.49 1414.94 339.27 1421.38 339.27V339.04C1414.95 339.03 1409.73 333.82 1409.73 327.39Z" fill="#938FFD"/>
<path d="M771.79 750.5C771.79 752.49 770.17 754.11 768.18 754.11C766.19 754.11 764.57 752.49 764.57 750.5C764.57 748.51 766.19 746.89 768.18 746.89C770.17 746.89 771.79 748.51 771.79 750.5Z" fill="#938FFD"/>
<path d="M959.69 246.26C961.684 246.26 963.3 244.644 963.3 242.65C963.3 240.656 961.684 239.04 959.69 239.04C957.696 239.04 956.08 240.656 956.08 242.65C956.08 244.644 957.696 246.26 959.69 246.26Z" fill="#938FFD"/>
<path d="M877.18 468.78C877.18 470.77 875.56 472.39 873.57 472.39C871.58 472.39 869.96 470.77 869.96 468.78C869.96 466.79 871.58 465.17 873.57 465.17C875.56 465.17 877.18 466.79 877.18 468.78Z" fill="#938FFD"/>
<path d="M1383.81 320.4C1385.8 320.4 1387.42 318.784 1387.42 316.79C1387.42 314.796 1385.8 313.18 1383.81 313.18C1381.82 313.18 1380.2 314.796 1380.2 316.79C1380.2 318.784 1381.82 320.4 1383.81 320.4Z" fill="#938FFD"/>
<path d="M1477.53 295.18C1477.53 297.17 1475.91 298.79 1473.92 298.79C1471.93 298.79 1470.31 297.17 1470.31 295.18C1470.31 293.19 1471.93 291.57 1473.92 291.57C1475.92 291.57 1477.53 293.19 1477.53 295.18Z" fill="#938FFD"/>
<path d="M1569.26 434.41C1569.26 436.4 1567.64 438.02 1565.65 438.02C1563.66 438.02 1562.04 436.4 1562.04 434.41C1562.04 432.42 1563.66 430.8 1565.65 430.8C1567.65 430.8 1569.26 432.41 1569.26 434.41Z" fill="#938FFD"/>
<path d="M1015.39 361.28C1009.4 333.43 986.19 311.7 958 307.51C955.56 307.15 953.14 306.86 950.7 306.53C948.45 306.53 946.2 306.53 943.92 306.53C941.51 306.86 939.04 307.13 936.62 307.51C906.31 312.1 882.33 336.37 878.2 366.62C873.18 403.54 896.97 437.3 933.45 444.86C936.42 445.49 939.47 445.66 942.5 446.08C942.98 446.14 943.45 446.27 943.92 446.38C946.2 446.38 948.45 446.38 950.7 446.38C953.14 446.05 955.56 445.76 958 445.41C987.46 441.01 1011.37 417.45 1016.09 388.17C1016.41 386.12 1016.73 384.08 1017.05 382.05C1017.05 378.32 1017.05 374.61 1017.05 370.89C1016.52 367.67 1016.09 364.45 1015.39 361.28ZM991.33 402.68C990.71 403.87 985.03 413.4 982.6 415.74C980.22 418.01 976.99 418.8 974.5 418.8C974.24 418.8 973.98 418.79 973.73 418.77C970.3 418.53 947.71 410.94 932.18 393.9C916.64 376.86 911.18 353.67 911.25 350.23C911.3 347.66 912.34 344.07 915.08 341.7C917.64 339.48 927.72 334.67 928.9 334.2C930.03 333.76 932.37 332.81 934.24 335.28C934.96 336.23 946.6 354.72 947.16 356.85C947.48 358.1 947.41 360.01 945.21 362.03C944.25 362.9 934.84 368.78 934.43 369.02C934.13 369.2 933.95 369.32 933.88 369.4C933.89 369.41 933.9 369.57 933.98 369.86C934.33 371.09 938.64 379.35 942.95 384.08C947.26 388.81 955.09 393.86 956.28 394.31C956.67 394.46 956.8 394.44 956.79 394.44C956.82 394.4 957.08 394.05 957.17 393.94C957.42 393.6 964.15 384.74 965.11 383.86C967.33 381.86 969.24 381.96 970.45 382.39C972.46 383.12 989.85 396.42 990.74 397.24C993.03 399.37 991.88 401.61 991.33 402.68Z" fill="#D8D8FF"/>
<path d="M926.66 246.04H926.39C926.39 253.56 920.29 259.66 912.77 259.66V259.93C920.29 259.93 926.39 266.03 926.39 273.55H926.66C926.66 266.03 932.76 259.93 940.28 259.93V259.66C932.76 259.66 926.66 253.56 926.66 246.04Z" fill="#938FFD"/>
<path d="M738.7 415.91H738.43C738.43 423.43 732.33 429.53 724.81 429.53V429.8C732.33 429.8 738.43 435.9 738.43 443.42H738.7C738.7 435.9 744.8 429.8 752.32 429.8V429.53C744.8 429.54 738.7 423.44 738.7 415.91Z" fill="#938FFD"/>
<path d="M1104.62 249.42C1104.46 248.93 1104.01 248.6 1103.5 248.6H1091.7L1088.06 237.38C1087.9 236.89 1087.45 236.56 1086.94 236.56C1086.43 236.56 1085.97 236.89 1085.82 237.38L1082.18 248.6H1070.38C1069.87 248.6 1069.41 248.93 1069.26 249.42C1069.1 249.91 1069.28 250.44 1069.69 250.74L1079.23 257.67L1075.59 268.89C1075.43 269.38 1075.61 269.91 1076.02 270.21C1076.44 270.51 1076.99 270.51 1077.41 270.21L1086.95 263.28L1096.49 270.21C1096.7 270.36 1096.94 270.44 1097.18 270.44C1097.42 270.44 1097.67 270.37 1097.87 270.21C1098.28 269.91 1098.46 269.38 1098.3 268.89L1094.66 257.67L1104.2 250.74C1104.6 250.44 1104.77 249.91 1104.62 249.42Z" fill="#938FFD"/>
<path d="M1157.85 249.42C1157.69 248.93 1157.24 248.6 1156.73 248.6H1144.93L1141.29 237.38C1141.13 236.89 1140.68 236.56 1140.17 236.56C1139.66 236.56 1139.2 236.89 1139.05 237.38L1135.41 248.6H1123.61C1123.1 248.6 1122.64 248.93 1122.49 249.42C1122.33 249.91 1122.51 250.44 1122.92 250.74L1132.46 257.67L1128.82 268.89C1128.66 269.38 1128.84 269.91 1129.25 270.21C1129.67 270.51 1130.22 270.51 1130.64 270.21L1140.18 263.28L1149.72 270.21C1149.93 270.36 1150.17 270.44 1150.41 270.44C1150.65 270.44 1150.9 270.37 1151.1 270.21C1151.51 269.91 1151.69 269.38 1151.53 268.89L1147.89 257.67L1157.43 250.74C1157.83 250.44 1158.01 249.91 1157.85 249.42Z" fill="#938FFD"/>
<path d="M1211.08 249.42C1210.92 248.93 1210.47 248.6 1209.96 248.6H1198.16L1194.52 237.38C1194.36 236.89 1193.91 236.56 1193.4 236.56C1192.89 236.56 1192.43 236.89 1192.28 237.38L1188.64 248.6H1176.84C1176.33 248.6 1175.87 248.93 1175.72 249.42C1175.56 249.91 1175.73 250.44 1176.15 250.74L1185.69 257.67L1182.05 268.89C1181.89 269.38 1182.07 269.91 1182.48 270.21C1182.9 270.51 1183.45 270.51 1183.87 270.21L1193.41 263.28L1202.95 270.21C1203.16 270.36 1203.4 270.44 1203.64 270.44C1203.88 270.44 1204.13 270.37 1204.33 270.21C1204.74 269.91 1204.92 269.38 1204.76 268.89L1201.12 257.67L1210.66 250.74C1211.07 250.44 1211.24 249.91 1211.08 249.42Z" fill="#938FFD"/>
<path opacity="0.4" d="M1264.32 249.42C1264.16 248.93 1263.71 248.6 1263.2 248.6H1251.4L1247.76 237.38C1247.6 236.89 1247.15 236.56 1246.64 236.56C1246.13 236.56 1245.67 236.89 1245.52 237.38L1241.88 248.6H1230.08C1229.57 248.6 1229.11 248.93 1228.96 249.42C1228.8 249.91 1228.98 250.44 1229.39 250.74L1238.93 257.67L1235.29 268.89C1235.13 269.38 1235.31 269.91 1235.72 270.21C1236.14 270.51 1236.69 270.51 1237.11 270.21L1246.65 263.28L1256.19 270.21C1256.4 270.36 1256.64 270.44 1256.88 270.44C1257.12 270.44 1257.37 270.37 1257.57 270.21C1257.98 269.91 1258.16 269.38 1258 268.89L1254.36 257.67L1263.9 250.74C1264.3 250.44 1264.48 249.91 1264.32 249.42Z" fill="#938FFD"/>
</g>
<defs>
<filter id="filter0_d_4_76" x="471.22" y="56.8101" width="1138.78" height="836.96" filterUnits="userSpaceOnUse" color-interpolation-filters="sRGB">
<feFlood flood-opacity="0" result="BackgroundImageFix"/>
<feColorMatrix in="SourceAlpha" type="matrix" values="0 0 0 0 0 0 0 0 0 0 0 0 0 0 0 0 0 0 127 0" result="hardAlpha"/>
<feOffset dy="4"/>
<feGaussianBlur stdDeviation="2"/>
<feComposite in2="hardAlpha" operator="out"/>
<feColorMatrix type="matrix" values="0 0 0 0 0 0 0 0 0 0 0 0 0 0 0 0 0 0 0.25 0"/>
<feBlend mode="normal" in2="BackgroundImageFix" result="effect1_dropShadow_4_76"/>
<feBlend mode="normal" in="SourceGraphic" in2="effect1_dropShadow_4_76" result="shape"/>
</filter>
</defs>
</svg>
