<svg width="462" height="300" viewBox="0 0 462 300" fill="none" xmlns="http://www.w3.org/2000/svg">
<path d="M447.995 180.4L286.563 273.689L284.648 274.776L283.477 275.462L280.39 277.264L278.503 278.351L277.303 279.037L274.216 280.81L272.33 281.897L271.129 282.583L268.042 284.385L266.156 285.472L264.955 286.158L240.975 300L0 160.782L207.02 41.1821L447.995 180.4Z" fill="#E7DAB2"/>
<path d="M145.197 121.83L93.3489 88.5987L226.055 11.9257L277.903 45.1859L145.197 121.83Z" fill="#E7DAB2"/>
<path d="M278.332 41.1821L389.573 135.3L403.55 127.207L292.308 33.1172L278.332 41.1821Z" fill="#E7E0DE"/>
<path d="M226.055 8.09342L278.332 41.1821L292.309 33.1173L240.032 0L226.055 8.09342Z" fill="#F7F5E0"/>
<path d="M403.55 127.207L462 160.982L448.023 169.047L389.573 135.3L403.55 127.207Z" fill="#F7F5E0"/>
<path d="M462 172.336V160.982L448.023 169.047V180.4L462 172.336Z" fill="#C8B7B0"/>
<path d="M389.573 135.3L448.023 169.047V180.4L391.317 147.655L277.903 45.1859L226.055 11.9257V8.09344L278.332 41.1821L389.573 135.3Z" fill="#9B8081"/>
<path d="M338.84 243.489L283.334 210.029L391.317 147.655L448.023 180.4L338.84 243.489Z" fill="#E7DAB2"/>
<path d="M169.92 107.56L283.334 210.029L391.317 147.655L277.903 45.1859L169.92 107.56Z" fill="#D0C39A"/>
<g style="mix-blend-mode:multiply">
<path d="M448.023 180.4H432.36L381.513 153.317L274.53 48.8465L220.453 14.8427L226.055 11.9257L277.903 45.1859L391.317 147.655L448.023 180.4Z" fill="#D9D4DE"/>
</g>
<path d="M155.629 114.824L266.87 208.913L280.847 200.848L169.606 106.759L155.629 114.824Z" fill="#E7E0DE"/>
<path d="M83.8596 71.1535L155.629 114.824L169.606 106.759L97.8362 63.0601L83.8596 71.1535Z" fill="#F7F5E0"/>
<path d="M280.847 200.848L338.84 232.135L324.835 240.2L266.87 208.913L280.847 200.848Z" fill="#F7F5E0"/>
<path d="M338.84 243.489V232.135L324.835 240.2V251.554L338.84 243.489Z" fill="#C8B7B0"/>
<path d="M266.87 208.913L324.835 240.2V251.554L83.8596 112.364V71.1534L155.629 114.824L266.87 208.913Z" fill="#9B8081"/>
<g style="mix-blend-mode:multiply">
<path d="M324.835 251.554H301.34L243.405 221.239L168.377 195.987L52.3909 130.524L83.8597 112.364L324.835 251.554Z" fill="#C3BBCB"/>
</g>
<path d="M261.954 287.989L20.9507 148.77L48.7896 132.755L289.793 271.973L261.954 287.989Z" fill="#FFB71A"/>
<path d="M286.563 273.689L284.648 274.776L45.7026 136.73V134.528L286.563 273.689Z" fill="#D98600"/>
<path d="M284.648 274.776L283.477 275.462L44.5022 137.417L45.7026 136.73L284.648 274.776Z" fill="#F29900"/>
<path d="M42.6157 136.301L45.7026 134.528V136.73L44.5021 137.417L42.6157 136.301Z" fill="#A8592C"/>
<path d="M280.39 277.264L278.503 278.351L39.5291 140.276V138.103L280.39 277.264Z" fill="#D98600"/>
<path d="M278.503 278.351L277.303 279.037L38.3286 140.963L39.5291 140.276L278.503 278.351Z" fill="#F29900"/>
<path d="M36.4136 139.876L39.5004 138.103V140.276L38.3286 140.963L36.4136 139.876Z" fill="#A8592C"/>
<path d="M274.216 280.81L272.33 281.897L33.3267 143.851V141.649L274.216 280.81Z" fill="#D98600"/>
<path d="M272.33 281.897L271.129 282.583L32.1262 144.538L33.3267 143.851L272.33 281.897Z" fill="#F29900"/>
<path d="M30.2397 143.451L33.3266 141.649V143.851L32.1262 144.538L30.2397 143.451Z" fill="#A8592C"/>
<path d="M268.042 284.385L266.156 285.472L27.1528 147.398V145.224L268.042 284.385Z" fill="#D98600"/>
<path d="M266.156 285.472L264.955 286.158L25.9524 148.084L27.1528 147.398L266.156 285.472Z" fill="#F29900"/>
<path d="M24.0376 146.997L27.153 145.224V147.398L25.9526 148.084L24.0376 146.997Z" fill="#A8592C"/>
<path style="mix-blend-mode:multiply" d="M193.643 224.9C193.643 224.385 189.013 223.098 189.013 223.098L188.642 223.07L147.14 203.851C155.458 198.561 155.172 190.381 146.312 185.234C141.193 182.631 135.533 181.275 129.791 181.275C124.05 181.275 118.389 182.631 113.271 185.234C104.182 190.496 104.239 199.018 113.271 204.309C117.832 206.613 122.821 207.945 127.923 208.221C133.024 208.496 138.128 207.71 142.91 205.91L186.727 226.358C186.715 226.473 186.715 226.587 186.727 226.702L190.557 228.961C191.1 229.275 192.3 228.275 192.872 227.188C193.407 226.549 193.683 225.732 193.643 224.9Z" fill="url(#paint0_linear_824_397)"/>
<path d="M141.881 187.207C141.134 186.2 140.447 185.149 139.823 184.061C139.566 183.375 138.337 182.831 138.337 182.831C136.99 183.499 135.683 184.244 134.421 185.062C133.964 185.52 132.563 186.778 132.563 186.778L131.22 186.95C131.22 186.95 129.191 185.834 128.791 185.033C128.577 184.276 128.577 183.474 128.791 182.717L129.105 180.801C128.464 181.442 127.983 182.226 127.705 183.089C127.705 184.061 127.533 186.12 127.533 186.12C127.395 186.8 127.395 187.5 127.533 188.179C127.829 188.839 128.255 189.433 128.785 189.924C129.316 190.415 129.94 190.795 130.62 191.039C132.449 191.754 132.306 191.325 133.478 192.183C135.434 194.006 137.649 195.529 140.052 196.702C142.092 197.327 144.272 197.327 146.311 196.702C147.109 196.119 147.83 195.437 148.455 194.671L148.712 192.44C148.437 191.58 148.103 190.739 147.712 189.924C147.312 189.638 141.881 187.207 141.881 187.207Z" fill="#F04340"/>
<path d="M130.934 192.498C130.934 192.498 129.791 188.751 129.134 188.751C127.524 188.872 125.952 189.299 124.503 190.01C123.589 190.61 121.302 191.754 121.302 191.754C120.713 191.411 120.174 190.988 119.701 190.496C119.448 189.729 119.303 188.93 119.273 188.122L119.501 186.606C119.501 186.606 118.93 186.406 118.815 186.606C118.482 188.001 118.234 189.414 118.072 190.839C118.072 191.554 118.072 193.07 118.072 193.07C118.603 194.18 119.245 195.234 119.987 196.215C120.541 196.831 121.057 197.481 121.531 198.16C122.288 199.979 123.51 201.567 125.075 202.765C126.889 203.87 129.036 204.295 131.134 203.966C133.085 204.043 135.008 203.491 136.622 202.393C137.01 201.976 137.251 201.444 137.308 200.877C137.388 199.863 137.116 198.853 136.536 198.017L130.934 192.498Z" fill="#F04340"/>
<path d="M159.288 122.974C159.018 124.035 158.498 125.015 157.773 125.834C157.394 126.196 156.947 126.478 156.458 126.664L155.801 126.463L155.543 126.664C155.261 126.895 154.942 127.079 154.6 127.207C154.433 127.171 154.282 127.081 154.171 126.949L153.828 126.664C153.745 126.694 153.654 126.694 153.571 126.664C153.285 126.664 153.057 126.521 152.942 126.177C152.927 126.112 152.927 126.043 152.942 125.977C152.893 125.649 152.964 125.313 153.142 125.033L153.686 123.947L154.057 122.231L153.485 123.375L153 124.347C152.855 124.62 152.672 124.87 152.457 125.091C152.256 125.234 152.056 125.234 151.942 125.091C151.93 125.034 151.93 124.976 151.942 124.919C151.799 124.519 152.428 122.974 152.457 122.431C152.485 121.888 152.457 119.113 152.457 119.113C151.729 117.552 150.879 116.05 149.913 114.623C148.655 112.936 146.168 102.698 144.797 100.01C143.585 95.7629 142.687 91.4328 142.11 87.0544C139.709 74.3565 137.708 57.1973 140.366 57.0258C144.396 57.0258 144.882 64.2326 144.825 65.6054C145.094 71.4486 145.686 77.2726 146.597 83.0505C148.033 86.5653 149.218 90.1779 150.141 93.8608C151.42 100.018 153.071 106.092 155.086 112.05C155.915 113.537 158.516 116.94 158.745 117.598C159.056 119.374 159.237 121.171 159.288 122.974Z" fill="url(#paint1_linear_824_397)"/>
<path d="M112.928 58.4843C112.928 58.4843 100.637 64.204 99.8943 65.4909C99.1511 66.7779 104.61 98.4366 105.439 100.925C106.268 103.413 118.415 96.0057 118.415 96.0057L128.619 73.8704C128.619 73.8704 118.473 56.3394 112.928 58.4843Z" fill="#42632A"/>
<path d="M156.915 125.062C156.618 125.451 156.351 125.862 156.115 126.292C156.115 126.292 156.258 126.578 156.458 126.778L155.801 126.578L155.543 126.778V126.578L155.915 125.577L156.63 124.461L156.144 123.661L155.658 124.061L154.629 126.292C154.629 126.292 154.229 126.721 154.257 127.064L153.914 126.778C153.88 126.608 153.88 126.433 153.914 126.263C154.086 125.863 154.715 124.662 154.715 124.662L155.172 123.317H154.257L153.686 124.347L152.914 126.206C152.898 126.14 152.898 126.072 152.914 126.006C152.864 125.677 152.935 125.342 153.114 125.062L153.657 123.975L154.029 122.259L153.457 123.403C153.513 123.217 153.513 123.018 153.457 122.831C153.371 122.693 153.265 122.567 153.143 122.459C152.8 122.827 152.511 123.241 152.285 123.689C152.285 123.889 152.056 124.519 151.942 124.976C151.93 124.92 151.93 124.861 151.942 124.805C151.799 124.404 152.428 122.86 152.457 122.316C152.485 121.773 152.457 118.999 152.457 118.999C151.729 117.437 150.879 115.936 149.913 114.509C148.655 112.822 146.169 102.583 144.797 99.8951C143.585 95.6485 142.687 91.3184 142.11 86.9399C142.996 86.3108 143.796 85.9676 143.939 86.5682C144.254 87.8265 145.14 96.1773 145.597 97.693C146.054 99.2088 149.57 103.041 150.227 108.217C150.885 113.394 150.942 113.937 151.342 114.509C151.742 115.081 152.342 118.112 154.2 118.513C156.058 118.913 156.401 116.597 156.401 116.597C156.401 116.597 157.287 117.826 157.401 118.084C157.516 118.341 158.03 121.23 158.03 121.23L158.344 122.803C158.344 122.803 157.201 124.747 156.915 125.062Z" fill="url(#paint2_linear_824_397)"/>
<path d="M156.458 124.204C156.56 124.229 156.667 124.232 156.77 124.211C156.874 124.191 156.971 124.147 157.056 124.084C157.141 124.021 157.211 123.941 157.26 123.848C157.31 123.755 157.339 123.652 157.344 123.546C157.344 122.717 156.687 120.686 156.715 119.428C156.744 118.17 156.715 116.94 156.715 116.94C156.569 115.957 156.3 114.996 155.915 114.08C155.552 113.305 154.923 112.686 154.143 112.336C154.143 112.336 152.085 112.622 151.799 113.279C151.78 114.833 152.272 116.351 153.2 117.598C153.726 118.096 154.204 118.641 154.629 119.228L155.258 121.23C155.543 122.031 155.458 122.431 155.658 123.06C155.826 123.502 156.101 123.895 156.458 124.204Z" fill="url(#paint3_linear_824_397)"/>
<path d="M137.908 152.088C137.908 152.088 136.479 168.961 136.937 174.337C136.878 177.516 137.481 180.672 138.709 183.603C139.795 185.806 136.622 188.751 136.622 188.751L134.336 187.979C132.592 187.436 130.391 186.749 129.677 186.435C129.154 186.111 128.749 185.628 128.522 185.056C128.296 184.484 128.26 183.854 128.419 183.26C128.857 181.868 129.125 180.427 129.219 178.97C129.146 174.704 128.57 170.461 127.505 166.33C126.362 161.713 125.938 156.948 126.247 152.202C126.247 146.482 127.819 129.638 129.677 128.208C130.74 127.536 131.883 126.998 133.078 126.606C135.565 125.634 138.394 124.805 138.394 124.805L143.711 123.546C143.064 129.961 141.937 136.318 140.338 142.564C139.269 145.667 138.457 148.852 137.908 152.088Z" fill="url(#paint4_linear_824_397)"/>
<path d="M134.879 186.063L134.25 187.979C132.506 187.436 130.305 186.749 129.591 186.435C129.068 186.111 128.663 185.628 128.437 185.056C128.21 184.484 128.174 183.854 128.333 183.26C128.771 181.868 129.039 180.427 129.134 178.97C129.06 174.704 128.484 170.461 127.419 166.33C126.276 161.713 125.852 156.948 126.161 152.202C126.161 146.482 127.733 129.638 129.591 128.208C130.654 127.536 131.797 126.998 132.992 126.606C133.485 126.983 133.897 127.456 134.201 127.997C134.506 128.538 134.698 129.135 134.764 129.752C134.478 131.983 131.906 146.454 131.677 149.228C131.449 152.002 128.619 160.153 128.619 162.212C128.619 164.271 130.048 175.51 130.048 175.51C130.048 175.51 130.277 180.429 130.048 181.23C129.819 182.031 129.791 184.862 130.363 185.262C131.839 185.67 133.351 185.938 134.879 186.063Z" fill="url(#paint5_linear_824_397)"/>
<path d="M141.881 186.034C141.129 185.021 140.441 183.961 139.823 182.86C139.566 182.202 138.337 181.659 138.337 181.659C136.99 182.315 135.682 183.05 134.421 183.861C133.964 184.347 132.563 185.577 132.563 185.577L131.22 185.748C131.22 185.748 129.191 184.633 128.791 183.832C128.577 183.075 128.577 182.273 128.791 181.516L129.105 179.628C128.458 180.253 127.976 181.029 127.705 181.888C127.705 182.86 127.533 184.948 127.533 184.948C127.395 185.627 127.395 186.327 127.533 187.007C127.832 187.665 128.258 188.257 128.788 188.748C129.319 189.239 129.941 189.619 130.62 189.867C132.449 190.61 132.306 190.181 133.478 191.01C135.434 192.834 137.649 194.357 140.052 195.529C142.092 196.154 144.272 196.154 146.311 195.529C147.105 194.931 147.825 194.239 148.455 193.47L148.712 191.268C148.442 190.405 148.108 189.564 147.712 188.751C147.312 188.437 141.881 186.034 141.881 186.034Z" fill="#E6E5E0"/>
<path d="M127.419 157.293C126.122 163.946 125.433 170.705 125.361 177.483C126.154 181.15 127.244 184.746 128.619 188.236C129.134 190.01 129.076 195.186 124.646 194.929C124.185 194.907 123.726 194.849 123.274 194.757C122.206 194.526 121.227 193.994 120.452 193.224C119.677 192.453 119.139 191.477 118.901 190.41C118.301 188.894 119.216 187.55 119.416 185.119C119.616 182.688 115.7 171.878 114.728 166.301C113.756 160.724 116.7 155.52 116.843 151.43C116.049 143.97 114.837 136.561 113.213 129.237L114.014 128.78L126.618 121.23C126.618 121.23 133.449 127.235 133.249 130.696C132.344 137.771 131.085 144.796 129.477 151.745C128.919 153.639 128.231 155.493 127.419 157.293Z" fill="url(#paint6_linear_824_397)"/>
<path d="M123.389 194.757C122.321 194.526 121.341 193.994 120.566 193.224C119.791 192.453 119.253 191.477 119.016 190.41C118.415 188.894 119.33 187.55 119.53 185.119C119.73 182.688 115.815 171.878 114.843 166.301C113.871 160.725 116.815 155.52 116.958 151.43C116.163 143.97 114.951 136.561 113.328 129.237L114.128 128.78C114.597 130.479 114.875 132.224 114.957 133.985C115.503 137.787 116.247 141.557 117.186 145.281C117.506 148.321 117.649 151.377 117.615 154.433C116.467 157.184 115.661 160.065 115.214 163.012C114.728 167.045 117.215 174.28 118.072 177.941C118.727 180.419 119.251 182.93 119.645 185.462L119.444 189.066L120.13 190.439L122.245 191.239C122.245 191.239 122.903 193.184 123.389 194.757Z" fill="url(#paint7_linear_824_397)"/>
<path d="M130.934 191.325C130.934 191.325 129.791 187.55 129.134 187.464C127.52 187.582 125.946 188.019 124.503 188.751C123.589 189.352 121.302 190.496 121.302 190.496C120.713 190.14 120.175 189.707 119.701 189.209C119.445 188.452 119.3 187.662 119.273 186.864L119.501 185.319C119.501 185.319 118.93 185.119 118.815 185.319C118.482 186.724 118.234 188.146 118.072 189.581C118.072 190.296 118.072 191.783 118.072 191.783C118.596 192.897 119.238 193.952 119.987 194.929C120.544 195.552 121.06 196.211 121.531 196.902C122.296 198.716 123.517 200.302 125.075 201.506C126.889 202.611 129.036 203.037 131.134 202.707C133.083 202.77 135.002 202.22 136.622 201.134C137.005 200.714 137.245 200.184 137.308 199.619C137.308 199.619 137.308 197.588 136.536 196.759L130.934 191.325Z" fill="#E6E5E0"/>
<path d="M152.142 123.203C151.863 125.126 150.994 126.915 149.656 128.322C147.769 129.781 137.594 133.298 134.307 135.014C132.616 135.76 130.825 136.251 128.991 136.473L126.933 136.73C124.648 137.033 122.349 137.215 120.045 137.274C116.747 136.959 113.472 136.434 110.241 135.701H109.183C107.583 135.701 107.526 133.327 107.526 132.841C107.643 128.059 108.006 123.286 108.612 118.541C109.155 116.883 109.612 109.962 111.013 107.903C112.413 105.844 113.099 101.611 114.757 100.467C119.078 99.456 123.476 98.8055 127.905 98.5224C135.05 97.7788 142.424 97.1497 142.424 97.1497L143.139 97.7502C144.455 98.8528 145.601 100.144 146.54 101.582C147.969 105.25 148.873 109.101 149.227 113.022C149.37 114.194 152.142 123.203 152.142 123.203Z" fill="#F04340"/>
<g style="mix-blend-mode:multiply">
<path d="M128.991 136.473C129 136.558 129 136.645 128.991 136.73C128.676 137.131 126.99 136.73 126.99 136.73V131.296C126.489 128.676 125.521 126.167 124.132 123.889C121.917 120.563 119.94 117.085 118.215 113.48L114.814 103.413C114.814 103.413 112.67 107.788 111.956 109.59C110.947 113.511 110.269 117.51 109.926 121.544V132.984C109.926 132.984 110.184 134.128 110.441 135.643H109.383C107.783 135.643 107.726 133.27 107.726 132.784C107.779 128.024 108.074 123.271 108.612 118.541C109.155 116.883 109.612 109.962 111.013 107.903C112.413 105.844 113.099 101.611 114.757 100.467C114.747 100.391 114.747 100.314 114.757 100.238C114.099 98.1792 114.5 94.2898 113.499 89.3995C112.609 86.0431 111.531 82.7395 110.269 79.5043C113.328 77.6454 115.786 76.3013 115.786 76.3013C117.919 79.9522 119.736 83.7794 121.216 87.7407C121.374 88.4674 121.748 89.1294 122.289 89.6397C122.83 90.1501 123.512 90.485 124.246 90.6006L123.474 93.4605L124.246 96.8637L128.019 98.551L124.56 99.9524C125.101 100.891 125.505 101.902 125.761 102.955C125.573 104.544 125.149 106.096 124.503 107.56C123.932 109.361 129.019 124.233 129.019 124.233C129.019 124.233 129.219 134.671 128.991 136.473Z" fill="#C9B9B3"/>
</g>
<path d="M123.531 131.897L123.188 131.354L129.391 127.55L129.705 128.065L123.531 131.897Z" fill="#1D1800"/>
<path d="M146.855 82.3642C145.883 85.224 143.711 95.062 143.139 97.7503L142.967 98.408C141.767 99.9238 139.052 101.497 131.849 102.555C129.834 102.857 127.798 102.991 125.761 102.955C120.531 102.955 115.7 101.897 114.843 100.524C114.832 100.448 114.832 100.371 114.843 100.296C114.185 98.2364 114.585 94.347 113.585 89.4566C112.695 86.1003 111.617 82.7967 110.355 79.5615C108.918 76.2655 107.808 72.8362 107.04 69.3232C107.611 68.5224 117.729 56.5396 117.729 56.5396C120.76 55.6895 123.858 55.1058 126.99 54.795C132.076 55.1216 137.114 55.9746 142.024 57.3403C143.282 58.2555 143.739 62.3451 144.282 65.5481C144.825 68.7512 147.969 79.0753 146.855 82.3642Z" fill="#FFF269"/>
<path d="M130.506 57.3689L140.652 67.8646L145.54 73.1268H146.197L145.625 67.693L142.453 62.5167L138.709 57.1973L133.85 54.7664C133.85 54.7664 130.991 54.5948 130.591 55.224C130.428 55.9272 130.399 56.6549 130.506 57.3689Z" fill="#6DA744"/>
<path d="M125.046 72.04L125.389 80.877C124.68 83.255 123.821 85.5857 122.817 87.8551C122.214 88.6823 121.688 89.563 121.245 90.4862C121.073 90.8866 118.387 95.4909 118.387 95.4909C118.387 95.4909 115.9 94.8046 115.529 93.8036C116.14 89.1789 117.028 84.5949 118.187 80.0763C118.311 77.1261 117.744 74.1877 116.529 71.4967C115.28 68.8152 113.567 66.3755 111.47 64.2898H110.698L108.612 66.9209L107.611 63.8894L109.812 61.5157C111.552 60.6263 113.37 59.8988 115.243 59.3422C117.288 60.0016 119.096 61.2441 120.445 62.9171C122.184 65.8496 123.722 68.8977 125.046 72.04Z" fill="#6DA744"/>
<path d="M131.477 50.5338C130.969 52.0022 130.774 53.5611 130.906 55.1096C131.49 57.0837 131.684 59.1527 131.477 61.2011C131.141 62.2657 130.404 63.1583 129.424 63.6915C128.443 64.2247 127.294 64.3571 126.218 64.061C123.261 63.751 120.479 62.5092 118.273 60.5147C117.925 60.1355 117.68 59.674 117.56 59.1736C117.44 58.6733 117.449 58.1506 117.587 57.6549C118.253 56.0487 118.676 54.3524 118.844 52.6215C118.954 50.57 118.887 48.5128 118.644 46.4728C118.273 44.3851 121.502 39.9237 121.502 39.9237L129.705 41.1534L131.477 50.5338Z" fill="url(#paint8_linear_824_397)"/>
<path d="M122.474 52.4214C123.783 53.043 125.011 53.8208 126.133 54.7378C126.772 55.4612 127.364 56.2254 127.905 57.0257C128.158 58.0918 128.473 59.1422 128.848 60.1716C129.334 61.2584 129.763 56.9114 129.963 56.511L130.877 54.6521L128.162 51.4776L122.474 52.4214Z" fill="url(#paint9_linear_824_397)"/>
<path d="M134.335 53.7083C133.65 54.3242 132.77 54.6787 131.849 54.7092C128.405 54.434 125.042 53.5226 121.931 52.021C119.913 49.9744 118.567 47.3604 118.072 44.5281C118.072 43.2126 117.558 37.693 120.931 35.6625C124.303 33.632 125.189 30.6577 129.305 30.9723C133.421 31.2869 134.536 32.9742 135.164 34.919C135.922 37.6105 136.42 40.3686 136.651 43.1554C136.53 45.7198 136.166 48.2669 135.565 50.7626C134.85 52.1354 134.335 53.7083 134.335 53.7083Z" fill="url(#paint10_linear_824_397)"/>
<path d="M131.879 131.743L128.848 133.742L191.296 228.504L194.326 226.505L131.879 131.743Z" fill="#A1BDCC"/>
<path d="M192.357 223.07H191.928C191.943 223.436 191.84 223.798 191.634 224.102C191.429 224.405 191.131 224.635 190.785 224.757C189.47 225.386 188.813 224.757 188.813 224.757C188.813 224.757 188.813 225.1 188.813 225.157C188.813 225.214 190.557 228.532 190.871 229.075C191.185 229.619 192.7 229.418 193.729 228.789C194.45 228.454 195.02 227.863 195.33 227.131C195.53 226.501 192.357 223.07 192.357 223.07Z" fill="#827C62"/>
<path d="M139.366 142.679C139.307 142.823 139.209 142.948 139.083 143.039C138.956 143.13 138.807 143.184 138.652 143.194H138.451C138.206 143.178 137.973 143.077 137.794 142.908C137.614 142.755 137.476 142.558 137.394 142.336C137.137 141.706 136.336 140.048 136.336 140.048L135.908 140.991L135.279 142.364V142.736V143.337H135.079C134.689 143.379 134.296 143.379 133.907 143.337C133.682 143.306 133.472 143.206 133.307 143.051C133.118 142.894 132.978 142.685 132.907 142.45H132.621C132.335 142.45 131.535 141.478 131.449 141.363H131.163C130.955 141.331 130.743 141.331 130.534 141.363C130.134 141.363 129.305 139.762 129.305 139.762L129.105 139.533L128.362 138.446C128.036 138.05 127.793 137.593 127.647 137.102C127.647 136.702 128.248 132.355 128.248 132.355C128.289 132.176 128.289 131.99 128.248 131.811C128.175 131.112 128.031 130.422 127.819 129.752C127.219 127.636 123.332 121.83 120.874 117.054C118.812 113.184 117.183 109.098 116.015 104.871C116.015 103.67 108.698 89.0848 106.354 81.4204C104.182 74.3851 106.211 71.6682 107.268 70.6959C107.337 70.6126 107.414 70.536 107.497 70.4671C108.517 70.0329 109.64 69.9045 110.731 70.0974C111.822 70.2904 112.833 70.7964 113.642 71.5539C115.38 73.3162 116.554 75.5562 117.015 77.9886C118.072 80.8484 120.245 90.143 120.245 90.143C120.245 90.143 122.388 96.4919 123.789 100.725C125.189 104.957 126.819 110.848 128.305 115.024C129.791 119.199 134.593 129.323 134.593 129.323L137.851 134.414C138.255 135.192 138.526 136.033 138.652 136.902C138.652 137.245 138.652 140.419 138.652 140.677C138.851 141.357 139.089 142.026 139.366 142.679Z" fill="url(#paint11_linear_824_397)"/>
<path d="M126.876 126.921C127.676 128.232 128.037 129.766 127.905 131.296C127.832 130.597 127.688 129.908 127.476 129.237C126.876 127.121 122.989 121.316 120.531 116.54C118.469 112.669 116.84 108.584 115.672 104.357C115.672 103.155 108.355 88.5701 106.011 80.9057C103.839 73.8704 105.868 71.1535 106.925 70.1812C104.067 73.9562 106.725 81.9066 107.554 84.4805C108.383 87.0544 115.414 102.269 115.414 102.269C115.414 102.269 118.015 110.076 120.045 114.395C122.074 118.713 126.304 125.834 126.876 126.921Z" fill="url(#paint12_linear_824_397)"/>
<path d="M128.305 138.132L128.934 138.761V139.218L128.19 138.132H128.305Z" fill="url(#paint13_linear_824_397)"/>
<path d="M131.049 140.133L131.22 141.22H130.934C130.914 140.982 130.914 140.743 130.934 140.505L131.049 140.133Z" fill="url(#paint14_linear_824_397)"/>
<path d="M132.849 140.133L133.107 142.993C132.918 142.837 132.778 142.628 132.706 142.393V142.021C132.688 141.389 132.736 140.756 132.849 140.133Z" fill="url(#paint15_linear_824_397)"/>
<path d="M135.193 142.679V143.279H134.993V142.221L135.165 140.391L135.193 142.679Z" fill="url(#paint16_linear_824_397)"/>
<path d="M136.908 140.133C137.121 141.11 137.418 142.067 137.794 142.993C137.613 142.84 137.476 142.643 137.394 142.421C137.137 141.792 136.336 140.133 136.336 140.133L135.907 141.077V139.647L136.25 137.989L136.736 135.558C136.736 135.558 136.736 136.644 136.736 136.759C136.736 136.873 136.765 138.99 136.908 140.133Z" fill="url(#paint17_linear_824_397)"/>
<path d="M138.452 143.165C138.206 143.149 137.973 143.048 137.794 142.879L138.452 143.165Z" fill="url(#paint18_linear_824_397)"/>
<path d="M130.448 33.775C128.498 33.8659 126.662 34.7181 125.332 36.1487C123.702 37.4063 122.495 39.1327 121.874 41.0963C121.874 41.6396 121.502 44.3279 121.502 44.3279C121.502 44.3279 120.845 47.1878 120.873 47.5024C120.902 47.8169 120.073 45.1573 120.073 45.1573L118.758 44.6997L118.987 48.7893C119.231 50.6381 119.153 52.515 118.758 54.3374C118.389 55.95 117.656 57.4565 116.615 58.7416L114.3 60.7149C115.179 58.0907 115.586 55.3309 115.5 52.5643C115.271 48.3603 115.071 45.7864 115.071 45.7864C114.231 43.3738 113.909 40.8106 114.128 38.265C114.297 36.175 114.987 34.1607 116.135 32.4069C117.284 30.6531 118.854 29.2158 120.702 28.2269C122.024 27.8207 123.41 27.6655 124.789 27.7693C124.789 27.7693 125.304 26.9685 128.962 28.57C131.167 29.3106 133.06 30.771 134.336 32.7169C134.558 33.3042 134.739 33.9062 134.879 34.5186C134.879 34.5186 133.135 32.5739 132.02 32.8598C130.906 33.1458 130.448 33.775 130.448 33.775Z" fill="#7C3F4E"/>
<path d="M136.879 145.853H136.594C131.335 144.309 121.417 138.904 121.902 136.015C122.303 133.756 123.903 127.436 126.733 124.833C127.574 124.048 128.572 123.448 129.66 123.074C130.748 122.7 131.903 122.558 133.049 122.66C133.264 122.694 133.467 122.779 133.641 122.908C133.815 123.038 133.956 123.208 134.05 123.403C134.564 124.719 133.164 126.263 133.078 126.263L132.649 125.834C132.649 125.834 133.85 124.633 133.478 123.689C133.412 123.593 133.328 123.51 133.23 123.446C133.131 123.382 133.022 123.339 132.907 123.317C131.863 123.249 130.817 123.397 129.834 123.751C128.85 124.105 127.95 124.659 127.19 125.377C124.503 127.722 122.96 133.956 122.588 136.187C122.217 138.418 130.763 143.451 136.565 145.224C136.873 144.686 137.283 144.215 137.774 143.837C138.265 143.459 138.825 143.182 139.423 143.022L139.566 143.651C138.995 143.767 138.458 144.014 137.997 144.371C137.536 144.728 137.164 145.186 136.908 145.71L136.879 145.853Z" fill="#1D1800"/>
<path d="M132.392 44.2135C132.689 43.7532 132.848 43.2172 132.849 42.6692C132.849 42.469 132.849 42.1544 132.849 42.0686C132.932 42.021 133.025 41.9958 133.121 41.9958C133.216 41.9958 133.31 42.021 133.392 42.0686C133.392 42.0686 134.193 43.5844 134.478 43.8418C134.636 43.9119 134.806 43.9482 134.979 43.9482C135.151 43.9482 135.321 43.9119 135.479 43.8418C135.765 43.8418 136.022 43.6416 136.279 43.613C136.533 43.6688 136.797 43.6688 137.051 43.613C137.213 43.4885 137.349 43.3329 137.451 43.1554C137.69 42.8506 137.865 42.5004 137.965 42.1258C138.05 41.73 138.05 41.3206 137.965 40.9247C137.965 40.4099 137.965 39.9523 137.794 39.4662L137.594 38.6654H137.194C136.806 38.7337 136.424 38.8292 136.05 38.9514L134.964 39.2946C134.495 39.4368 134.058 39.6701 133.678 39.9809C133.678 39.9809 133.449 40.2669 133.307 40.3241L132.506 40.6959C132.413 40.7574 132.304 40.7902 132.192 40.7902C132.08 40.7902 131.971 40.7574 131.877 40.6959C130.846 40.6435 129.813 40.7595 128.819 41.0391C127.743 41.2993 126.684 41.624 125.647 42.0114L118.158 43.184C117.989 43.2538 117.851 43.3811 117.767 43.5434C117.683 43.7058 117.66 43.8925 117.701 44.0705L118.129 43.899L126.304 42.9266C126.475 43.7229 126.774 44.486 127.19 45.1859C127.876 46.2155 129.905 46.0725 131.306 45.1859L131.735 44.7855C131.891 44.7138 132.028 44.606 132.135 44.4709C132.387 44.1622 132.537 43.7823 132.563 43.3842C132.578 43.1461 132.578 42.9073 132.563 42.6692C132.559 42.4254 132.629 42.186 132.763 41.9828L132.392 44.2135ZM134.335 40.5529C134.602 40.2068 134.944 39.9264 135.335 39.733C135.727 39.5397 136.157 39.4386 136.593 39.4376C136.593 39.4376 137.308 39.4376 137.365 39.7236C137.422 40.0095 137.365 41.1249 137.365 41.2679C137.47 41.6773 137.44 42.1095 137.28 42.5008C137.121 42.8921 136.84 43.2218 136.479 43.4414C135.279 44.0134 134.678 43.4414 134.45 43.4414C134.167 42.9493 133.956 42.4197 133.821 41.8685C133.773 41.6229 133.796 41.3687 133.887 41.1357C133.978 40.9027 134.134 40.7005 134.335 40.5529ZM127.018 42.8408C127.018 42.4118 127.219 42.0686 127.533 41.9828C128.581 41.6715 129.651 41.4421 130.734 41.2965C130.734 41.2965 131.849 41.0391 132.163 41.5539C132.258 42.1532 132.22 42.7661 132.052 43.3492C131.884 43.9323 131.59 44.4714 131.191 44.9285C130.745 45.2979 130.198 45.523 129.621 45.5741C129.044 45.6252 128.466 45.4998 127.962 45.2145C127.375 44.5812 127.031 43.7607 126.99 42.898L127.018 42.8408Z" fill="#202020"/>
<path d="M137.337 39.4376C136.831 39.3173 136.304 39.3277 135.804 39.4678C135.304 39.6079 134.848 39.8731 134.478 40.2383C133.364 41.4681 132.992 41.3251 132.992 41.3251C131.985 41.0987 130.941 41.0987 129.934 41.3251C127.99 41.6969 127.076 41.9543 127.076 42.4976C127.076 43.041 127.076 45.9009 129.162 45.9009C129.758 45.8757 130.336 45.6931 130.838 45.3716C131.34 45.0501 131.748 44.6012 132.02 44.0706C132.02 44.0706 132.535 42.2974 132.563 42.2403C132.592 42.1831 133.392 41.8685 133.392 41.8685C133.392 41.8685 133.993 43.9276 135.25 44.0134C136.508 44.0992 137.594 43.3556 137.651 42.8122C137.708 42.2688 137.965 39.4376 137.651 39.409L137.337 39.4376Z" fill="#202020"/>
<path d="M137.622 38.8084H135.765L136.165 40.0382C136.165 40.0382 138.566 39.695 137.622 38.8084Z" fill="#202020"/>
<path d="M135.479 39.5519C135.071 39.6844 134.686 39.8772 134.336 40.1239L133.993 40.4385L133.65 40.6673C133.221 40.6673 132.964 41.0963 132.506 40.8961C131.475 40.8437 130.442 40.9596 129.448 41.2393C128.372 41.4995 127.313 41.8242 126.275 42.2116L118.044 43.3556C117.875 43.4253 117.737 43.5527 117.653 43.715C117.569 43.8773 117.546 44.0641 117.587 44.2421H118.758L126.933 43.2698C127.089 44.0704 127.389 44.836 127.819 45.5291C128.505 46.5586 130.677 46.4156 131.906 45.3861C132.324 45.0486 132.645 44.6058 132.836 44.1033C133.027 43.6007 133.081 43.0564 132.992 42.5262L133.307 42.2688C133.65 42.0114 133.793 42.2688 133.907 42.2688C134.021 42.2688 134.85 43.7559 135.136 44.0133C135.422 44.2707 136.422 44.2421 137.594 43.5844C138.766 42.9266 138.366 39.6377 138.366 39.6377L138.166 38.837H137.937C137.787 38.7956 137.629 38.7956 137.48 38.837H137.165H136.822C136.737 38.8491 136.65 38.8491 136.565 38.837L135.479 39.5519ZM134.45 40.7531C134.738 40.3557 135.123 40.039 135.568 39.8337C136.014 39.6283 136.505 39.5412 136.994 39.5805C136.994 39.5805 137.708 39.5805 137.765 39.8665C137.823 40.1525 137.765 41.2679 137.765 41.4109C137.87 41.8203 137.84 42.2525 137.68 42.6438C137.521 43.035 137.24 43.3647 136.879 43.5844C135.679 44.1563 135.079 43.5844 134.85 43.5844C134.523 43.1699 134.245 42.7188 134.021 42.2402C133.956 41.9848 133.95 41.7178 134.005 41.4599C134.059 41.202 134.173 40.9601 134.336 40.7531H134.45ZM127.419 42.898C127.419 42.469 127.619 42.1258 127.933 42.04C128.981 41.7287 130.051 41.4992 131.134 41.3537C131.134 41.3537 132.249 41.0963 132.535 41.611C132.638 42.2304 132.596 42.8652 132.413 43.4656C132.229 44.0661 131.909 44.6157 131.477 45.0715C131.034 45.4348 130.492 45.6563 129.921 45.7073C129.35 45.7583 128.777 45.6364 128.276 45.3575C127.699 44.6706 127.394 43.7953 127.419 42.898Z" fill="black"/>
<path d="M119.444 44.5567C119.265 44.1971 118.998 43.8882 118.669 43.6583C118.339 43.4285 117.957 43.2851 117.558 43.2412C116.329 43.2412 116.272 44.7283 116.357 45.8723C116.589 46.6364 117.041 47.3152 117.656 47.8239C118.271 48.3325 119.022 48.6484 119.816 48.7322C121.102 48.4462 119.444 44.5567 119.444 44.5567Z" fill="url(#paint19_linear_824_397)"/>
<path style="mix-blend-mode:multiply" d="M332.781 195.786L378.741 169.104C379.315 168.765 379.792 168.283 380.123 167.703C380.454 167.124 380.629 166.468 380.629 165.801C380.629 165.133 380.454 164.477 380.123 163.898C379.792 163.319 379.315 162.836 378.741 162.498L313.431 125.091C311.204 123.797 308.674 123.116 306.099 123.116C303.524 123.116 300.995 123.797 298.768 125.091L257.238 149.256C256.417 149.771 255.741 150.486 255.271 151.333C254.802 152.181 254.556 153.135 254.556 154.104C254.556 155.073 254.802 156.026 255.271 156.874C255.741 157.722 256.417 158.437 257.238 158.951L321.491 195.786C323.212 196.764 325.157 197.278 327.136 197.278C329.115 197.278 331.06 196.764 332.781 195.786Z" fill="url(#paint20_linear_824_397)"/>
<path d="M353.474 95.0906C344.728 90.0286 336.954 90.2002 331.895 94.5758C328.15 97.8074 325.921 103.356 325.921 110.791C325.921 128.265 338.268 149.514 353.474 158.322C360.534 162.383 366.965 163.07 371.852 160.839C377.569 158.322 380.999 151.945 380.999 142.593C380.999 125.148 368.708 103.87 353.474 95.0906ZM368.165 154.805C364.049 158.58 357.561 158.808 350.273 154.604C337.811 147.426 327.75 130.01 327.75 115.739C327.75 107.903 330.78 102.612 335.582 100.639C339.697 96.8351 346.186 96.6063 353.474 100.839C365.907 108.017 375.997 125.434 375.997 139.704C375.997 147.541 372.967 152.831 368.165 154.805Z" fill="#2C2C2C"/>
<path d="M350.273 97.2355C343.213 93.1745 336.782 92.4881 331.895 94.6902C326.178 97.2355 322.72 103.613 322.72 112.965C322.72 130.41 335.067 151.687 350.273 160.467C359.019 165.529 366.793 165.357 371.852 160.953C375.568 157.722 377.797 152.202 377.797 144.766C377.797 127.207 365.478 105.815 350.273 97.2355ZM335.582 100.753C339.526 99.1516 344.642 99.7522 350.273 102.984C362.706 110.191 372.795 127.579 372.795 141.878C372.971 144.254 372.65 146.641 371.853 148.886C371.055 151.132 369.8 153.186 368.165 154.919C364.049 158.694 357.561 158.923 350.273 154.719C337.811 147.541 327.75 130.124 327.75 115.853C327.75 107.903 330.78 102.612 335.582 100.639V100.753Z" fill="#292929"/>
<path d="M368.165 154.805C364.049 158.58 357.561 158.808 350.273 154.604C337.811 147.426 327.75 130.01 327.75 115.739C327.75 107.903 330.78 102.612 335.582 100.639C333.947 102.372 332.692 104.426 331.894 106.671C331.097 108.917 330.776 111.303 330.951 113.68C330.951 127.979 341.041 145.367 353.474 152.574C359.076 155.806 364.221 156.406 368.165 154.805Z" fill="#8E8E8E"/>
<path d="M350.273 97.2355C343.87 93.5462 338.011 92.6597 333.352 94.1468C338.661 93.5209 344.021 94.7757 348.501 97.693C363.706 106.473 376.025 127.75 376.025 145.195C376.025 155.348 371.881 161.954 365.421 164.013C372.881 162.641 377.797 155.806 377.797 144.766C377.797 127.178 365.479 105.815 350.273 97.2355Z" fill="#363636"/>
<path d="M336.239 100.41C330.065 101.439 325.978 107.073 325.978 116.168C325.978 130.467 336.067 147.855 348.501 155.062C350.533 156.443 352.834 157.376 355.254 157.8C357.673 158.224 360.155 158.129 362.534 157.521C358.239 158.03 353.901 157.018 350.273 154.662C337.84 147.483 327.75 130.067 327.75 115.796C327.75 107.531 331.066 102.154 336.239 100.41Z" fill="#363636"/>
<path d="M359.219 159.037C355.493 158.911 351.866 157.806 348.701 155.834C336.01 148.513 325.835 130.696 325.835 116.139C325.835 108.961 328.293 103.584 332.781 101.01C337.268 98.4366 343.242 98.98 349.53 102.612C362.22 109.933 372.395 127.75 372.395 142.307C372.395 149.485 369.937 154.862 365.45 157.436C363.553 158.517 361.402 159.071 359.219 159.037ZM338.869 100.782C336.926 100.759 335.013 101.252 333.324 102.212C329.294 104.528 327.064 109.476 327.064 116.139C327.064 130.267 337.097 147.598 349.387 154.633C355.246 158.036 360.82 158.608 364.764 156.263C368.708 153.918 371.023 148.97 371.023 142.307C371.023 128.179 360.991 110.848 348.701 103.813C345.741 101.968 342.353 100.924 338.869 100.782Z" fill="#E0E0E0"/>
<path d="M346.443 125.834C346.569 127.326 347.011 128.773 347.741 130.08C348.47 131.387 349.47 132.523 350.673 133.413C351.171 133.678 351.728 133.81 352.291 133.797C352.855 133.784 353.406 133.627 353.891 133.34C354.376 133.052 354.779 132.645 355.061 132.157C355.344 131.669 355.496 131.117 355.503 130.553C355.454 129.166 355.07 127.812 354.383 126.607C353.696 125.401 352.727 124.38 351.559 123.632C349.473 122.402 346.443 123.26 346.443 125.834Z" fill="#686868"/>
<path d="M302.541 121.573C302.586 122.401 302.823 123.208 303.235 123.928C303.647 124.648 304.222 125.261 304.913 125.72C306.256 126.492 307.314 125.72 307.314 124.347C307.27 123.515 307.03 122.705 306.613 121.984C306.195 121.263 305.613 120.652 304.913 120.2C303.598 119.457 302.541 120.114 302.541 121.573Z" fill="#8E8E8E"/>
<path d="M303.598 122.202C303.618 122.661 303.747 123.109 303.976 123.507C304.205 123.905 304.526 124.242 304.913 124.49C305.656 124.89 306.257 124.49 306.257 123.718C306.229 123.261 306.093 122.818 305.86 122.425C305.626 122.031 305.301 121.7 304.913 121.459C304.199 121.03 303.598 121.373 303.598 122.202Z" fill="#AEAEAE"/>
<path d="M350.873 120.229L311.087 97.264L311.916 95.8341L351.702 118.827L350.873 120.229Z" fill="#E0E0E0"/>
<path d="M306.428 110.906C305.448 110.194 304.3 109.752 303.097 109.621C301.894 109.491 300.677 109.677 299.568 110.162C299.311 110.334 297.739 111.163 297.482 111.392C296.167 112.536 296.681 113.823 296.681 116.454C296.875 119.825 297.857 123.104 299.55 126.025C301.244 128.946 303.599 131.428 306.428 133.27C308.743 134.614 309.801 135.615 311.487 135.043C312.51 134.586 313.471 134 314.345 133.298C315.05 132.533 315.586 131.629 315.921 130.644C316.256 129.659 316.381 128.615 316.289 127.579C316.072 124.219 315.066 120.958 313.353 118.061C311.639 115.164 309.267 112.712 306.428 110.906ZM310.201 130.238C309.457 130.855 308.522 131.192 307.557 131.192C306.592 131.192 305.656 130.855 304.913 130.238C303.052 129.018 301.501 127.379 300.384 125.452C299.268 123.526 298.616 121.365 298.482 119.142C298.482 116.683 299.54 115.11 301.169 114.709C301.9 114.079 302.833 113.733 303.798 113.733C304.763 113.733 305.697 114.079 306.428 114.709C308.293 115.933 309.846 117.576 310.963 119.508C312.08 121.44 312.729 123.606 312.859 125.834C312.859 128.265 311.801 129.838 310.201 130.238Z" fill="#2C2C2C"/>
<path d="M304.913 111.764C304.028 111.161 303.023 110.757 301.967 110.58C300.912 110.402 299.83 110.455 298.797 110.734C297.581 111.298 296.575 112.233 295.923 113.404C295.271 114.576 295.006 115.923 295.167 117.255C295.36 120.626 296.343 123.904 298.036 126.826C299.729 129.747 302.085 132.228 304.913 134.071C306.003 134.918 307.335 135.391 308.715 135.422C310.094 135.453 311.447 135.039 312.573 134.242C313.311 133.494 313.879 132.597 314.239 131.61C314.599 130.623 314.742 129.57 314.66 128.522C314.46 125.16 313.474 121.892 311.781 118.982C310.088 116.071 307.736 113.598 304.913 111.764ZM301.169 114.824C301.813 114.696 302.476 114.698 303.119 114.831C303.762 114.963 304.372 115.223 304.913 115.596C306.787 116.803 308.348 118.439 309.466 120.368C310.584 122.297 311.228 124.465 311.344 126.692C311.416 127.975 311.009 129.239 310.201 130.238C309.457 130.855 308.522 131.192 307.557 131.192C306.592 131.192 305.656 130.855 304.913 130.238C303.052 129.018 301.501 127.379 300.384 125.452C299.268 123.526 298.616 121.365 298.482 119.142C298.482 116.797 299.54 115.224 301.169 114.824Z" fill="#292929"/>
<path d="M310.201 130.238C309.457 130.854 308.522 131.192 307.557 131.192C306.592 131.192 305.657 130.854 304.913 130.238C303.052 129.018 301.501 127.379 300.384 125.452C299.268 123.526 298.617 121.365 298.482 119.142C298.482 116.683 299.54 115.11 301.169 114.709C300.333 115.694 299.913 116.966 299.997 118.255C300.131 120.478 300.783 122.639 301.899 124.566C303.016 126.492 304.567 128.131 306.428 129.352C307.526 130.12 308.876 130.437 310.201 130.238Z" fill="#8E8E8E"/>
<path d="M304.913 111.764C301.512 109.819 298.539 110.076 296.796 112.107C297.912 111.539 299.164 111.294 300.411 111.4C301.659 111.506 302.852 111.959 303.856 112.707C306.687 114.546 309.046 117.027 310.739 119.949C312.433 122.871 313.413 126.151 313.602 129.523C313.7 131.393 313.133 133.237 312.002 134.728C312.932 134.022 313.666 133.088 314.132 132.017C314.597 130.945 314.779 129.771 314.66 128.608C314.478 125.23 313.5 121.943 311.806 119.016C310.112 116.088 307.75 113.603 304.913 111.764Z" fill="#363636"/>
<path d="M297.996 119.542C298.122 121.764 298.769 123.924 299.887 125.847C301.004 127.77 302.56 129.402 304.427 130.61C306.771 131.983 308.229 132.355 309.372 130.868C308.645 131.159 307.856 131.265 307.077 131.175C306.299 131.085 305.555 130.802 304.913 130.353C303.052 129.132 301.501 127.493 300.384 125.567C299.268 123.64 298.617 121.479 298.482 119.256C298.424 118.095 298.756 116.947 299.425 115.996C298.196 116.625 297.996 117.426 297.996 119.542Z" fill="#363636"/>
<path d="M305.828 119.943L306.171 110.934L308.314 109.99L312.173 112.25L312.916 113.451L311.544 120.114L309.4 121.058C308.636 121.377 307.841 121.617 307.028 121.773L305.828 119.943Z" fill="#8E8E8E"/>
<path d="M302.969 121.173L305.828 117.54L306.314 110.934L310.172 113.194L310.915 114.395L309.515 121.058L305.628 122.631C305.628 122.631 304.399 123.146 304.256 123.031C304.113 122.917 302.969 121.173 302.969 121.173Z" fill="#CFCFCF"/>
<path d="M354.474 138.275L309.886 112.507V93.4318H311.544V111.592L355.303 136.845L354.474 138.275Z" fill="#E0E0E0"/>
<path d="M323.006 81.3918L352.102 116.397L353.274 115.539V97.3498L324.177 80.5338L323.006 81.3918Z" fill="#8B6865"/>
<path d="M323.006 99.5805L352.102 116.397V98.1792L323.006 81.3918V99.5805Z" fill="#764D4A"/>
<path d="M353.245 122.431H351.559V95.5482L324.835 80.0763C324.681 79.9799 324.502 79.9288 324.32 79.9288C324.139 79.9288 323.96 79.9799 323.806 80.0763C323.641 80.1649 323.503 80.2969 323.407 80.4582C323.311 80.6195 323.262 80.8039 323.263 80.9914V84.7093C323.265 85.2132 323.134 85.7087 322.883 86.1456C322.632 86.5826 322.27 86.9454 321.834 87.1973C321.399 87.4484 320.906 87.5805 320.405 87.5805C319.903 87.5805 319.41 87.4484 318.976 87.1973L318.604 86.9686C318.447 86.8809 318.27 86.8349 318.09 86.8349C317.909 86.8349 317.732 86.8809 317.575 86.9686C317.412 87.0595 317.276 87.1921 317.18 87.3528C317.085 87.5136 317.034 87.6968 317.032 87.8837V99.3232H315.403V87.8837C315.405 87.4128 315.53 86.9507 315.767 86.5436C316.004 86.1366 316.343 85.7989 316.751 85.5643C317.159 85.3297 317.622 85.2065 318.092 85.2071C318.563 85.2076 319.025 85.3318 319.433 85.5672L319.804 85.796C319.992 85.9012 320.204 85.9565 320.419 85.9565C320.634 85.9565 320.846 85.9012 321.033 85.796C321.228 85.698 321.391 85.5463 321.502 85.3588C321.614 85.1713 321.669 84.9559 321.662 84.7379V81.02C321.676 80.5486 321.805 80.0878 322.04 79.6787C322.274 79.2695 322.606 78.9247 323.006 78.6749C323.413 78.4362 323.877 78.3103 324.349 78.3103C324.821 78.3103 325.285 78.4362 325.692 78.6749L353.274 94.6044L353.245 122.431Z" fill="#E0E0E0"/>
<path d="M346.386 126.492C346.46 127.839 346.851 129.15 347.526 130.317C348.201 131.485 349.142 132.477 350.273 133.213C352.417 134.471 354.16 133.47 354.16 130.982C354.086 129.635 353.695 128.324 353.02 127.156C352.344 125.989 351.403 124.997 350.273 124.261C348.129 122.974 346.386 124.032 346.386 126.492Z" fill="#8E8E8E"/>
<path d="M348.129 127.493C348.165 128.239 348.378 128.965 348.751 129.612C349.124 130.258 349.646 130.806 350.273 131.211C351.445 131.897 352.416 131.211 352.416 129.981C352.369 129.242 352.151 128.524 351.779 127.883C351.407 127.243 350.892 126.698 350.273 126.292C349.072 125.605 348.129 126.149 348.129 127.493Z" fill="#AEAEAE"/>
<path d="M296.196 119.314L294.595 119.085L297.996 95.2908C298.146 94.7852 298.413 94.3222 298.776 93.9395C299.138 93.5568 299.586 93.2653 300.083 93.0887C300.549 92.9225 301.047 92.8595 301.54 92.9039C302.033 92.9483 302.511 93.0992 302.941 93.3461L311.087 98.0648L310.286 99.4662L302.112 94.776C301.888 94.6424 301.637 94.5598 301.378 94.5343C301.118 94.5087 300.856 94.5408 300.611 94.6282C300.365 94.7156 300.142 94.8562 299.957 95.04C299.771 95.2237 299.629 95.446 299.54 95.6912L296.196 119.314Z" fill="#E0E0E0"/>
<path d="M298.773 95.7343L297.959 97.1525L310.74 104.502L311.555 103.084L298.773 95.7343Z" fill="#E0E0E0"/>
<path d="M309.858 104.071H308.229V111.163H309.858V104.071Z" fill="#E0E0E0"/>
<path d="M351.016 118.97H349.387V134.929H351.016V118.97Z" fill="#E0E0E0"/>
<path d="M345.585 91.5157L324.32 79.2469C323.463 78.7321 323.034 76.7302 324.035 76.1583L324.578 77.3022C325.095 77.0363 325.668 76.8975 326.25 76.8975C326.831 76.8975 327.404 77.0363 327.922 77.3022L349.501 88.2841C350.359 88.7703 349.958 90.9438 348.958 91.5157C348.436 91.7819 347.858 91.9207 347.272 91.9207C346.686 91.9207 346.108 91.7819 345.585 91.5157Z" fill="#48110D"/>
<path d="M345.585 90.0572L324.32 77.7884C323.463 77.2736 323.577 76.4156 324.578 75.8436C325.083 75.5553 325.651 75.3919 326.232 75.367C326.814 75.3422 327.393 75.4565 327.922 75.7006L349.187 87.9695C350.073 88.4843 349.958 89.3422 348.958 89.9142C348.447 90.2028 347.875 90.3662 347.289 90.391C346.703 90.4159 346.119 90.3015 345.585 90.0572Z" fill="#633431"/>
<path d="M262.955 149.457L298.339 129.009V127.75L255.809 144.08V145.338L262.955 149.457Z" fill="#6D6D6D"/>
<path d="M262.955 148.198L298.339 127.75L291.194 123.632L255.809 144.08L262.955 148.198Z" fill="#8E8E8E"/>
<path d="M269.643 130.753C269.643 130.753 261.869 129.18 260.611 129.237C258.831 129.614 257.189 130.475 255.866 131.725C255.627 132.544 255.492 133.39 255.466 134.242L259.068 137.445C259.068 137.445 268.643 141.478 269.043 141.878C269.812 142.462 270.697 142.876 271.638 143.093C272.579 143.31 273.555 143.325 274.502 143.136C277.36 142.564 277.103 140.62 277.074 138.618C277.046 136.616 277.074 135.272 276.303 134.185C275.417 133.396 274.344 132.845 273.187 132.583L269.643 130.753Z" fill="#E6E5E0"/>
<path d="M283.962 121.945L276.331 121.573C276.331 121.573 269.957 120.543 269.614 121.173C269.298 121.792 269.133 122.478 269.133 123.174C269.133 123.87 269.298 124.556 269.614 125.176C270.529 126.406 275.874 127.264 277.617 128.236C280.747 130.008 284.016 131.519 287.392 132.755C288.278 132.717 289.136 132.428 289.864 131.922C290.593 131.415 291.163 130.713 291.508 129.895C291.914 128.12 291.865 126.27 291.365 124.519C291.206 123.471 290.772 122.484 290.108 121.659L283.962 121.945Z" fill="#E6E5E0"/>
<path d="M294.395 90.6291C291.983 89.8124 289.475 89.3125 286.935 89.142C282.848 88.856 281.733 91.0581 281.533 93.0314C282.099 99.9637 283.217 106.84 284.877 113.594C286.935 122.917 287.335 128.179 286.735 129.266C286.135 130.353 291.108 133.155 292.137 133.155C293.166 133.155 295.738 132.212 295.538 131.382C295.338 130.553 295.881 117.426 295.881 116.282C295.881 115.138 298.139 101.096 296.167 99.5233C294.195 97.9504 294.395 90.6291 294.395 90.6291Z" fill="url(#paint21_linear_824_397)"/>
<path d="M263.384 111.077C264.498 117.626 267.871 131.926 267.899 132.269C268.187 133.228 268.713 134.098 269.427 134.798C270.142 135.498 271.023 136.005 271.987 136.273C272.395 136.328 272.808 136.328 273.216 136.273C273.774 136.257 274.321 136.116 274.816 135.858C275.311 135.6 275.741 135.234 276.074 134.786C275.509 130.098 275.413 125.365 275.788 120.658C276.588 115.396 278.418 106.959 277.932 103.356C277.932 103.356 277.932 103.127 277.932 103.012C277.417 99.2374 275.902 91.287 275.902 91.287C273.727 90.5414 271.416 90.2779 269.129 90.5148C265.927 91.001 264.813 92.3451 263.412 95.4052C262.129 100.549 262.119 105.929 263.384 111.077Z" fill="url(#paint22_linear_824_397)"/>
<path d="M268.671 99.5233C268.344 101.732 268.344 103.978 268.671 106.187C269.271 107.502 273.844 111.306 274.388 113.136C274.368 117.975 274.053 122.807 273.444 127.607C273.444 128.923 273.444 132.955 273.444 136.33C274.002 136.315 274.549 136.173 275.044 135.915C275.539 135.658 275.97 135.291 276.303 134.843C275.738 130.155 275.642 125.422 276.017 120.715C276.817 115.453 278.646 107.016 278.16 103.413C278.16 103.413 278.16 103.184 278.16 103.07C274.902 101.754 268.671 99.5233 268.671 99.5233Z" fill="url(#paint23_linear_824_397)"/>
<path d="M273.158 116.368C273.644 115.224 284.877 108.646 298.168 100.696L299.854 99.695C301.576 98.9927 303.426 98.6614 305.285 98.7226C312.501 99.7933 319.359 102.568 325.292 106.816C329.922 110.334 335.124 112.936 338.526 117.226C339.489 118.511 339.988 120.084 339.941 121.689C339.895 123.295 339.305 124.837 338.268 126.063C337.653 126.969 336.866 127.746 335.953 128.351C327.55 133.928 317.289 140.191 312.716 141.478C304.656 143.737 299.511 135.758 290.565 129.094C284.972 124.96 278.423 122.313 271.529 121.401C269.128 116.997 272.673 117.512 273.158 116.368Z" fill="#5C2C28"/>
<path d="M270.815 119.113H271.186H271.958C273.507 119.156 275.037 119.476 276.474 120.057C281.717 121.999 286.761 124.441 291.537 127.35C293.852 129.123 295.881 130.925 297.853 132.669C298.739 133.47 299.597 134.242 300.454 134.957C303.078 137.781 306.628 139.568 310.458 139.99C311.328 139.977 312.192 139.852 313.03 139.619C317.689 138.303 328.465 131.954 336.525 126.578C337.272 126.1 337.912 125.472 338.404 124.733C338.896 123.995 339.23 123.162 339.383 122.288C339.489 121.143 339.364 119.989 339.016 118.893C338.667 117.797 338.102 116.783 337.354 115.91C336.936 115.361 336.487 114.836 336.01 114.337C333.91 112.195 331.592 110.278 329.093 108.618C328.007 107.846 326.893 107.073 325.721 106.158C321.307 103.542 316.691 101.285 311.916 99.409C310.548 98.7867 309.092 98.3815 307.6 98.2078H305.17C303.767 98.2848 302.386 98.594 301.083 99.123L299.454 100.067L298.368 100.725C286.763 107.674 272.33 116.311 271.386 117.569C271.297 117.824 271.172 118.065 271.015 118.284C271.072 118.57 270.9 118.885 270.815 119.113Z" fill="#55221F"/>
<path d="M300.511 134.957C303.135 137.781 306.685 139.568 310.515 139.99C311.385 139.977 312.25 139.852 313.088 139.619C317.746 138.303 328.522 131.954 336.582 126.578C337.329 126.1 337.969 125.472 338.461 124.733C338.954 123.995 339.287 123.162 339.44 122.288C339.546 121.143 339.421 119.989 339.073 118.893C338.724 117.797 338.159 116.783 337.411 115.91C336.993 115.361 336.544 114.836 336.068 114.337L300.511 134.957Z" fill="#5C2C28"/>
<path d="M269.3 109.504C269.517 110.117 269.765 110.718 270.043 111.306C270.263 111.856 270.583 112.36 270.986 112.793C271.358 112.993 300.369 123.317 302.712 124.233C306.848 125.623 311.324 125.623 315.46 124.233C318.352 123.509 321.124 122.373 323.692 120.858C323.804 120.765 323.929 120.688 324.063 120.629C324.277 117.716 324.277 114.791 324.063 111.878L317.261 107.245L303.856 97.7502L276.074 91.0582C274.845 90.8008 272.33 90.4576 272.33 90.4576C272.19 93.8492 271.484 97.1936 270.243 100.353C268.805 103.18 268.468 106.442 269.3 109.504Z" fill="#382F2F"/>
<g style="mix-blend-mode:multiply">
<path d="M270.043 111.306C270.263 111.856 270.583 112.36 270.986 112.793C271.358 112.993 300.368 123.317 302.712 124.233C306.848 125.623 311.324 125.623 315.46 124.233C318.351 123.509 321.124 122.373 323.691 120.858C321.646 119.005 319.499 117.267 317.26 115.653C317.26 115.653 311.544 122.974 307.057 123.546C302.569 124.118 293.995 119.771 289.364 117.826C285.277 116.082 272.901 112.193 270.043 111.306Z" fill="#C9B9B3"/>
</g>
<path d="M288.678 100.667L298.711 110.477L312.487 107.903C314.378 106.24 316.075 104.369 317.546 102.326C318.359 101.199 318.995 99.9553 319.433 98.6368C320.662 94.204 312.001 90.7436 312.001 90.7436L298.053 88.4271L293.08 87.4547C291.738 88.6756 290.531 90.037 289.479 91.5157C289.089 93.3118 288.869 95.1407 288.821 96.9781C288.678 98.98 288.678 100.667 288.678 100.667Z" fill="#332B2B"/>
<g style="mix-blend-mode:multiply">
<path d="M288.678 100.667L298.711 110.477L312.487 107.903C314.378 106.24 316.075 104.369 317.546 102.326L302.97 98.694L288.964 97.0067C288.678 98.98 288.678 100.667 288.678 100.667Z" fill="#C9B9B3"/>
</g>
<path d="M300.94 104.528C300.94 104.528 302.026 109.447 302.655 111.706C303.694 114.288 305.173 116.668 307.028 118.742C309.461 120.081 312.197 120.771 314.974 120.744C317.32 120.831 319.668 120.658 321.977 120.229C331.552 118.599 333.181 114.509 335.925 110.82C338.668 107.131 346.157 92.8313 346.157 92.8313C346.157 92.8313 349.015 82.5072 349.444 80.7912C350.524 76.0375 350.986 71.1639 350.816 66.2917C350.78 65.2071 350.503 64.1441 350.003 63.181C349.503 62.2179 348.794 61.3791 347.928 60.7262C347.061 60.0733 346.06 59.6229 344.996 59.4082C343.933 59.1934 342.836 59.2197 341.784 59.4852C339.497 59.7998 327.922 61.9447 327.093 62.3451C326.264 62.7455 323.406 66.0629 319.947 68.5224C318.055 69.8249 316.352 71.3842 314.888 73.1554C311.458 76.7588 308.171 88.7131 308.171 88.7131C308.171 88.7131 304.227 94.6616 303.027 96.6349C302.855 96.8923 302.769 97.0925 302.712 97.1783C302.312 98.1506 300.94 104.528 300.94 104.528Z" fill="#86AB22"/>
<g style="mix-blend-mode:multiply">
<path d="M300.94 104.528C300.94 104.528 302.026 109.447 302.655 111.706C303.694 114.288 305.173 116.668 307.028 118.742C309.461 120.081 312.197 120.771 314.974 120.744L314.117 118.398V114.909C314.117 114.909 312.83 112.05 313.173 111.134C313.62 110.081 314.135 109.059 314.717 108.074H316.575L321.148 104.528C320.992 103.802 320.992 103.052 321.148 102.326C321.405 101.783 322.634 98.2936 322.634 98.2936L325.035 95.2336L327.493 89.1993L327.093 86.3394C326.808 86.092 326.575 85.7907 326.407 85.4528C326.031 84.1275 325.736 82.781 325.521 81.4204L316.146 82.2212L302.97 96.7207C302.798 96.9781 302.712 97.1783 302.655 97.2641C302.312 98.1506 300.94 104.528 300.94 104.528Z" fill="#C9B9B3"/>
</g>
<path d="M322.377 45.7579C322.354 48.1344 322.545 50.5082 322.949 52.8503C322.983 53.1441 323.081 53.427 323.234 53.6797C324.304 54.5352 325.487 55.2378 326.75 55.7674L327.236 57.8265C327.088 59.7302 327.088 61.6425 327.236 63.5462C327.467 63.7411 327.741 63.8783 328.036 63.9466C331.103 64.9069 334.316 65.3136 337.525 65.1478C342.27 64.8618 343.242 62.6597 343.242 61.8303C342.42 60.1435 341.686 58.4158 341.041 56.654C341.053 54.3238 341.264 51.9989 341.67 49.7045V40.2097L329.036 32.3451C327.398 32.3617 325.785 32.7529 324.32 33.489C323.177 34.4614 322.548 39.2088 322.548 39.2088L323.063 41.3251C322.702 41.8754 322.377 42.4486 322.091 43.041C322.091 43.4128 322.748 44.0705 322.748 44.0705C322.571 44.6199 322.447 45.1849 322.377 45.7579Z" fill="url(#paint24_linear_824_397)"/>
<path d="M327.293 47.9028C327.293 47.9028 327.293 46.53 327.093 45.7007C326.893 44.8713 326.864 44.2993 327.436 44.6711C328.007 45.0429 328.751 45.3861 328.808 46.0438C328.955 47.0861 329.031 48.1371 329.036 49.1897C329.036 49.8475 327.75 50.5624 327.75 50.5624C327.478 50.1826 327.295 49.7459 327.216 49.2852C327.137 48.8245 327.163 48.3518 327.293 47.9028Z" fill="url(#paint25_linear_824_397)"/>
<path d="M302.541 93.3174C302.169 93.3174 300.426 93.8608 299.683 93.9752L302.255 93.6606L306.314 92.9171L307.057 92.3165H306.399C306.399 92.3165 302.97 93.2602 302.541 93.3174Z" fill="url(#paint26_linear_824_397)"/>
<path d="M299.797 90.6577L296.939 92.3737H297.196L298.797 91.6587L302.369 89.571H304.199L304.942 90.3432L304.027 90.6863L305.37 90.4576V90.0858L304.17 88.999H302.512L299.797 90.6577Z" fill="url(#paint27_linear_824_397)"/>
<path d="M296.224 88.8846C296.224 89.3422 296.939 89.5424 296.939 89.5424L298.997 89.3136L299.511 89.0276L302.369 87.5119L298.911 88.7416L296.939 88.999L296.224 88.8846Z" fill="url(#paint28_linear_824_397)"/>
<path d="M296.396 91.9447C296.396 92.0877 296.681 92.2593 296.91 92.3737H297.167L298.768 91.6587L302.341 89.571H304.17L304.913 90.3432L303.998 90.6864L301.683 91.5729C301.683 91.5729 299.282 92.3165 299.168 92.8027C299.054 93.2889 299.568 93.6893 299.711 93.8322L302.284 93.5177L306.342 92.7741L307.085 92.1735L310.315 89.571L308.829 87.0258C308.829 87.0258 305.799 86.3108 305.456 86.3108C305.113 86.3108 299.568 87.4547 299.568 87.4547C299.568 87.4547 296.338 88.1411 296.167 88.6273C296.167 89.0849 296.882 89.2851 296.882 89.2851L298.939 89.0563H299.483C299.483 89.0563 296.453 91.7159 296.396 91.9447Z" fill="url(#paint29_linear_824_397)"/>
<path d="M322.977 52.7932C323.012 53.0869 323.109 53.3698 323.263 53.6225C324.332 54.478 325.516 55.1807 326.778 55.7102L327.264 57.7693C327.117 59.673 327.117 61.5854 327.264 63.4891C327.496 63.6839 327.77 63.8211 328.065 63.8894C327.996 63.7812 327.939 63.6662 327.893 63.5463C327.688 62.3266 327.574 61.0935 327.55 59.857L328.665 56.368L327.436 55.9962L323.177 52.8789L322.977 52.7932Z" fill="url(#paint30_linear_824_397)"/>
<path d="M324.32 35.0906C324.265 35.783 324.121 36.4654 323.892 37.1211C323.669 37.8237 323.563 38.5578 323.577 39.2946L324.606 41.6969L325.721 44.8141L325.892 46.5586L327.179 47.5024C327.899 47.5793 328.563 47.9269 329.036 48.4748C329.751 49.3613 331.237 51.7922 331.237 51.7922C331.237 51.7922 333.781 55.0238 334.81 55.367C336.848 55.4712 338.891 55.2687 340.869 54.7665C341.784 54.4805 342.641 53.1077 342.641 53.1077C344.201 51.1389 345.516 48.9877 346.557 46.7016C348.034 43.3427 348.326 39.5813 347.386 36.0343C346.42 34.4985 345.224 33.1194 343.842 31.9447C343.842 31.9447 343.013 28.3699 336.696 27.6263C332.597 26.8726 328.365 27.4018 324.578 29.1421C323.595 29.9409 322.829 30.9733 322.348 32.1449L322.548 35.6911L323.72 33.7178L324.32 35.0906Z" fill="#7C3F4E"/>
<path d="M313.145 146.54C329.351 142.164 338.869 139.819 348.072 126.377C348.93 115.996 351.731 104.499 352.588 94.061C352.588 93.632 351.673 93.0886 351.216 93.0314C341.498 103.298 334.696 106.473 316.289 113.222C315.403 124.032 314.031 135.729 313.145 146.54Z" fill="#6B403C"/>
<path d="M314.545 147.569C330.751 143.165 340.269 140.82 349.473 127.378C350.359 116.568 351.731 104.871 352.588 94.061C342.87 104.328 336.068 107.474 317.689 114.08C316.803 125.033 315.431 136.73 314.545 147.569Z" fill="#5C2C28"/>
<path d="M347.929 128.008H346.3V103.213L355.618 88.2555L362.477 92.2021L361.648 93.632L356.161 90.4862L347.929 103.67V128.008Z" fill="#A1A1A1"/>
<path d="M320.805 144.337H319.176V119.514L328.493 104.585L335.353 108.532L334.524 109.962L329.065 106.787L320.805 120V144.337Z" fill="#E0E0E0"/>
<path d="M308.314 152.202C308.44 153.694 308.883 155.141 309.612 156.448C310.342 157.755 311.341 158.891 312.545 159.781C313.044 160.044 313.603 160.175 314.167 160.162C314.732 160.148 315.283 159.991 315.77 159.705C316.257 159.418 316.662 159.012 316.948 158.525C317.234 158.038 317.391 157.486 317.404 156.921C317.326 155.571 316.931 154.259 316.251 153.091C315.57 151.923 314.624 150.933 313.488 150.2C311.344 148.856 308.314 149.714 308.314 152.202Z" fill="#686868"/>
<path d="M264.412 148.027C264.456 148.859 264.696 149.669 265.114 150.389C265.531 151.11 266.114 151.722 266.813 152.173C268.128 152.946 269.186 152.173 269.186 150.801C269.141 149.972 268.903 149.166 268.491 148.446C268.079 147.726 267.504 147.112 266.813 146.654C265.47 145.853 264.412 146.511 264.412 148.027Z" fill="#8E8E8E"/>
<path d="M265.47 148.713C265.492 149.175 265.626 149.624 265.86 150.022C266.094 150.421 266.421 150.757 266.813 151.001C267.528 151.401 268.128 151.001 268.128 150.229C268.104 149.775 267.972 149.333 267.744 148.94C267.515 148.547 267.196 148.214 266.813 147.969C266.07 147.483 265.47 147.826 265.47 148.713Z" fill="#AEAEAE"/>
<path d="M312.745 146.683L272.958 123.718L273.787 122.288L313.574 145.281L312.745 146.683Z" fill="#E0E0E0"/>
<path d="M268.3 137.274C267.32 136.562 266.172 136.12 264.969 135.989C263.765 135.859 262.549 136.045 261.44 136.53C261.183 136.702 259.611 137.531 259.382 137.76C258.039 138.904 258.553 140.191 258.553 142.822C258.746 146.193 259.729 149.472 261.422 152.393C263.115 155.314 265.471 157.796 268.3 159.638C270.643 160.982 271.701 161.983 273.359 161.411C274.382 160.954 275.342 160.368 276.217 159.666C276.921 158.901 277.458 157.997 277.793 157.012C278.127 156.027 278.253 154.983 278.16 153.947C277.944 150.587 276.938 147.326 275.224 144.429C273.511 141.532 271.138 139.08 268.3 137.274ZM272.072 156.606C271.336 157.226 270.405 157.565 269.443 157.565C268.481 157.565 267.55 157.226 266.813 156.606C264.99 155.423 263.461 153.84 262.342 151.976C261.223 150.113 260.543 148.019 260.354 145.853C260.354 143.394 261.44 141.821 263.04 141.42C263.774 140.796 264.706 140.453 265.67 140.453C266.634 140.453 267.566 140.796 268.3 141.42C270.161 142.641 271.712 144.28 272.828 146.207C273.945 148.133 274.596 150.294 274.731 152.517C274.731 154.719 273.673 156.292 272.072 156.692V156.606Z" fill="#2C2C2C"/>
<path d="M266.813 138.217C265.916 137.631 264.903 137.243 263.843 137.08C262.783 136.917 261.7 136.983 260.668 137.274C259.437 137.842 258.42 138.79 257.767 139.979C257.114 141.168 256.858 142.535 257.038 143.88C257.23 147.255 258.215 150.537 259.914 153.459C261.612 156.381 263.976 158.86 266.813 160.696C267.898 161.541 269.226 162.013 270.601 162.044C271.975 162.075 273.323 161.662 274.445 160.868C275.182 160.12 275.75 159.222 276.11 158.235C276.47 157.248 276.614 156.195 276.531 155.148C276.359 151.759 275.389 148.459 273.7 145.517C272.011 142.575 269.651 140.074 266.813 138.217ZM262.955 141.277C263.603 141.15 264.271 141.153 264.918 141.286C265.566 141.418 266.181 141.678 266.728 142.05C268.593 143.263 270.146 144.901 271.258 146.83C272.371 148.758 273.012 150.922 273.13 153.146C273.216 154.431 272.807 155.7 271.987 156.692C271.25 157.311 270.319 157.651 269.357 157.651C268.395 157.651 267.464 157.311 266.728 156.692C264.91 155.491 263.391 153.89 262.286 152.011C261.181 150.133 260.52 148.026 260.354 145.853C260.354 143.251 261.44 141.678 262.955 141.277Z" fill="#292929"/>
<path d="M272.072 156.692C271.336 157.311 270.405 157.651 269.443 157.651C268.481 157.651 267.55 157.311 266.813 156.692C264.98 155.5 263.444 153.903 262.324 152.024C261.204 150.145 260.53 148.034 260.354 145.853C260.354 143.394 261.44 141.821 263.04 141.42C262.204 142.405 261.784 143.677 261.869 144.967C262.003 147.19 262.654 149.35 263.771 151.277C264.887 153.203 266.438 154.842 268.3 156.063C269.433 156.742 270.781 156.966 272.072 156.692Z" fill="#8E8E8E"/>
<path d="M266.813 138.217C263.384 136.273 260.411 136.53 258.667 138.561C259.783 137.992 261.035 137.748 262.283 137.854C263.53 137.96 264.723 138.413 265.727 139.161C268.564 140.995 270.926 143.475 272.62 146.397C274.314 149.32 275.292 152.603 275.474 155.977C275.572 157.847 275.005 159.691 273.873 161.182C274.804 160.476 275.538 159.542 276.003 158.47C276.469 157.398 276.651 156.225 276.531 155.062C276.348 151.688 275.373 148.404 273.684 145.478C271.996 142.551 269.642 140.064 266.813 138.217Z" fill="#363636"/>
<path d="M259.868 145.996C259.993 148.217 260.641 150.377 261.759 152.301C262.876 154.224 264.432 155.856 266.299 157.064C268.643 158.437 270.1 158.808 271.244 157.321C270.523 157.621 269.737 157.731 268.962 157.641C268.186 157.551 267.447 157.264 266.813 156.806C264.965 155.603 263.42 153.988 262.3 152.088C261.179 150.188 260.513 148.054 260.354 145.853C260.295 144.692 260.627 143.544 261.297 142.593C260.097 142.993 259.868 143.88 259.868 145.996Z" fill="#363636"/>
<path d="M267.785 146.397L268.128 137.274L270.272 136.33L274.13 138.589L274.902 139.79L273.473 146.454L271.329 147.398C270.565 147.716 269.77 147.956 268.957 148.112L267.785 146.397Z" fill="#8E8E8E"/>
<path d="M264.927 147.626L267.785 143.994L268.128 137.274L271.987 139.533L272.73 140.734L271.329 147.397L267.442 148.97C267.442 148.97 266.213 149.514 266.07 149.371C265.927 149.228 264.927 147.626 264.927 147.626Z" fill="#CFCFCF"/>
<path d="M316.346 164.728L271.758 138.961V119.886H273.416V138.046L317.175 163.298L316.346 164.728Z" fill="#E0E0E0"/>
<path d="M284.877 107.846L313.974 142.85L315.146 141.992V123.804L286.049 106.988L284.877 107.846Z" fill="#8B6865"/>
<path d="M284.877 126.034L313.974 142.85V124.633L284.877 107.846V126.034Z" fill="#764D4A"/>
<path d="M315.117 148.885H313.459V122.002L286.706 106.559C286.553 106.459 286.374 106.406 286.192 106.406C286.009 106.406 285.83 106.459 285.677 106.559C285.515 106.649 285.381 106.782 285.291 106.943C285.2 107.105 285.155 107.289 285.163 107.474V111.192C285.168 111.699 285.038 112.198 284.786 112.639C284.535 113.079 284.171 113.445 283.732 113.698C283.292 113.951 282.794 114.083 282.287 114.08C281.78 114.076 281.283 113.938 280.847 113.68L280.447 113.451C280.289 113.359 280.109 113.312 279.926 113.313C279.744 113.314 279.565 113.363 279.407 113.457C279.25 113.55 279.121 113.683 279.032 113.843C278.944 114.003 278.899 114.183 278.903 114.366V125.806H277.246V114.395C277.248 113.924 277.373 113.462 277.61 113.055C277.847 112.648 278.186 112.31 278.594 112.075C279.002 111.841 279.465 111.717 279.935 111.718C280.406 111.718 280.868 111.843 281.276 112.078L281.647 112.307C281.84 112.412 282.056 112.467 282.276 112.467C282.496 112.467 282.712 112.412 282.905 112.307C283.092 112.202 283.247 112.048 283.353 111.862C283.459 111.675 283.511 111.463 283.505 111.249V107.531C283.502 107.058 283.624 106.592 283.859 106.181C284.093 105.77 284.432 105.428 284.841 105.19C285.25 104.952 285.714 104.826 286.188 104.826C286.661 104.825 287.125 104.949 287.535 105.186L315.117 121.115V148.885Z" fill="#E0E0E0"/>
<path d="M307.457 118.055L286.192 105.815C285.334 105.3 284.906 103.327 285.906 102.726L286.449 103.87C286.96 103.582 287.532 103.418 288.118 103.393C288.705 103.369 289.288 103.483 289.822 103.727L311.373 114.709C312.259 115.195 311.83 117.369 310.83 117.941C310.316 118.225 309.743 118.383 309.157 118.403C308.571 118.423 307.988 118.304 307.457 118.055Z" fill="#48110D"/>
<path d="M307.457 116.511L286.192 104.242C285.335 103.727 285.449 102.869 286.449 102.297C286.96 102.009 287.532 101.845 288.118 101.821C288.705 101.796 289.288 101.91 289.822 102.154L311.087 114.395C311.944 114.909 311.83 115.767 310.83 116.339C310.321 116.633 309.75 116.801 309.164 116.831C308.578 116.861 307.993 116.751 307.457 116.511Z" fill="#633431"/>
<path d="M262.955 94.061C263.173 94.4057 263.432 94.7226 263.726 95.0048L263.269 95.5767C263.262 95.691 263.262 95.8056 263.269 95.9199C263.269 96.2631 263.269 96.8065 263.469 97.0067C263.469 97.0067 263.812 97.2641 264.041 97.3213H264.384L264.184 97.9504L264.498 99.2946C264.831 99.5861 265.185 99.8536 265.556 100.095C265.807 100.283 266.087 100.428 266.384 100.524C266.951 100.63 267.533 100.63 268.099 100.524L269.586 101.296C273.258 102.269 276.851 103.521 280.332 105.043C287.192 107.903 300.826 111.077 302.512 110.219C306.502 106.84 310.318 103.261 313.945 99.4948L311.544 92.9171L311.373 92.4595L310.258 92.6025C308.057 92.8599 303.398 93.4032 303.284 93.4604C303.104 93.6961 302.942 93.9446 302.798 94.204C301.803 96.044 300.476 97.6829 298.882 99.0372C297.51 100.467 277.932 96.8923 277.303 96.7779C276.674 96.6635 274.645 93.918 274.645 93.918L268.671 88.6559L266.413 87.6549L264.927 88.0553C264.31 88.6037 263.754 89.2174 263.269 89.8856C263.218 89.951 263.19 90.0315 263.19 90.1144C263.19 90.1973 263.218 90.2778 263.269 90.3432C263.4 90.4831 263.569 90.5824 263.755 90.6292L263.326 91.1439C262.903 92.0541 262.773 93.0736 262.955 94.061Z" fill="url(#paint31_linear_824_397)"/>
<path d="M264.956 96.8065L264.155 97.407H264.498L264.298 98.0362C264.67 97.55 265.041 97.1496 265.041 97.1496L265.613 96.3489L264.956 96.8065Z" fill="url(#paint32_linear_824_397)"/>
<path d="M267.814 91.6587V91.2583L266.156 89.3422C266.156 89.3422 265.241 88.6558 265.013 88.713C264.573 89.1812 264.189 89.6996 263.869 90.2574L263.355 90.4576C263.486 90.5975 263.655 90.6968 263.841 90.7435L264.298 90.6006L265.356 90.9437L267.814 91.6587Z" fill="url(#paint33_linear_824_397)"/>
<path d="M263.784 95.0334L263.326 95.6054C263.319 95.7196 263.319 95.8343 263.326 95.9485V95.7197L265.813 94.3756V94.0896L263.555 92.4881L263.183 93.4033V94.0324C263.344 94.3882 263.545 94.7241 263.784 95.0334Z" fill="url(#paint34_linear_824_397)"/>
<path d="M266.185 99.0944L265.441 99.4376L265.699 100.41C265.95 100.597 266.23 100.742 266.528 100.839C267.094 100.945 267.676 100.945 268.242 100.839L269.729 101.611C273.401 102.583 276.994 103.836 280.476 105.358C287.335 108.217 300.969 111.392 302.655 110.534C306.645 107.155 310.461 103.575 314.088 99.8094L311.544 92.9171C311.122 92.7854 310.693 92.6803 310.258 92.6025C307.631 92.2405 304.967 92.2405 302.341 92.6025C302.341 92.6025 302.169 93.1459 302.798 94.3184C303.005 94.7001 303.244 95.0636 303.513 95.4052C305.899 97.6854 308.502 99.7257 311.287 101.497L308.429 105.1C306.318 106.98 304.041 108.665 301.626 110.133C300.769 110.133 295.91 109.247 293.052 108.675C290.193 108.103 279.475 104.528 278.532 104.042C277.589 103.556 271.501 101.497 271.501 101.497L267.757 100.439L266.185 99.0944Z" fill="url(#paint35_linear_824_397)"/>
<path d="M302.169 93.2889C302.169 93.2889 304.77 95.6911 306.628 97.2641C309.066 98.9871 311.605 100.563 314.231 101.983C314.231 101.983 322.034 92.4881 322.977 91.5157C323.92 90.5434 328.522 83.4509 325.521 77.5596C324.769 75.9055 323.622 74.4615 322.182 73.3544C320.742 72.2474 319.052 71.5113 317.26 71.2107C316.03 71.6217 314.893 72.273 313.916 73.1268C311.883 76.9287 310.134 80.8767 308.686 84.9381L302.169 93.2889Z" fill="#9BC232"/>
<path d="M315.346 121.544C306.599 116.482 298.825 116.654 293.766 121.03C290.05 124.261 287.792 129.809 287.792 137.245C287.792 154.719 300.14 175.968 315.346 184.776C322.405 188.837 328.836 189.523 333.724 187.293C339.44 184.776 342.87 178.398 342.87 169.047C342.984 151.573 330.551 130.324 315.346 121.544ZM330.037 181.258C325.921 185.033 319.433 185.262 312.144 181.058C299.711 173.88 289.622 156.463 289.622 142.193C289.622 134.357 292.651 129.066 297.453 127.092C301.569 123.289 308.057 123.06 315.346 127.293C327.779 134.471 337.868 151.888 337.868 166.158C337.868 173.994 334.838 179.285 330.037 181.258Z" fill="#2C2C2C"/>
<path d="M312.144 123.575C305.085 119.514 298.654 118.827 293.766 121.03C288.05 123.575 284.62 129.952 284.62 139.304C284.62 156.749 296.939 178.027 312.144 186.806C320.89 191.868 328.693 191.697 333.724 187.293C337.439 184.061 339.669 178.541 339.669 171.106C339.669 153.661 327.35 132.355 312.144 123.575ZM297.453 127.092C301.398 125.491 306.542 126.092 312.144 129.323C324.578 136.53 334.667 153.918 334.667 168.217C334.842 170.594 334.521 172.98 333.724 175.226C332.927 177.471 331.671 179.525 330.037 181.258C325.921 185.033 319.433 185.262 312.144 181.058C299.711 173.88 289.622 156.463 289.622 142.193C289.622 134.414 292.651 129.066 297.453 127.092Z" fill="#292929"/>
<path d="M330.037 181.258C325.921 185.033 319.433 185.262 312.144 181.058C299.711 173.88 289.622 156.463 289.622 142.193C289.622 134.357 292.652 129.066 297.453 127.092C295.819 128.825 294.563 130.88 293.766 133.125C292.969 135.37 292.648 137.757 292.823 140.133C292.823 154.433 302.912 171.821 315.346 179.028C320.948 182.259 326.093 182.86 330.037 181.258Z" fill="#8E8E8E"/>
<path d="M312.144 123.575C309.695 121.909 306.924 120.774 304.01 120.242C301.096 119.711 298.104 119.794 295.224 120.486C300.532 119.86 305.892 121.115 310.372 124.032C325.578 132.812 337.925 154.09 337.925 171.535C337.925 181.687 333.752 188.294 327.293 190.353C334.753 188.98 339.669 182.145 339.669 171.106C339.669 153.632 327.35 132.383 312.144 123.575Z" fill="#363636"/>
<path d="M298.111 126.864C291.937 127.893 287.85 133.527 287.85 142.622C287.85 156.921 297.939 174.309 310.372 181.516C312.404 182.896 314.706 183.829 317.125 184.253C319.544 184.677 322.026 184.583 324.406 183.975C320.11 184.484 315.772 183.472 312.144 181.115C299.711 173.937 289.622 156.521 289.622 142.25C289.622 133.985 292.937 128.694 298.111 126.864Z" fill="#363636"/>
<path d="M321.091 185.491C317.365 185.36 313.739 184.256 310.572 182.288C297.882 174.967 287.707 157.15 287.707 142.593C287.707 135.415 290.165 130.038 294.624 127.464C299.082 124.89 305.085 125.434 311.373 129.066C324.063 136.387 334.238 154.204 334.238 168.761C334.238 175.939 331.78 181.316 327.293 183.889C325.406 184.97 323.264 185.523 321.091 185.491ZM300.769 127.235C298.769 127.188 296.794 127.682 295.052 128.665C291.022 130.982 288.821 135.929 288.821 142.593C288.821 156.721 298.825 174.051 311.115 181.087C316.832 184.49 322.548 185.033 326.493 182.717C330.437 180.4 332.752 175.424 332.752 168.761C332.752 154.633 322.748 137.302 310.429 130.267C307.52 128.45 304.194 127.407 300.769 127.235Z" fill="#E0E0E0"/>
<path d="M308.257 152.946C308.331 154.293 308.722 155.603 309.398 156.771C310.073 157.939 311.014 158.931 312.144 159.666C314.288 160.925 316.032 159.924 316.032 157.464C315.962 156.112 315.573 154.796 314.898 153.623C314.222 152.45 313.279 151.453 312.144 150.715C310.001 149.485 308.257 150.486 308.257 152.946Z" fill="#8E8E8E"/>
<path d="M310.001 153.947C310.043 154.691 310.259 155.414 310.632 156.06C311.004 156.706 311.522 157.255 312.144 157.664C313.316 158.351 314.288 157.664 314.288 156.435C314.241 155.696 314.023 154.977 313.651 154.337C313.279 153.697 312.763 153.152 312.144 152.745C310.973 152.059 310.001 152.602 310.001 153.947Z" fill="#AEAEAE"/>
<path d="M258.096 145.853L256.467 145.624L259.868 121.83C260.018 121.338 260.277 120.887 260.626 120.51C260.975 120.132 261.405 119.839 261.883 119.652C262.362 119.465 262.877 119.389 263.389 119.429C263.901 119.47 264.398 119.626 264.841 119.886L272.987 124.604L272.187 126.006L264.012 121.316C263.775 121.204 263.517 121.145 263.255 121.145C262.993 121.145 262.734 121.204 262.497 121.316C262.257 121.407 262.038 121.549 261.856 121.732C261.673 121.914 261.532 122.133 261.44 122.374L258.096 145.853Z" fill="#E0E0E0"/>
<path d="M272.187 132.183L259.468 124.833L260.268 123.432L273.016 130.782L272.187 132.183Z" fill="#E0E0E0"/>
<path d="M271.758 130.524H270.129V137.617H271.758V130.524Z" fill="#E0E0E0"/>
<path d="M312.887 145.424H311.258V161.382H312.887V145.424Z" fill="#E0E0E0"/>
<defs>
<linearGradient id="paint0_linear_824_397" x1="106.497" y1="205.138" x2="193.672" y2="205.138" gradientUnits="userSpaceOnUse">
<stop stop-color="#B39FA8"/>
<stop offset="1" stop-color="#D4C9CE"/>
</linearGradient>
<linearGradient id="paint1_linear_824_397" x1="139.109" y1="92.2021" x2="159.288" y2="92.2021" gradientUnits="userSpaceOnUse">
<stop offset="0.05" stop-color="#FEB9B8"/>
<stop offset="0.99" stop-color="#FEA5A4"/>
</linearGradient>
<linearGradient id="paint2_linear_824_397" x1="142.567" y1="105.987" x2="194.044" y2="111.814" gradientUnits="userSpaceOnUse">
<stop offset="0.27" stop-color="#F07A7A"/>
<stop offset="0.99" stop-color="#FEA5A4"/>
</linearGradient>
<linearGradient id="paint3_linear_824_397" x1="151.656" y1="118.255" x2="157.344" y2="118.255" gradientUnits="userSpaceOnUse">
<stop offset="0.05" stop-color="#FEB9B8"/>
<stop offset="0.99" stop-color="#FEA5A4"/>
</linearGradient>
<linearGradient id="paint4_linear_824_397" x1="126.133" y1="156.149" x2="143.625" y2="156.149" gradientUnits="userSpaceOnUse">
<stop offset="0.05" stop-color="#FEB9B8"/>
<stop offset="0.99" stop-color="#FEA5A4"/>
</linearGradient>
<linearGradient id="paint5_linear_824_397" x1="126.132" y1="157.293" x2="134.879" y2="157.293" gradientUnits="userSpaceOnUse">
<stop offset="0.27" stop-color="#F07A7A"/>
<stop offset="0.99" stop-color="#FEA5A4"/>
</linearGradient>
<linearGradient id="paint6_linear_824_397" x1="113.328" y1="158.093" x2="133.364" y2="158.093" gradientUnits="userSpaceOnUse">
<stop offset="0.05" stop-color="#FEB9B8"/>
<stop offset="0.99" stop-color="#FEA5A4"/>
</linearGradient>
<linearGradient id="paint7_linear_824_397" x1="113.328" y1="161.754" x2="123.389" y2="161.754" gradientUnits="userSpaceOnUse">
<stop offset="0.27" stop-color="#F07A7A"/>
<stop offset="0.99" stop-color="#FEA5A4"/>
</linearGradient>
<linearGradient id="paint8_linear_824_397" x1="117.329" y1="52.0209" x2="131.535" y2="52.0209" gradientUnits="userSpaceOnUse">
<stop offset="0.05" stop-color="#FEB9B8"/>
<stop offset="0.99" stop-color="#FEA5A4"/>
</linearGradient>
<linearGradient id="paint9_linear_824_397" x1="122.474" y1="55.8246" x2="130.877" y2="55.8246" gradientUnits="userSpaceOnUse">
<stop offset="0.27" stop-color="#F07A7A"/>
<stop offset="0.99" stop-color="#FEA5A4"/>
</linearGradient>
<linearGradient id="paint10_linear_824_397" x1="117.929" y1="42.8408" x2="136.422" y2="42.8408" gradientUnits="userSpaceOnUse">
<stop offset="0.05" stop-color="#FEB9B8"/>
<stop offset="0.99" stop-color="#FEA5A4"/>
</linearGradient>
<linearGradient id="paint11_linear_824_397" x1="123.446" y1="106.33" x2="113.898" y2="110.215" gradientUnits="userSpaceOnUse">
<stop offset="0.05" stop-color="#FEB9B8"/>
<stop offset="0.99" stop-color="#FEA5A4"/>
</linearGradient>
<linearGradient id="paint12_linear_824_397" x1="105.039" y1="100.753" x2="127.905" y2="100.753" gradientUnits="userSpaceOnUse">
<stop offset="0.27" stop-color="#F07A7A"/>
<stop offset="0.99" stop-color="#FEA5A4"/>
</linearGradient>
<linearGradient id="paint13_linear_824_397" x1="128.019" y1="138.618" x2="128.934" y2="138.618" gradientUnits="userSpaceOnUse">
<stop offset="0.27" stop-color="#F07A7A"/>
<stop offset="0.99" stop-color="#FEA5A4"/>
</linearGradient>
<linearGradient id="paint14_linear_824_397" x1="130.934" y1="140.648" x2="131.22" y2="140.648" gradientUnits="userSpaceOnUse">
<stop offset="0.27" stop-color="#F07A7A"/>
<stop offset="0.99" stop-color="#FEA5A4"/>
</linearGradient>
<linearGradient id="paint15_linear_824_397" x1="132.621" y1="141.506" x2="133.107" y2="141.506" gradientUnits="userSpaceOnUse">
<stop offset="0.27" stop-color="#F07A7A"/>
<stop offset="0.99" stop-color="#FEA5A4"/>
</linearGradient>
<linearGradient id="paint16_linear_824_397" x1="134.879" y1="141.878" x2="135.193" y2="141.878" gradientUnits="userSpaceOnUse">
<stop offset="0.27" stop-color="#F07A7A"/>
<stop offset="0.99" stop-color="#FEA5A4"/>
</linearGradient>
<linearGradient id="paint17_linear_824_397" x1="135.793" y1="139.161" x2="137.794" y2="139.161" gradientUnits="userSpaceOnUse">
<stop offset="0.27" stop-color="#F07A7A"/>
<stop offset="0.99" stop-color="#FEA5A4"/>
</linearGradient>
<linearGradient id="paint18_linear_824_397" x1="137.794" y1="143.022" x2="138.452" y2="143.022" gradientUnits="userSpaceOnUse">
<stop offset="0.05" stop-color="#FEB9B8"/>
<stop offset="0.99" stop-color="#FEA5A4"/>
</linearGradient>
<linearGradient id="paint19_linear_824_397" x1="116.329" y1="45.9295" x2="120.302" y2="45.9295" gradientUnits="userSpaceOnUse">
<stop offset="0.05" stop-color="#FEB9B8"/>
<stop offset="0.99" stop-color="#FEA5A4"/>
</linearGradient>
<linearGradient id="paint20_linear_824_397" x1="380.627" y1="160.21" x2="254.38" y2="160.21" gradientUnits="userSpaceOnUse">
<stop stop-color="#B39FA8"/>
<stop offset="1" stop-color="#D4C9CE"/>
</linearGradient>
<linearGradient id="paint21_linear_824_397" x1="297.11" y1="111.134" x2="281.647" y2="111.134" gradientUnits="userSpaceOnUse">
<stop offset="0.05" stop-color="#FEB9B8"/>
<stop offset="0.99" stop-color="#FEA5A4"/>
</linearGradient>
<linearGradient id="paint22_linear_824_397" x1="252.766" y1="153.815" x2="233.835" y2="150.758" gradientUnits="userSpaceOnUse">
<stop offset="0.05" stop-color="#FEB9B8"/>
<stop offset="0.99" stop-color="#FEA5A4"/>
</linearGradient>
<linearGradient id="paint23_linear_824_397" x1="252.016" y1="158.459" x2="238.829" y2="156.329" gradientUnits="userSpaceOnUse">
<stop offset="0.27" stop-color="#F07A7A"/>
<stop offset="0.99" stop-color="#FEA5A4"/>
</linearGradient>
<linearGradient id="paint24_linear_824_397" x1="343.127" y1="48.7035" x2="322.005" y2="48.7035" gradientUnits="userSpaceOnUse">
<stop offset="0.05" stop-color="#FEB9B8"/>
<stop offset="0.99" stop-color="#FEA5A4"/>
</linearGradient>
<linearGradient id="paint25_linear_824_397" x1="329.065" y1="47.5596" x2="327.036" y2="47.5596" gradientUnits="userSpaceOnUse">
<stop offset="0.05" stop-color="#FEB9B8"/>
<stop offset="0.99" stop-color="#FEA5A4"/>
</linearGradient>
<linearGradient id="paint26_linear_824_397" x1="307.143" y1="93.203" x2="299.74" y2="93.203" gradientUnits="userSpaceOnUse">
<stop offset="0.05" stop-color="#FEB9B8"/>
<stop offset="0.99" stop-color="#FEA5A4"/>
</linearGradient>
<linearGradient id="paint27_linear_824_397" x1="305.37" y1="90.7435" x2="296.939" y2="90.7435" gradientUnits="userSpaceOnUse">
<stop offset="0.27" stop-color="#F07A7A"/>
<stop offset="0.99" stop-color="#FEA5A4"/>
</linearGradient>
<linearGradient id="paint28_linear_824_397" x1="302.255" y1="88.5415" x2="296.224" y2="88.5415" gradientUnits="userSpaceOnUse">
<stop offset="0.27" stop-color="#F07A7A"/>
<stop offset="0.99" stop-color="#FEA5A4"/>
</linearGradient>
<linearGradient id="paint29_linear_824_397" x1="310.372" y1="90.286" x2="296.224" y2="90.286" gradientUnits="userSpaceOnUse">
<stop offset="0.05" stop-color="#FEB9B8"/>
<stop offset="0.99" stop-color="#FEA5A4"/>
</linearGradient>
<linearGradient id="paint30_linear_824_397" x1="328.636" y1="58.2841" x2="322.948" y2="58.2841" gradientUnits="userSpaceOnUse">
<stop offset="0.27" stop-color="#F07A7A"/>
<stop offset="0.99" stop-color="#FEA5A4"/>
</linearGradient>
<linearGradient id="paint31_linear_824_397" x1="313.945" y1="99.1516" x2="262.983" y2="99.1516" gradientUnits="userSpaceOnUse">
<stop offset="0.05" stop-color="#FEB9B8"/>
<stop offset="0.99" stop-color="#FEA5A4"/>
</linearGradient>
<linearGradient id="paint32_linear_824_397" x1="265.642" y1="97.407" x2="264.184" y2="97.407" gradientUnits="userSpaceOnUse">
<stop offset="0.27" stop-color="#F07A7A"/>
<stop offset="0.99" stop-color="#FEA5A4"/>
</linearGradient>
<linearGradient id="paint33_linear_824_397" x1="267.871" y1="90.1716" x2="263.412" y2="90.1716" gradientUnits="userSpaceOnUse">
<stop offset="0.27" stop-color="#F07A7A"/>
<stop offset="0.99" stop-color="#FEA5A4"/>
</linearGradient>
<linearGradient id="paint34_linear_824_397" x1="265.841" y1="94.2326" x2="263.012" y2="94.2326" gradientUnits="userSpaceOnUse">
<stop offset="0.27" stop-color="#F07A7A"/>
<stop offset="0.99" stop-color="#FEA5A4"/>
</linearGradient>
<linearGradient id="paint35_linear_824_397" x1="289.164" y1="107.903" x2="290.567" y2="86.3681" gradientUnits="userSpaceOnUse">
<stop offset="0.27" stop-color="#F07A7A"/>
<stop offset="0.99" stop-color="#FEA5A4"/>
</linearGradient>
</defs>
</svg>
