<?xml version="1.0" encoding="utf-8"?>
<!-- Generator: Adobe Illustrator 25.0.0, SVG Export Plug-In . SVG Version: 6.00 Build 0)  -->
<svg version="1.1" xmlns="http://www.w3.org/2000/svg" xmlns:xlink="http://www.w3.org/1999/xlink" x="0px" y="0px"
	 viewBox="0 0 245 85" style="enable-background:new 0 0 245 85;" xml:space="preserve">
<style type="text/css">
	.st0{fill:#424343;}
	.st1{fill:#54AFBE;}
	.st2{fill-rule:evenodd;clip-rule:evenodd;fill:#54AFBE;}
	.st3{fill-rule:evenodd;clip-rule:evenodd;fill:#FCB44A;}
</style>
<g id="Layer_1">
</g>
<g id="Layer_2">
	<path class="st0" d="M94.24,33.34v19.31c0,0.81,0.14,1.38,0.43,1.68c0.29,0.31,0.76,0.46,1.42,0.46c0.4,0,0.73-0.02,0.99-0.07
		c0.29-0.07,0.64-0.18,1.06-0.33l-0.4,2.64c-0.37,0.18-0.8,0.31-1.29,0.4c-0.48,0.11-0.97,0.16-1.45,0.16
		c-1.47,0-2.56-0.37-3.27-1.12c-0.68-0.77-1.02-1.95-1.02-3.53v-19.6H94.24z M102.21,37.99c-0.77,0-1.36-0.19-1.78-0.56
		c-0.4-0.4-0.59-0.95-0.59-1.65c0-0.7,0.2-1.24,0.59-1.62c0.42-0.37,1.01-0.56,1.78-0.56c0.75,0,1.32,0.19,1.72,0.56
		c0.42,0.37,0.63,0.91,0.63,1.62c0,0.7-0.21,1.25-0.63,1.65C103.53,37.8,102.96,37.99,102.21,37.99z M103.96,40.76v16.5h-3.53v-16.5
		H103.96z M108.82,57.26v-16.5h3.14l0.17,2.77c0.57-1.06,1.33-1.84,2.28-2.34c0.97-0.51,1.99-0.76,3.07-0.76
		c1.19,0,2.28,0.28,3.27,0.83c1.01,0.53,1.77,1.33,2.28,2.41c0.35-0.73,0.84-1.33,1.45-1.81c0.62-0.48,1.3-0.84,2.05-1.06
		c0.75-0.24,1.49-0.36,2.21-0.36c1.06,0,2.05,0.22,2.97,0.66c0.92,0.44,1.67,1.11,2.24,2.01c0.57,0.9,0.86,2.06,0.86,3.47v10.69
		h-3.53V47.13c0-1.34-0.32-2.31-0.96-2.9c-0.64-0.59-1.45-0.89-2.44-0.89c-0.77,0-1.48,0.19-2.14,0.56
		c-0.64,0.37-1.15,0.94-1.55,1.68c-0.4,0.73-0.59,1.63-0.59,2.71v8.98h-3.53V47.13c0-1.34-0.32-2.31-0.96-2.9
		c-0.64-0.59-1.45-0.89-2.44-0.89c-0.66,0-1.32,0.18-1.98,0.53c-0.66,0.35-1.21,0.9-1.65,1.65s-0.66,1.74-0.66,2.97v8.78H108.82z
		 M141.27,37.99c-0.77,0-1.36-0.19-1.78-0.56c-0.4-0.4-0.59-0.95-0.59-1.65c0-0.7,0.2-1.24,0.59-1.62c0.42-0.37,1.01-0.56,1.78-0.56
		c0.75,0,1.32,0.19,1.72,0.56c0.42,0.37,0.63,0.91,0.63,1.62c0,0.7-0.21,1.25-0.63,1.65C142.59,37.8,142.02,37.99,141.27,37.99z
		 M143.02,40.76v16.5h-3.53v-16.5H143.02z M152.7,35.91v16.4c0,0.81,0.21,1.41,0.63,1.78c0.44,0.37,1.02,0.56,1.75,0.56
		c0.59,0,1.11-0.09,1.55-0.26c0.44-0.2,0.85-0.46,1.22-0.79l0.79,2.57c-0.51,0.44-1.13,0.79-1.88,1.06
		c-0.73,0.24-1.54,0.36-2.44,0.36c-0.95,0-1.82-0.15-2.61-0.46c-0.79-0.31-1.41-0.8-1.85-1.49c-0.44-0.7-0.67-1.62-0.69-2.74v-16
		L152.7,35.91z M158.38,40.76v2.77H146v-2.77H158.38z M164.64,33.34v19.31c0,0.81,0.14,1.38,0.43,1.68
		c0.29,0.31,0.76,0.46,1.42,0.46c0.4,0,0.73-0.02,0.99-0.07c0.29-0.07,0.64-0.18,1.06-0.33l-0.4,2.64c-0.37,0.18-0.8,0.31-1.29,0.4
		c-0.48,0.11-0.97,0.16-1.45,0.16c-1.47,0-2.56-0.37-3.27-1.12c-0.68-0.77-1.02-1.95-1.02-3.53v-19.6H164.64z M178.09,57.59
		c-1.65,0-3.1-0.34-4.36-1.02s-2.23-1.66-2.94-2.94c-0.68-1.3-1.02-2.84-1.02-4.62c0-1.78,0.34-3.31,1.02-4.59
		c0.7-1.3,1.67-2.29,2.9-2.97c1.23-0.68,2.63-1.02,4.19-1.02c1.61,0,2.97,0.33,4.09,0.99s1.98,1.56,2.57,2.71
		c0.59,1.14,0.89,2.44,0.89,3.89c0,0.4-0.01,0.77-0.03,1.12c-0.02,0.35-0.05,0.66-0.1,0.92h-13.27v-2.71h11.71l-1.75,0.53
		c0-1.5-0.37-2.64-1.12-3.43c-0.75-0.81-1.77-1.22-3.07-1.22c-0.95,0-1.77,0.22-2.47,0.66c-0.7,0.44-1.24,1.1-1.62,1.98
		c-0.37,0.86-0.56,1.91-0.56,3.17c0,1.23,0.2,2.28,0.59,3.13c0.4,0.86,0.96,1.51,1.68,1.95c0.73,0.44,1.58,0.66,2.57,0.66
		c1.1,0,1.99-0.21,2.67-0.63c0.68-0.42,1.22-1,1.62-1.75l2.8,1.32c-0.4,0.79-0.93,1.49-1.62,2.08c-0.66,0.57-1.45,1.01-2.38,1.32
		C180.2,57.44,179.19,57.59,178.09,57.59z M195.52,57.59c-1.65,0-3.16-0.32-4.52-0.96c-1.36-0.64-2.44-1.54-3.23-2.71l2.44-2.11
		c0.48,0.9,1.18,1.63,2.08,2.18c0.92,0.53,2.02,0.79,3.3,0.79c1.01,0,1.82-0.18,2.41-0.53c0.59-0.35,0.89-0.85,0.89-1.49
		c0-0.42-0.14-0.78-0.43-1.09c-0.26-0.33-0.78-0.58-1.55-0.76l-3.46-0.73c-1.76-0.35-3.01-0.91-3.76-1.68
		c-0.75-0.79-1.12-1.79-1.12-3c0-0.9,0.26-1.74,0.79-2.51s1.3-1.39,2.31-1.85c1.03-0.48,2.27-0.73,3.7-0.73
		c1.65,0,3.06,0.3,4.22,0.89c1.17,0.57,2.06,1.4,2.67,2.47l-2.44,2.05c-0.42-0.88-1.03-1.53-1.85-1.95
		c-0.81-0.44-1.66-0.66-2.54-0.66c-0.7,0-1.31,0.09-1.81,0.26c-0.51,0.18-0.89,0.42-1.16,0.73c-0.26,0.31-0.4,0.67-0.4,1.09
		c0,0.44,0.17,0.82,0.5,1.15c0.33,0.33,0.92,0.58,1.78,0.76l3.76,0.79c1.58,0.31,2.7,0.84,3.33,1.58c0.66,0.73,0.99,1.62,0.99,2.67
		s-0.27,1.99-0.82,2.81c-0.55,0.79-1.34,1.41-2.38,1.85C198.18,57.37,196.95,57.59,195.52,57.59z M212.32,57.59
		c-1.65,0-3.16-0.32-4.52-0.96c-1.36-0.64-2.44-1.54-3.23-2.71l2.44-2.11c0.48,0.9,1.18,1.63,2.08,2.18
		c0.92,0.53,2.02,0.79,3.3,0.79c1.01,0,1.82-0.18,2.41-0.53c0.59-0.35,0.89-0.85,0.89-1.49c0-0.42-0.14-0.78-0.43-1.09
		c-0.26-0.33-0.78-0.58-1.55-0.76l-3.46-0.73c-1.76-0.35-3.01-0.91-3.76-1.68c-0.75-0.79-1.12-1.79-1.12-3
		c0-0.9,0.26-1.74,0.79-2.51s1.3-1.39,2.31-1.85c1.03-0.48,2.27-0.73,3.7-0.73c1.65,0,3.06,0.3,4.22,0.89
		c1.17,0.57,2.06,1.4,2.67,2.47l-2.44,2.05c-0.42-0.88-1.03-1.53-1.85-1.95c-0.81-0.44-1.66-0.66-2.54-0.66
		c-0.7,0-1.31,0.09-1.81,0.26c-0.51,0.18-0.89,0.42-1.16,0.73c-0.26,0.31-0.4,0.67-0.4,1.09c0,0.44,0.17,0.82,0.5,1.15
		c0.33,0.33,0.92,0.58,1.78,0.76l3.76,0.79c1.58,0.31,2.7,0.84,3.33,1.58c0.66,0.73,0.99,1.62,0.99,2.67s-0.27,1.99-0.82,2.81
		c-0.55,0.79-1.34,1.41-2.38,1.85C214.99,57.37,213.75,57.59,212.32,57.59z"/>
	<g>
		<ellipse class="st1" cx="51.29" cy="25.03" rx="4.59" ry="4.63"/>
		<path class="st2" d="M58.04,54.4c2.74-2.43,4.5-6.16,4.5-10.34c0-7.31-5.36-13.24-11.97-13.24c-4.36,0-8.18,2.58-10.27,6.43
			c2.05-1.81,4.65-2.9,7.48-2.9c6.61,0,11.97,5.93,11.97,13.24C59.75,50.08,59.12,52.41,58.04,54.4z"/>
		<path class="st3" d="M57.22,59.27c7.5,0,13.58-6.13,13.58-13.7c0-7-5.21-12.78-11.93-13.6c0.59-0.07,1.18-0.1,1.79-0.1
			c8.77,0,15.88,7.17,15.88,16.02c0,8.85-7.11,16.02-15.88,16.02c-7.24,0-13.35-4.89-15.26-11.57
			C47.74,56.47,52.16,59.27,57.22,59.27z"/>
		<path class="st3" d="M53.76,41.71c-1.42-0.55-2.96-0.85-4.57-0.85c-7.08,0-12.82,5.79-12.82,12.93c0,3.9,1.71,7.4,4.42,9.77
			c-4.82-1.86-8.24-6.57-8.24-12.08c0-7.14,5.74-12.93,12.82-12.93C48.57,38.54,51.51,39.74,53.76,41.71z"/>
	</g>
</g>
</svg>
