<?xml version="1.0" encoding="utf-8"?>
<!-- Generator: Adobe Illustrator 25.0.0, SVG Export Plug-In . SVG Version: 6.00 Build 0)  -->
<svg version="1.1" id="Layer_1" xmlns="http://www.w3.org/2000/svg" xmlns:xlink="http://www.w3.org/1999/xlink" x="0px" y="0px"
	 viewBox="0 0 52 53" style="enable-background:new 0 0 52 53;" xml:space="preserve">
<style type="text/css">
	.st0{fill:#54AFBE;}
	.st1{fill-rule:evenodd;clip-rule:evenodd;fill:#54AFBE;}
	.st2{fill-rule:evenodd;clip-rule:evenodd;fill:#FCB44A;}
</style>
<g>
	<ellipse class="st0" cx="22.75" cy="9.13" rx="4.59" ry="4.63"/>
	<path class="st1" d="M29.5,38.5c2.74-2.43,4.5-6.16,4.5-10.34c0-7.31-5.36-13.24-11.97-13.24c-4.36,0-8.18,2.58-10.27,6.43
		c2.05-1.81,4.65-2.9,7.48-2.9c6.61,0,11.97,5.93,11.97,13.24C31.21,34.18,30.58,36.51,29.5,38.5z"/>
	<path class="st2" d="M28.68,43.87c7.5,0,13.58-6.13,13.58-13.7c0-7-5.21-12.78-11.93-13.6c0.59-0.07,1.18-0.1,1.79-0.1
		c8.77,0,15.88,7.17,15.88,16.02c0,8.85-7.11,16.02-15.88,16.02c-7.24,0-13.35-4.89-15.26-11.57C19.2,41.07,23.62,43.87,28.68,43.87
		z"/>
	<path class="st2" d="M25.22,25.8c-1.42-0.55-2.96-0.85-4.57-0.85c-7.08,0-12.82,5.79-12.82,12.93c0,3.9,1.71,7.4,4.42,9.77
		C7.42,45.79,4,41.09,4,35.57c0-7.14,5.74-12.93,12.82-12.93C20.03,22.64,22.97,23.83,25.22,25.8z"/>
</g>
</svg>
